<?xml version="1.0" encoding="UTF-8"?>
<svg version="1.1" xmlns="http://www.w3.org/2000/svg" width="144" height="144">
<path d="M0 0 C13.18393452 8.68588627 23.29534333 20.54537911 26.625 36.25 C26.90301125 40.4128829 26.90250701 44.57883523 26.9375 48.75 C26.98100586 50.43222656 26.98100586 50.43222656 27.02539062 52.1484375 C27.13465642 66.70600346 21.85325981 78.77352894 12 89.4375 C-1.81087645 102.34881745 -16.82438077 106.72315347 -35.25 106.125 C-36.39098145 106.04765625 -37.53196289 105.9703125 -38.70751953 105.890625 C-47.50590877 105.50044114 -51.6655064 107.77993731 -58.375 113.25 C-66.00380018 117.46762343 -72.69197143 119.01916592 -81.375 118.25 C-82.29661404 107.85624162 -82.29661404 107.85624162 -80.14453125 104.10546875 C-79.1019939 102.96511308 -78.02355225 101.85643798 -76.91015625 100.78515625 C-74.72329632 98.59829632 -73.60658521 96.05527742 -72.375 93.25 C-72.96667969 92.97929688 -73.55835937 92.70859375 -74.16796875 92.4296875 C-83.23414183 87.58369764 -88.85873634 77.06492426 -92.05078125 67.66796875 C-93.7780595 61.584871 -93.85294907 55.66299107 -93.8125 49.375 C-93.8424707 47.73337891 -93.8424707 47.73337891 -93.87304688 46.05859375 C-93.8645106 31.63229 -88.46624686 19.48657452 -78.625 9 C-57.63153987 -10.66628736 -24.9352294 -13.77594464 0 0 Z M-71.125 12.05078125 C-81.9113882 22.59372666 -86.87509432 33.07104575 -87.375 48.25 C-86.13797891 61.81457613 -79.98909573 71.87579534 -70.375 81.25 C-68.10552594 83.08617183 -65.83203632 84.66316405 -63.375 86.25 C-64.40939196 91.72619273 -65.71733145 96.29707225 -68.375 101.25 C-68.375 101.91 -68.375 102.57 -68.375 103.25 C-63.85009746 102.72154423 -61.2257782 100.97491323 -57.625 98.25 C-56.17867187 97.1671875 -56.17867187 97.1671875 -54.703125 96.0625 C-52.53673233 94.45292361 -52.53673233 94.45292361 -51.375 93.25 C-49.34665095 93.35418145 -47.31838225 93.46651878 -45.29321289 93.62060547 C-25.84669955 95.08791463 -9.65664364 92.1862015 5.625 79.25 C14.4987836 71.07588011 19.24181358 60.62187127 20.5 48.6953125 C20.95663688 36.10925853 16.51244948 25.50298675 8.4375 15.9375 C-12.41445983 -5.85909559 -48.19337758 -7.75037298 -71.125 12.05078125 Z " fill="#F2F2F2" transform="translate(105.375,19.75)"/>
<path d="M0 0 C-1.32720588 21.65441176 -1.32720588 21.65441176 -4 27 C-2.35 27 -0.7 27 1 27 C1.66 28.32 2.32 29.64 3 31 C0.23054889 35.15417667 -2.53596447 35.32317595 -7.23046875 36.4921875 C-10.483106 37.08858079 -12.87115978 37.12317341 -16 36 C-20.29796825 29.55304762 -16.80836504 19.25052881 -15.40234375 11.984375 C-15.26957031 11.32953125 -15.13679688 10.6746875 -15 10 C-15.99 10.495 -15.99 10.495 -17 11 C-18.99960012 11.039992 -21.00047242 11.04346799 -23 11 C-23.6875 9.1875 -23.6875 9.1875 -24 7 C-21.49834923 3.2920196 -17.18626689 2.48667406 -13.125 1.25 C-12.41730469 1.01667969 -11.70960937 0.78335938 -10.98046875 0.54296875 C-6.96821507 -0.70478984 -4.04498718 -1.30074097 0 0 Z " fill="#E6E6E6" transform="translate(81,62)"/>
<path d="M0 0 C3.55247432 0.87379409 4.94828114 2.4927342 6.9375 5.4765625 C7.63597125 8.3162489 7.63597125 10.6368761 6.9375 13.4765625 C4.94828114 16.4603908 3.55247432 18.07933091 0 18.953125 C-3.92313492 19.23547183 -5.73362371 18.69581336 -9.0625 16.4765625 C-11.28175086 13.14768621 -11.82140933 11.33719742 -11.5390625 7.4140625 C-10.07519871 1.46261629 -5.59135555 -0.40240816 0 0 Z " fill="#EDEDED" transform="translate(77.0625,35.5234375)"/>
<path d="M0 0 C0.8971875 0.309375 0.8971875 0.309375 1.8125 0.625 C0.69875 1.2746875 0.69875 1.2746875 -0.4375 1.9375 C-2.80583926 3.39079909 -4.99674065 4.92107606 -7.1875 6.625 C-4.6484375 -0.796875 -4.6484375 -0.796875 0 0 Z " fill="#B0B0B0" transform="translate(73.1875,36.375)"/>
<path d="M0 0 C0.66 0.33 1.32 0.66 2 1 C0.35 2.65 -1.3 4.3 -3 6 C-3.66 5.67 -4.32 5.34 -5 5 C-3.35 3.35 -1.7 1.7 0 0 Z " fill="#000000" transform="translate(37,35)"/>
<path d="M0 0 C2.62187494 1.04874998 3.79371361 1.64931313 5.25 4.125 C5.4975 4.74375 5.745 5.3625 6 6 C3.97945196 4.35830472 1.97956942 2.69088222 0 1 C0 0.67 0 0.34 0 0 Z " fill="#000000" transform="translate(32,91)"/>
<path d="M0 0 C1.98 1.65 3.96 3.3 6 5 C3 5 3 5 1.3125 3.625 C0 2 0 2 0 0 Z " fill="#000000" transform="translate(106,35)"/>
<path d="M0 0 C0.66 0.33 1.32 0.66 2 1 C0.35 2.32 -1.3 3.64 -3 5 C-1.125 1.125 -1.125 1.125 0 0 Z " fill="#000000" transform="translate(110,91)"/>
<path d="" fill="#000000" transform="translate(0,0)"/>
</svg>
