<?xml version="1.0" encoding="UTF-8"?>
<svg version="1.1" xmlns="http://www.w3.org/2000/svg" width="100" height="100">
<path d="M0 0 C2.77575557 1.4761527 4.00620792 2.53011902 5.6484375 5.23828125 C7.12314792 12.01624294 7.27430496 19.66098024 3.5390625 25.58203125 C2.91515625 26.45859375 2.29125 27.33515625 1.6484375 28.23828125 C1.9784375 29.22828125 2.3084375 30.21828125 2.6484375 31.23828125 C4.80926125 32.30479879 4.80926125 32.30479879 7.3984375 33.11328125 C11.98752946 34.80953587 14.53514027 36.50232457 17.6484375 40.23828125 C18.2878125 39.51640625 18.9271875 38.79453125 19.5859375 38.05078125 C23.05017134 34.54649846 27.29983642 32.46468921 31.6484375 30.23828125 C30.37868778 25.82306016 30.37868778 25.82306016 27.6484375 22.23828125 C26.0067194 8.46528339 26.0067194 8.46528339 28.8984375 2.78125 C31.90859927 -0.08258446 34.98235869 -1.13413251 39.0859375 -1.51171875 C43.39900875 -1.11894766 46.813384 0.01812716 50.16796875 2.796875 C53.4244856 8.16712046 53.05259087 16.23063773 51.6484375 22.23828125 C50.36595054 24.27126058 49.04228926 26.27997712 47.6484375 28.23828125 C48.1434375 29.72328125 48.1434375 29.72328125 48.6484375 31.23828125 C50.81183997 32.26747333 50.81183997 32.26747333 53.3984375 33.05078125 C58.46652726 34.960391 60.85146712 36.57666395 63.6484375 41.23828125 C63.6484375 43.21828125 63.6484375 45.19828125 63.6484375 47.23828125 C33.2884375 47.23828125 2.9284375 47.23828125 -28.3515625 47.23828125 C-28.3515625 40.23828125 -28.3515625 40.23828125 -26.4140625 37.61328125 C-22.61709702 34.66869577 -18.62051083 32.42390839 -14.3515625 30.23828125 C-15.62131222 25.82306016 -15.62131222 25.82306016 -18.3515625 22.23828125 C-19.9932806 8.46528339 -19.9932806 8.46528339 -17.1015625 2.78125 C-12.07110962 -2.00466698 -6.30856052 -2.0434706 0 0 Z M-11.57421875 5.37109375 C-14.03482769 7.95608512 -13.85490482 9.59291191 -13.7890625 13.11328125 C-13.78712891 14.65628906 -13.78712891 14.65628906 -13.78515625 16.23046875 C-13.30149265 19.58561266 -12.08921798 21.37114971 -10.3515625 24.23828125 C-10.05859375 26.9140625 -10.05859375 26.9140625 -10.1640625 29.55078125 C-10.19113281 30.43378906 -10.21820313 31.31679687 -10.24609375 32.2265625 C-10.28089844 32.89042969 -10.31570312 33.55429688 -10.3515625 34.23828125 C-11.13402344 34.63660156 -11.91648437 35.03492187 -12.72265625 35.4453125 C-13.73457031 35.97511719 -14.74648438 36.50492188 -15.7890625 37.05078125 C-17.30306641 37.83388672 -17.30306641 37.83388672 -18.84765625 38.6328125 C-21.63847468 40.05246609 -21.63847468 40.05246609 -22.3515625 43.23828125 C-10.8015625 43.23828125 0.7484375 43.23828125 12.6484375 43.23828125 C9.09797084 39.68781459 7.30508811 38.3768458 2.8984375 36.48828125 C1.91359375 36.0603125 0.92875 35.63234375 -0.0859375 35.19140625 C-0.83359375 34.876875 -1.58125 34.56234375 -2.3515625 34.23828125 C-2.43343305 32.6766764 -2.49114525 31.11379642 -2.5390625 29.55078125 C-2.59126953 28.24560547 -2.59126953 28.24560547 -2.64453125 26.9140625 C-2.3515625 24.23828125 -2.3515625 24.23828125 -0.8515625 21.80078125 C1.00931996 18.62177372 0.95628067 16.57619066 0.8359375 12.92578125 C0.80886719 11.85714844 0.78179687 10.78851563 0.75390625 9.6875 C0.70169922 8.47513672 0.70169922 8.47513672 0.6484375 7.23828125 C-5.23708206 3.92154237 -5.23708206 3.92154237 -11.57421875 5.37109375 Z M34.42578125 5.37109375 C31.96517231 7.95608512 32.14509518 9.59291191 32.2109375 13.11328125 C32.21287109 14.65628906 32.21287109 14.65628906 32.21484375 16.23046875 C32.69850735 19.58561266 33.91078202 21.37114971 35.6484375 24.23828125 C35.94140625 26.9140625 35.94140625 26.9140625 35.8359375 29.55078125 C35.80886719 30.43378906 35.78179687 31.31679687 35.75390625 32.2265625 C35.71910156 32.89042969 35.68429688 33.55429688 35.6484375 34.23828125 C34.86597656 34.63660156 34.08351563 35.03492187 33.27734375 35.4453125 C32.26542969 35.97511719 31.25351562 36.50492188 30.2109375 37.05078125 C28.69693359 37.83388672 28.69693359 37.83388672 27.15234375 38.6328125 C24.36152532 40.05246609 24.36152532 40.05246609 23.6484375 43.23828125 C35.1984375 43.23828125 46.7484375 43.23828125 58.6484375 43.23828125 C55.09797084 39.68781459 53.30508811 38.3768458 48.8984375 36.48828125 C47.91359375 36.0603125 46.92875 35.63234375 45.9140625 35.19140625 C45.16640625 34.876875 44.41875 34.56234375 43.6484375 34.23828125 C43.56656695 32.6766764 43.50885475 31.11379642 43.4609375 29.55078125 C43.40873047 28.24560547 43.40873047 28.24560547 43.35546875 26.9140625 C43.6484375 24.23828125 43.6484375 24.23828125 45.1484375 21.80078125 C47.00931996 18.62177372 46.95628067 16.57619066 46.8359375 12.92578125 C46.80886719 11.85714844 46.78179687 10.78851563 46.75390625 9.6875 C46.70169922 8.47513672 46.70169922 8.47513672 46.6484375 7.23828125 C40.76291794 3.92154237 40.76291794 3.92154237 34.42578125 5.37109375 Z " fill="#FFFFFF" transform="translate(32.3515625,48.76171875)"/>
<path d="M0 0 C0.70906494 -0.00056396 1.41812988 -0.00112793 2.14868164 -0.00170898 C7.98488242 0.12101016 12.9110799 1.0985799 17.1875 5.375 C19.54018513 5.50850672 21.89492963 5.60629068 24.25 5.6875 C31.18956342 6.05829762 36.66275748 6.90352815 41.73828125 11.90234375 C46.26584331 17.11860539 46.53320687 20.65488256 46.46875 27.390625 C45.97455009 32.63463519 43.48111615 35.18089278 39.75 38.625 C34.76103253 42.03209974 30.34648455 42.76186896 24.375 42.75 C23.66593506 42.75056396 22.95687012 42.75112793 22.22631836 42.75170898 C16.39011758 42.62898984 11.4639201 41.6514201 7.1875 37.375 C4.83481487 37.24149328 2.48007037 37.14370932 0.125 37.0625 C-6.81456342 36.69170238 -12.28775748 35.84647185 -17.36328125 30.84765625 C-21.89084331 25.63139461 -22.15820687 22.09511744 -22.09375 15.359375 C-21.59955009 10.11536481 -19.10611615 7.56910722 -15.375 4.125 C-10.38603253 0.71790026 -5.97148455 -0.01186896 0 0 Z M-15.75 11.5625 C-17.26554843 15.57424584 -17.48972569 19.14233944 -16.8125 23.375 C-14.72174874 27.22198231 -12.12719199 29.32135719 -7.99609375 30.8671875 C-0.86374825 32.5258725 6.27948493 32.31102672 12.62890625 28.49609375 C14.86848531 26.88516846 16.07312064 25.95200226 17.1875 23.375 C17.89711036 18.67719974 17.63670414 15.30796244 15.5625 11 C12.12577459 7.20151402 8.87735908 5.59035518 3.78515625 4.94140625 C-4.58089108 4.932162 -9.97709888 5.04470841 -15.75 11.5625 Z M21.1875 11.375 C21.23390625 12.24382813 21.2803125 13.11265625 21.328125 14.0078125 C21.65978152 24.59713142 21.65978152 24.59713142 19.4375 28 C17.46086205 30.08645117 15.51601077 31.71177802 13.1875 33.375 C13.1875 34.035 13.1875 34.695 13.1875 35.375 C19.32950242 38.18213091 26.14602313 38.62348171 32.640625 36.6171875 C36.47943097 34.81152691 38.95258279 33.06660432 41.1875 29.375 C42.03381573 24.6859534 41.87752379 20.6223507 39.5625 16.4375 C33.64566545 11.29919631 28.72807265 10.97263743 21.1875 11.375 Z " fill="#FFFFFF" transform="translate(35.8125,3.625)"/>
<path d="M0 0 C2 1.125 2 1.125 3 3 C3.38601984 6.08815875 3.47901666 8.10184376 2 10.875 C-1.21820324 12.68523932 -4.40216898 12.53967465 -8 12 C-10 10.875 -10 10.875 -11 9 C-11.38601984 5.91184125 -11.47901666 3.89815624 -10 1.125 C-6.78179676 -0.68523932 -3.59783102 -0.53967465 0 0 Z M-6 5 C-6 5.66 -6 6.32 -6 7 C-4.68 7 -3.36 7 -2 7 C-2 6.34 -2 5.68 -2 5 C-3.32 5 -4.64 5 -6 5 Z " fill="#FFFFFF" transform="translate(93,36)"/>
<path d="M0 0 C2 1.125 2 1.125 3 3 C3.38601984 6.08815875 3.47901666 8.10184376 2 10.875 C-1.21820324 12.68523932 -4.40216898 12.53967465 -8 12 C-10 10.875 -10 10.875 -11 9 C-11.38601984 5.91184125 -11.47901666 3.89815624 -10 1.125 C-6.78179676 -0.68523932 -3.59783102 -0.53967465 0 0 Z M-6 5 C-6 5.66 -6 6.32 -6 7 C-4.68 7 -3.36 7 -2 7 C-2 6.34 -2 5.68 -2 5 C-3.32 5 -4.64 5 -6 5 Z " fill="#FFFFFF" transform="translate(15,36)"/>
<path d="M0 0 C1.98 0 3.96 0 6 0 C6 1.98 6 3.96 6 6 C4.02 6 2.04 6 0 6 C0 4.02 0 2.04 0 0 Z " fill="#FFFFFF" transform="translate(90,52)"/>
<path d="M0 0 C1.98 0 3.96 0 6 0 C6 1.98 6 3.96 6 6 C4.02 6 2.04 6 0 6 C0 4.02 0 2.04 0 0 Z " fill="#FFFFFF" transform="translate(4,52)"/>
</svg>
