<?xml version="1.0" encoding="UTF-8"?>
<svg version="1.1" xmlns="http://www.w3.org/2000/svg" width="128" height="128">
<path d="M0 0 C3.97973897 2.54703294 5.18499803 4.94066338 6.3125 9.375 C6.98226915 13.32795123 7.53868646 16.99832913 7 21 C4.625 23.8125 4.625 23.8125 2 26 C1.34 26.66 0.68 27.32 0 28 C2.67213678 34.51333341 7.30517144 41.00097421 13.5703125 44.390625 C14.37210938 44.59171875 15.17390625 44.7928125 16 45 C16.99 44.34 17.98 43.68 19 43 C23.23922077 42.03808846 26.70878055 42.24069799 30.484375 44.4609375 C32.75897519 46.22263765 34.9017528 48.03236658 37 50 C37.56589844 50.50789063 38.13179687 51.01578125 38.71484375 51.5390625 C40 53 40 53 40.6875 56.0625 C39.63955527 62.06436526 36.5996654 66.06293296 32 70 C24.6351054 72.70908323 15.13393908 67.86920393 8.46875 64.85546875 C-5.48046424 57.36003058 -14.1619011 45.61417287 -19.05078125 30.8203125 C-21.37573058 22.44230126 -22.83078612 11.85504323 -18.9140625 3.75390625 C-13.96571337 -2.49900765 -7.10106191 -1.3626362 0 0 Z M-14 3 C-13.34 3.66 -12.68 4.32 -12 5 C-12 5.99 -12 6.98 -12 8 C-13.65 7.67 -15.3 7.34 -17 7 C-20.15184753 17.24991067 -18.17975175 28.41850928 -14 38 C-13.68417969 38.76570313 -13.36835937 39.53140625 -13.04296875 40.3203125 C-7.03330632 52.87983173 4.38583893 61.04920118 17 66 C23.8994455 68.24620618 23.8994455 68.24620618 31 68 C34.57939835 64.70779408 37.68287614 61.23948294 38.37890625 56.32421875 C38.25386719 55.55722656 38.12882812 54.79023437 38 54 C37.01 53.34 36.02 52.68 35 52 C34.505 52.99 34.505 52.99 34 54 C33.01 54 32.02 54 31 54 C30.67 53.34 30.34 52.68 30 52 C28.02477154 50.95191959 26.02518491 49.9479589 24 49 C24 47.68 24 46.36 24 45 C20.06924356 45.57452746 20.06924356 45.57452746 17 48 C17.3185177 50.10820797 17.3185177 50.10820797 18 52 C15.36 51.67 12.72 51.34 10 51 C10 48 10 48 12 46 C11.20335937 45.32904297 11.20335937 45.32904297 10.390625 44.64453125 C-0.12607167 35.64392771 -0.12607167 35.64392771 -2 29 C-1.9375 26.875 -1.9375 26.875 -1 25 C-0.175 24.566875 0.65 24.13375 1.5 23.6875 C4.27787222 22.18204009 4.27787222 22.18204009 5 19 C5 13.73772841 4.03461028 8.86853173 2 4 C-3.07600047 0.61599968 -8.18515651 2.06962504 -14 3 Z " fill="#FFFFFF" transform="translate(53,31)"/>
<path d="M0 0 C1.67542976 0.28604898 3.34385343 0.61781233 5 1 C5.5625 2.9375 5.5625 2.9375 6 5 C5 6 5 6 2.4375 6.0625 C1.2309375 6.0315625 1.2309375 6.0315625 0 6 C-0.38218767 4.34385343 -0.71395102 2.67542976 -1 1 C-0.67 0.67 -0.34 0.34 0 0 Z " fill="#FFFFFF" transform="translate(75,85)"/>
</svg>
