<?xml version="1.0" encoding="UTF-8"?>
<svg version="1.1" xmlns="http://www.w3.org/2000/svg" width="100" height="100">
<path d="M0 0 C1.18078125 -0.01160156 2.3615625 -0.02320312 3.578125 -0.03515625 C15.15765489 0.00310211 28.45836872 1.77232889 37.52154541 9.70710754 C41.64855935 13.93618308 42.68280019 17.00755181 42.67977905 22.87657166 C42.63332748 24.26604759 42.63332748 24.26604759 42.5859375 25.68359375 C42.57744781 26.65031509 42.56895813 27.61703644 42.56021118 28.61305237 C42.52680092 31.68070048 42.45154474 34.74565548 42.375 37.8125 C42.34488441 39.90035248 42.3175114 41.98824645 42.29296875 44.07617188 C42.22705002 49.17680844 42.12361396 54.2754487 42 59.375 C38.09375 56.7109375 38.09375 56.7109375 37.25 53.6875 C37.1675 52.924375 37.085 52.16125 37 51.375 C36.401875 51.601875 35.80375 51.82875 35.1875 52.0625 C34.1046875 52.2171875 34.1046875 52.2171875 33 52.375 C31.25 50.9375 31.25 50.9375 30 49.375 C31.375 47.875 31.375 47.875 33 46.375 C33.66 46.375 34.32 46.375 35 46.375 C37.10428384 41.24580814 37.21755666 36.8139165 37 31.375 C36.2575 31.9525 35.515 32.53 34.75 33.125 C20.5854995 42.60172534 -1.02007061 42.2192376 -17.24609375 39.87890625 C-23.72562895 38.50210225 -32.1727385 36.2022615 -37 31.375 C-37.21277961 36.69449029 -37.38992166 41.4756606 -35 46.375 C-33.22386846 47.45432976 -33.22386846 47.45432976 -31 48.375 C-30.12988281 48.7771875 -29.25976562 49.179375 -28.36328125 49.59375 C-17.58365593 54.12091659 -6.68367865 55.57612749 5 55.375 C3.125 59.25 3.125 59.25 2 60.375 C-12.43434413 61.37845708 -24.57211218 59.07082632 -37 51.375 C-37.21277961 56.69449029 -37.38992166 61.4756606 -35 66.375 C-33.22386846 67.45432976 -33.22386846 67.45432976 -31 68.375 C-30.12988281 68.7771875 -29.25976562 69.179375 -28.36328125 69.59375 C-19.30229856 73.39913069 -10.73433333 74.59392176 -1 75.375 C-0.67 77.025 -0.34 78.675 0 80.375 C-13.96725722 80.99221104 -25.05320807 78.77291324 -37 71.375 C-37.19117978 76.15449439 -37.03569718 79.99825105 -35 84.375 C-33.22600957 85.46370367 -33.22600957 85.46370367 -31 86.375 C-30.12988281 86.7771875 -29.25976562 87.179375 -28.36328125 87.59375 C-15.82177985 92.86085942 -3.48049884 93.56127648 10.015625 93.3125 C13.70951961 93.38985905 16.56528736 94.06653804 20 95.375 C19.67 96.035 19.34 96.695 19 97.375 C12.70073624 98.81253899 6.30130496 98.59699867 -0.125 98.625 C-1.28515625 98.645625 -2.4453125 98.66625 -3.640625 98.6875 C-16.06535504 98.74309163 -29.70047828 96.57951674 -39.09716797 87.72753906 C-43.76825711 82.14237618 -42.86250614 74.95015166 -42.796875 68.0625 C-42.80092277 66.56469151 -42.80675089 65.06688688 -42.81427002 63.5690918 C-42.82308805 60.43858097 -42.81035148 57.30910131 -42.78222656 54.17871094 C-42.74803865 50.18014954 -42.76773716 46.18400449 -42.80366135 42.18553162 C-42.82541762 39.09515408 -42.81840879 36.00534277 -42.80289459 32.91494751 C-42.79891253 31.44145415 -42.80373186 29.96790817 -42.81777191 28.49447632 C-42.91380232 15.58596291 -42.91380232 15.58596291 -39.09716797 11.02246094 C-28.67520789 1.20464625 -13.61651304 -0.1337867 0 0 Z M-32.875 12.77734375 C-34.39228013 14.20424617 -34.39228013 14.20424617 -36 16.375 C-36.33 16.705 -36.66 17.035 -37 17.375 C-37.50169415 20.20573436 -37.50169415 20.20573436 -37 23.375 C-30.66470843 31.69007019 -19.66708484 34.38788307 -9.78125 35.8515625 C3.9242487 37.20325159 21.40312835 36.55266025 32.875 27.97265625 C34.39228013 26.54575383 34.39228013 26.54575383 36 24.375 C36.495 23.88 36.495 23.88 37 23.375 C37.51475957 19.60009651 37.40212803 17.92457497 35.125 14.8125 C18.08617055 1.52221303 -14.99260681 -0.59719615 -32.875 12.77734375 Z " fill="#FFFFFF" transform="translate(50,-0.375)"/>
<path d="M0 0 C4.67226967 2.88535859 8.81247855 6.42496959 10.234375 11.89453125 C11.02135212 19.73684975 10.81391571 24.73544983 7.234375 31.89453125 C10.864375 35.52453125 14.494375 39.15453125 18.234375 42.89453125 C16.914375 44.21453125 15.594375 45.53453125 14.234375 46.89453125 C10.604375 43.26453125 6.974375 39.63453125 3.234375 35.89453125 C1.254375 36.88453125 -0.725625 37.87453125 -2.765625 38.89453125 C-9.50433445 39.91363268 -15.97340469 40.00208166 -21.890625 36.33203125 C-26.86177701 32.32363493 -29.34689476 28.97016047 -30.20703125 22.65234375 C-30.56684431 15.53263855 -30.06245047 10.31562311 -25.51171875 4.671875 C-18.71488972 -2.2465975 -9.10612645 -3.63987823 0 0 Z M-23.140625 10.51953125 C-25.34470393 15.09723364 -25.5627889 18.90005536 -24.765625 23.89453125 C-22.43593569 28.73311673 -19.60421048 31.56484194 -14.765625 33.89453125 C-9.77114911 34.69169515 -5.96832739 34.47361018 -1.390625 32.26953125 C2.19345213 29.0267948 4.82972741 26.42977229 5.6171875 21.49609375 C5.87321419 15.81230131 5.17064432 12.2451447 1.234375 7.89453125 C-3.11623845 3.95826193 -6.68339506 3.25569206 -12.3671875 3.51171875 C-17.30086604 4.29917884 -19.89788855 6.93545412 -23.140625 10.51953125 Z " fill="#FFFFFF" transform="translate(81.765625,53.10546875)"/>
</svg>
