<?xml version="1.0" encoding="UTF-8"?>
<svg version="1.1" xmlns="http://www.w3.org/2000/svg" width="64" height="64">
<path d="M0 0 C2.03195231 -0.00218385 4.06335845 -0.02037019 6.09521484 -0.03930664 C21.62045016 -0.06238677 21.62045016 -0.06238677 27.04443359 3.37280273 C30.59683269 9.09611239 30.50636198 15.61019379 30.48193359 22.12280273 C30.49804688 22.9780957 30.51416016 23.83338867 30.53076172 24.71459961 C30.53560246 31.06081144 29.88995358 37.27716068 25.35693359 42.12280273 C18.9914327 45.21461745 11.23475163 44.3714349 4.33886719 44.37060547 C2.30691488 44.37278932 0.27550874 44.39097566 -1.75634766 44.40991211 C-17.28158297 44.43299224 -17.28158297 44.43299224 -22.70556641 40.99780273 C-26.25796551 35.27449307 -26.1674948 28.76041168 -26.14306641 22.24780273 C-26.15917969 21.39250977 -26.17529297 20.5372168 -26.19189453 19.65600586 C-26.19673527 13.30979403 -25.55108639 7.09344479 -21.01806641 2.24780273 C-14.65256551 -0.84401199 -6.89588444 -0.00082943 0 0 Z M-18.83056641 7.18530273 C-16.07078168 15.67694805 -7.99164325 21.74810878 -0.81494141 26.63842773 C2.37730715 27.51818127 4.19994885 26.54478148 7.16943359 25.18530273 C9.34910256 23.46319786 11.30657208 21.78694559 13.29443359 19.87280273 C13.80619141 19.39907227 14.31794922 18.9253418 14.84521484 18.43725586 C17.911211 15.55648055 20.71091548 12.60252528 23.16943359 9.18530273 C23.16943359 8.52530273 23.16943359 7.86530273 23.16943359 7.18530273 C11.55932714 3.58572716 -7.4218431 1.48094108 -18.83056641 7.18530273 Z M-20.83056641 15.18530273 C-20.83056641 20.46530273 -20.83056641 25.74530273 -20.83056641 31.18530273 C-20.17056641 31.51530273 -19.51056641 31.84530273 -18.83056641 32.18530273 C-17.82478051 30.89813627 -16.82609843 29.60541615 -15.83056641 28.31030273 C-14.99525391 27.23135742 -14.99525391 27.23135742 -14.14306641 26.13061523 C-12.64413264 24.30009423 -12.64413264 24.30009423 -12.83056641 22.18530273 C-15.35949362 19.45132737 -17.72651774 17.25466851 -20.83056641 15.18530273 Z M24.16943359 15.18530273 C23.36505859 16.15467773 22.56068359 17.12405273 21.73193359 18.12280273 C19.16943359 21.18530273 19.16943359 21.18530273 17.16943359 22.18530273 C18.82110916 25.76393313 20.95229851 28.93350461 23.16943359 32.18530273 C23.82943359 31.85530273 24.48943359 31.52530273 25.16943359 31.18530273 C25.16943359 25.90530273 25.16943359 20.62530273 25.16943359 15.18530273 C24.83943359 15.18530273 24.50943359 15.18530273 24.16943359 15.18530273 Z M-9.83056641 27.18530273 C-11.6496294 29.39585216 -11.6496294 29.39585216 -13.45556641 32.12280273 C-14.08720703 33.03932617 -14.71884766 33.95584961 -15.36962891 34.90014648 C-16.92034056 36.87368391 -16.92034056 36.87368391 -16.83056641 38.18530273 C-3.95458365 39.96994639 8.31185653 41.0076977 21.16943359 38.18530273 C20.43364147 36.71974957 19.68018234 35.26305786 18.91943359 33.81030273 C18.29294922 32.59213867 18.29294922 32.59213867 17.65380859 31.34936523 C15.99558263 28.93184633 14.97961757 28.00359385 12.16943359 27.18530273 C10.41396936 28.16056064 8.6610213 29.14375639 6.95849609 30.20874023 C4.16555266 31.73327268 2.28177344 31.70402604 -0.83056641 31.18530273 C-3.27451145 29.99413624 -5.50913665 28.61387489 -7.83056641 27.18530273 C-8.49056641 27.18530273 -9.15056641 27.18530273 -9.83056641 27.18530273 Z " fill="#FFFFFF" transform="translate(29.83056640625,9.814697265625)"/>
</svg>
