<?xml version="1.0" encoding="UTF-8"?>
<svg version="1.1" xmlns="http://www.w3.org/2000/svg" width="150" height="150">
<path d="M0 0 C5.28 0 10.56 0 16 0 C16.37125 1.546875 16.7425 3.09375 17.125 4.6875 C18.61430986 8.51638026 19.52929597 9.74945474 23.20703125 11.70703125 C26.77866244 12.9449474 30.35607404 13.99823341 34 15 C34.89847656 15.40089844 35.79695313 15.80179688 36.72265625 16.21484375 C40.29701342 17.44716929 42.66181681 15.49026035 46 14 C49.96172894 13.80191355 52.00477809 15.60646536 54.875 18.125 C57.54234956 20.95435777 57.99148681 21.51474836 58.0625 25.5625 C57 29 57 29 55.625 31.8125 C54.74274327 36.31200933 56.51825897 38.64676316 58.72265625 42.53515625 C60 45 60 45 60.6875 48.875 C61.68093294 52.13555545 61.68093294 52.13555545 64.33984375 53.31640625 C66.84968658 54.32667959 69.42355927 55.17421771 72 56 C72 61.28 72 66.56 72 72 C70.4325 72.4125 68.865 72.825 67.25 73.25 C63.72037696 74.62899236 62.33272816 75.36593312 60.55078125 78.76171875 C59.90685963 80.83092144 59.32506456 82.92080594 58.81640625 85.02734375 C58 88 58 88 56.31640625 90.59765625 C54.73597218 92.88872357 54.73597218 92.88872357 55.3984375 95.28125 C55.72070312 96.0134375 56.04296875 96.745625 56.375 97.5 C57.3395019 100.06354453 57.99400718 101.87415083 58.125 104.625 C56.25429766 108.5742605 53.62771919 111.55507593 50 114 C46.07091815 114.06893126 43.69613492 113.34033263 40.1875 111.625 C35.68799067 110.74274327 33.35323684 112.51825897 29.46484375 114.72265625 C27 116 27 116 23.125 116.6875 C19.86444455 117.68093294 19.86444455 117.68093294 18.68359375 120.33984375 C17.67332041 122.84968658 16.82578229 125.42355927 16 128 C10.72 128 5.44 128 0 128 C-0.37125 126.453125 -0.7425 124.90625 -1.125 123.3125 C-2.61430986 119.48361974 -3.52929597 118.25054526 -7.20703125 116.29296875 C-10.77866244 115.0550526 -14.35607404 114.00176659 -18 113 C-18.89847656 112.59910156 -19.79695313 112.19820313 -20.72265625 111.78515625 C-24.29701342 110.55283071 -26.66181681 112.50973965 -30 114 C-33.96172894 114.19808645 -36.00477809 112.39353464 -38.875 109.875 C-41.54234956 107.04564223 -41.99148681 106.48525164 -42.0625 102.4375 C-41 99 -41 99 -39.625 96.1875 C-38.74274327 91.68799067 -40.51825897 89.35323684 -42.72265625 85.46484375 C-44 83 -44 83 -44.6875 79.125 C-45.68093294 75.86444455 -45.68093294 75.86444455 -48.33984375 74.68359375 C-50.84968658 73.67332041 -53.42355927 72.82578229 -56 72 C-56 66.72 -56 61.44 -56 56 C-54.453125 55.62875 -52.90625 55.2575 -51.3125 54.875 C-47.48361974 53.38569014 -46.25054526 52.47070403 -44.29296875 48.79296875 C-43.0550526 45.22133756 -42.00176659 41.64392596 -41 38 C-40.59910156 37.10152344 -40.19820312 36.20304687 -39.78515625 35.27734375 C-38.55283071 31.70298658 -40.50973965 29.33818319 -42 26 C-42.19808645 22.03827106 -40.39353464 19.99522191 -37.875 17.125 C-35.04564223 14.45765044 -34.48525164 14.00851319 -30.4375 13.9375 C-27 15 -27 15 -24.1875 16.375 C-19.68799067 17.25725673 -17.35323684 15.48174103 -13.46484375 13.27734375 C-11 12 -11 12 -7.125 11.3125 C-3.86444455 10.31906706 -3.86444455 10.31906706 -2.68359375 7.66015625 C-1.67332041 5.15031342 -0.82578229 2.57644073 0 0 Z M4 4 C3.86207031 4.67546875 3.72414062 5.3509375 3.58203125 6.046875 C2.7080472 9.11691036 1.83249908 11.37148322 0 14 C-3.23383827 15.56923519 -6.30862973 16.37409521 -9.8046875 17.19140625 C-12.67807804 17.91853564 -14.50585055 18.69321774 -16.9375 20.3125 C-20.64197364 22.35374058 -21.99997892 22.10638881 -26 21 C-29.05272465 20.10169161 -29.05272465 20.10169161 -32 20 C-34.58333333 21.41666667 -34.58333333 21.41666667 -36 24 C-35.89830839 26.94727535 -35.89830839 26.94727535 -35 30 C-33.70277013 35.04943241 -34.25847659 37.36508513 -36.8125 41.875 C-38.80048004 45.50836034 -40.24961621 48.38915475 -40.75 52.5 C-42 56 -42 56 -44.3359375 57.375 C-46.86832077 58.39646552 -49.37196837 59.26298744 -52 60 C-52 62.64 -52 65.28 -52 68 C-51.32453125 68.13792969 -50.6490625 68.27585937 -49.953125 68.41796875 C-46.88308964 69.2919528 -44.62851678 70.16750092 -42 72 C-40.43076481 75.23383827 -39.62590479 78.30862973 -38.80859375 81.8046875 C-38.08146436 84.67807804 -37.30678226 86.50585055 -35.6875 88.9375 C-33.64625942 92.64197364 -33.89361119 93.99997892 -35 98 C-35.89830839 101.05272465 -35.89830839 101.05272465 -36 104 C-34.58333333 106.58333333 -34.58333333 106.58333333 -32 108 C-29.05272465 107.89830839 -29.05272465 107.89830839 -26 107 C-20.95056759 105.70277013 -18.63491487 106.25847659 -14.125 108.8125 C-10.49163966 110.80048004 -7.61084525 112.24961621 -3.5 112.75 C0 114 0 114 1.375 116.3359375 C2.39646552 118.86832077 3.26298744 121.37196837 4 124 C6.64 124 9.28 124 12 124 C12.13792969 123.32453125 12.27585937 122.6490625 12.41796875 121.953125 C13.2919528 118.88308964 14.16750092 116.62851678 16 114 C19.23383827 112.43076481 22.30862973 111.62590479 25.8046875 110.80859375 C28.67807804 110.08146436 30.50585055 109.30678226 32.9375 107.6875 C36.64197364 105.64625942 37.99997892 105.89361119 42 107 C45.05272465 107.89830839 45.05272465 107.89830839 48 108 C50.58333333 106.58333333 50.58333333 106.58333333 52 104 C51.89830839 101.05272465 51.89830839 101.05272465 51 98 C49.70277013 92.95056759 50.25847659 90.63491487 52.8125 86.125 C54.80048004 82.49163966 56.24961621 79.61084525 56.75 75.5 C58 72 58 72 60.3359375 70.625 C62.86832077 69.60353448 65.37196837 68.73701256 68 68 C68 65.36 68 62.72 68 60 C67.32453125 59.86207031 66.6490625 59.72414062 65.953125 59.58203125 C62.88308964 58.7080472 60.62851678 57.83249908 58 56 C56.43076481 52.76616173 55.62590479 49.69137027 54.80859375 46.1953125 C54.08146436 43.32192196 53.30678226 41.49414945 51.6875 39.0625 C49.64625942 35.35802636 49.89361119 34.00002108 51 30 C51.89830839 26.94727535 51.89830839 26.94727535 52 24 C50.58333333 21.41666667 50.58333333 21.41666667 48 20 C45.05272465 20.10169161 45.05272465 20.10169161 42 21 C36.95056759 22.29722987 34.63491487 21.74152341 30.125 19.1875 C26.49163966 17.19951996 23.61084525 15.75038379 19.5 15.25 C16 14 16 14 14.625 11.6640625 C13.60353448 9.13167923 12.73701256 6.62803163 12 4 C9.36 4 6.72 4 4 4 Z " fill="#FFFFFF" transform="translate(67,11)"/>
<path d="M0 0 C4.61581142 2.18643699 6.72864085 4.49599804 9 9 C9.82885269 14.54808604 9.7240695 19.47140883 7.3125 24.5625 C4.21064779 27.8320199 1.61649202 29.75850523 -2.90234375 30.43359375 C-9.05071801 30.44150672 -13.31314296 30.4465054 -18 26 C-21.88937897 20.55860924 -21.79042609 15.48149391 -21 9 C-16.63929544 -0.20593186 -9.3488659 -1.1401056 0 0 Z M-13 7 C-13.5775 7.4125 -14.155 7.825 -14.75 8.25 C-16.77297816 11.08216942 -16.88180145 13.57224219 -17 17 C-15.86250805 19.78508316 -15.86250805 19.78508316 -14 22 C-13.38125 22.86625 -13.38125 22.86625 -12.75 23.75 C-9.91783058 25.77297816 -7.42775781 25.88180145 -4 26 C-1.21491684 24.86250805 -1.21491684 24.86250805 1 23 C1.5775 22.5875 2.155 22.175 2.75 21.75 C4.77297816 18.91783058 4.88180145 16.42775781 5 13 C3.86250805 10.21491684 3.86250805 10.21491684 2 8 C1.5875 7.4225 1.175 6.845 0.75 6.25 C-4.03003066 2.83569238 -8.60053799 3.57819621 -13 7 Z " fill="#FFFFFF" transform="translate(81,60)"/>
<path d="M0 0 C1.98 0.495 1.98 0.495 4 1 C3.67 2.32 3.34 3.64 3 5 C1.68 4.67 0.36 4.34 -1 4 C-0.67 2.68 -0.34 1.36 0 0 Z " fill="#FFFFFF" transform="translate(106,81)"/>
<path d="M0 0 C1.98 0.495 1.98 0.495 4 1 C3.67 2.32 3.34 3.64 3 5 C1.68 4.67 0.36 4.34 -1 4 C-0.67 2.68 -0.34 1.36 0 0 Z " fill="#FFFFFF" transform="translate(82,105)"/>
<path d="M0 0 C0.99 0 1.98 0 3 0 C3.33 1.32 3.66 2.64 4 4 C2.68 4.33 1.36 4.66 0 5 C-0.5625 3.0625 -0.5625 3.0625 -1 1 C-0.67 0.67 -0.34 0.34 0 0 Z " fill="#FFFFFF" transform="translate(65,105)"/>
<path d="M0 0 C1.98 0.495 1.98 0.495 4 1 C3.67 2.32 3.34 3.64 3 5 C1.68 4.67 0.36 4.34 -1 4 C-0.67 2.68 -0.34 1.36 0 0 Z " fill="#FFFFFF" transform="translate(41,81)"/>
<path d="M0 0 C1.98 0.495 1.98 0.495 4 1 C3.67 2.32 3.34 3.64 3 5 C1.68 4.67 0.36 4.34 -1 4 C-0.67 2.68 -0.34 1.36 0 0 Z " fill="#FFFFFF" transform="translate(106,64)"/>
<path d="M0 0 C2.0625 0.4375 2.0625 0.4375 4 1 C4 1.99 4 2.98 4 4 C2.68 4.33 1.36 4.66 0 5 C-0.5625 3.0625 -0.5625 3.0625 -1 1 C-0.67 0.67 -0.34 0.34 0 0 Z " fill="#FFFFFF" transform="translate(41,64)"/>
<path d="M0 0 C2.0625 0.4375 2.0625 0.4375 4 1 C3.67 2.32 3.34 3.64 3 5 C2.01 5 1.02 5 0 5 C-0.5625 3.0625 -0.5625 3.0625 -1 1 C-0.67 0.67 -0.34 0.34 0 0 Z " fill="#FFFFFF" transform="translate(82,40)"/>
<path d="M0 0 C1.98 0.495 1.98 0.495 4 1 C3.67 2.32 3.34 3.64 3 5 C1.68 4.67 0.36 4.34 -1 4 C-0.67 2.68 -0.34 1.36 0 0 Z " fill="#FFFFFF" transform="translate(65,40)"/>
<path d="M0 0 C0.99 0.33 1.98 0.66 3 1 C3 2.32 3 3.64 3 5 C1.68 5 0.36 5 -1 5 C-0.67 3.35 -0.34 1.7 0 0 Z " fill="#FFFFFF" transform="translate(74,106)"/>
<path d="M0 0 C1.32 0 2.64 0 4 0 C3.67 1.65 3.34 3.3 3 5 C2.01 4.67 1.02 4.34 0 4 C0 2.68 0 1.36 0 0 Z " fill="#FFFFFF" transform="translate(90,102)"/>
<path d="M0 0 C1.32 0 2.64 0 4 0 C3.67 1.65 3.34 3.3 3 5 C2.01 4.67 1.02 4.34 0 4 C0 2.68 0 1.36 0 0 Z " fill="#FFFFFF" transform="translate(56,102)"/>
<path d="M0 0 C2.475 0.495 2.475 0.495 5 1 C4.67 1.99 4.34 2.98 4 4 C2.68 4 1.36 4 0 4 C0 2.68 0 1.36 0 0 Z " fill="#FFFFFF" transform="translate(102,90)"/>
<path d="M0 0 C1.32 0 2.64 0 4 0 C4 1.32 4 2.64 4 4 C2.35 3.67 0.7 3.34 -1 3 C-0.67 2.01 -0.34 1.02 0 0 Z " fill="#FFFFFF" transform="translate(44,90)"/>
<path d="M0 0 C1.32 0 2.64 0 4 0 C4 1.32 4 2.64 4 4 C2.35 3.67 0.7 3.34 -1 3 C-0.67 2.01 -0.34 1.02 0 0 Z " fill="#FFFFFF" transform="translate(107,73)"/>
<path d="M0 0 C2.475 0.495 2.475 0.495 5 1 C4.67 1.99 4.34 2.98 4 4 C2.68 4 1.36 4 0 4 C0 2.68 0 1.36 0 0 Z " fill="#FFFFFF" transform="translate(39,73)"/>
<path d="M0 0 C2.475 0.495 2.475 0.495 5 1 C4.67 1.99 4.34 2.98 4 4 C2.68 4 1.36 4 0 4 C0 2.68 0 1.36 0 0 Z " fill="#FFFFFF" transform="translate(102,56)"/>
<path d="M0 0 C1.32 0 2.64 0 4 0 C4 1.32 4 2.64 4 4 C2.35 3.67 0.7 3.34 -1 3 C-0.67 2.01 -0.34 1.02 0 0 Z " fill="#FFFFFF" transform="translate(44,56)"/>
<path d="M0 0 C0.99 0.33 1.98 0.66 3 1 C3 2.32 3 3.64 3 5 C1.68 5 0.36 5 -1 5 C-0.67 3.35 -0.34 1.7 0 0 Z " fill="#FFFFFF" transform="translate(91,43)"/>
<path d="M0 0 C0.99 0.33 1.98 0.66 3 1 C3 2.32 3 3.64 3 5 C1.68 5 0.36 5 -1 5 C-0.67 3.35 -0.34 1.7 0 0 Z " fill="#FFFFFF" transform="translate(57,43)"/>
<path d="M0 0 C1.32 0 2.64 0 4 0 C3.67 1.65 3.34 3.3 3 5 C2.01 4.67 1.02 4.34 0 4 C0 2.68 0 1.36 0 0 Z " fill="#FFFFFF" transform="translate(73,39)"/>
<path d="M0 0 C1.32 0 2.64 0 4 0 C4 1.32 4 2.64 4 4 C2.68 4 1.36 4 0 4 C0 2.68 0 1.36 0 0 Z " fill="#FFFFFF" transform="translate(97,97)"/>
<path d="M0 0 C1.32 0 2.64 0 4 0 C4 1.32 4 2.64 4 4 C2.68 4 1.36 4 0 4 C0 2.68 0 1.36 0 0 Z " fill="#FFFFFF" transform="translate(49,97)"/>
<path d="M0 0 C1.32 0 2.64 0 4 0 C4 1.32 4 2.64 4 4 C2.68 4 1.36 4 0 4 C0 2.68 0 1.36 0 0 Z " fill="#FFFFFF" transform="translate(97,49)"/>
<path d="M0 0 C1.32 0 2.64 0 4 0 C4 1.32 4 2.64 4 4 C2.68 4 1.36 4 0 4 C0 2.68 0 1.36 0 0 Z " fill="#FFFFFF" transform="translate(49,49)"/>
</svg>
