<?xml version="1.0" encoding="UTF-8"?>
<svg version="1.1" xmlns="http://www.w3.org/2000/svg" width="250" height="250">
<path d="M0 0 C0.71936737 -0.00067474 1.43873474 -0.00134949 2.17990112 -0.00204468 C12.59778005 0.01350982 22.46474828 0.34821271 32.5625 3.25 C33.78839844 3.5903125 35.01429688 3.930625 36.27734375 4.28125 C55.74029831 10.22659009 72.48668705 20.75027136 87.5625 34.25 C88.29339844 34.89582031 89.02429688 35.54164062 89.77734375 36.20703125 C105.13091648 50.61866701 115.58322377 70.29295544 121.5625 90.25 C121.77277832 90.89469238 121.98305664 91.53938477 122.19970703 92.20361328 C128.77509016 112.73151169 128.2032242 139.84104592 121.5625 160.25 C121.35882813 160.93690918 121.15515625 161.62381836 120.9453125 162.33154297 C111.63920419 193.70375533 89.41187088 220.28333553 60.85058594 236.05541992 C53.0308843 240.20141758 44.97972466 243.5249076 36.5625 246.25 C35.86979004 246.4759082 35.17708008 246.70181641 34.46337891 246.93457031 C13.61094199 253.34237604 -13.74330911 252.98353537 -34.4375 246.25 C-35.12440918 246.04632813 -35.81131836 245.84265625 -36.51904297 245.6328125 C-55.27120278 240.07025834 -70.89936934 230.18277171 -85.4375 217.25 C-86.29859375 216.49074219 -87.1596875 215.73148438 -88.046875 214.94921875 C-104.52422949 199.43596479 -115.12008604 178.69583925 -121.4375 157.25 C-121.79972656 156.02796875 -122.16195312 154.8059375 -122.53515625 153.546875 C-129.95490277 122.21138735 -123.49020992 87.7770061 -107.4375 60.25 C-89.02780641 30.42881825 -59.966281 10.0248656 -26.0234375 1.9765625 C-17.33292923 0.21574056 -8.82496163 0.00740107 0 0 Z " fill="#FDFDFE" transform="translate(124.4375,-0.25)"/>
<path d="M0 0 C0.86141602 0.00386719 1.72283203 0.00773437 2.61035156 0.01171875 C11.39982615 0.12724306 19.97310848 1.12556238 28.6875 2.25 C28.6875 12.48 28.6875 22.71 28.6875 33.25 C17.5625 33.5625 17.5625 33.5625 14.08935547 33.63793945 C8.54294561 33.83779694 4.51682175 34.24903169 -0.3125 37.25 C-1.7975 37.745 -1.7975 37.745 -3.3125 38.25 C-4.48203416 40.67383077 -4.48203416 40.67383077 -5.3125 43.25 C-5.8075 44.24 -5.8075 44.24 -6.3125 45.25 C-6.46770557 47.57273159 -6.56269167 49.89959313 -6.62890625 52.2265625 C-6.66701416 53.48033691 -6.70512207 54.73411133 -6.74438477 56.02587891 C-6.78748779 57.62608887 -6.83059082 59.22629883 -6.875 60.875 C-7.019375 65.94875 -7.16375 71.0225 -7.3125 76.25 C3.9075 76.25 15.1275 76.25 26.6875 76.25 C26.02221054 84.89876298 25.18797348 93.09192772 23.625 101.5625 C22.985625 105.089375 22.34625 108.61625 21.6875 112.25 C12.1175 112.25 2.5475 112.25 -7.3125 112.25 C-7.3125 141.29 -7.3125 170.33 -7.3125 200.25 C-10.92000756 201.45250252 -14.21819149 201.3933394 -17.97265625 201.3828125 C-19.09117226 201.38424759 -19.09117226 201.38424759 -20.23228455 201.38571167 C-21.80663131 201.38639151 -23.3809809 201.3845509 -24.95532227 201.38037109 C-27.3693671 201.3750125 -29.78322652 201.38032655 -32.19726562 201.38671875 C-33.72656291 201.38605808 -35.25586008 201.38477715 -36.78515625 201.3828125 C-37.50913101 201.38483673 -38.23310577 201.38686096 -38.97901917 201.38894653 C-44.08256605 201.36496698 -44.08256605 201.36496698 -46.3125 200.25 C-46.3125 171.21 -46.3125 142.17 -46.3125 112.25 C-56.8725 112.25 -67.4325 112.25 -78.3125 112.25 C-78.3125 100.37 -78.3125 88.49 -78.3125 76.25 C-67.7525 76.25 -57.1925 76.25 -46.3125 76.25 C-46.35890625 73.41792969 -46.4053125 70.58585937 -46.453125 67.66796875 C-46.48441949 64.89105008 -46.50865076 62.1141519 -46.53222656 59.3371582 C-46.55220419 57.42365566 -46.57939599 55.51021308 -46.61425781 53.59692383 C-46.97532227 33.25518959 -46.97532227 33.25518959 -42.3125 24.25 C-41.86712891 23.35192627 -41.42175781 22.45385254 -40.96289062 21.52856445 C-36.1900353 12.29988687 -28.48123917 6.55683166 -18.83203125 3.0390625 C-17.58486328 2.64847656 -17.58486328 2.64847656 -16.3125 2.25 C-15.2503125 1.89164063 -14.188125 1.53328125 -13.09375 1.1640625 C-8.62569008 0.08397364 -4.57529964 -0.05010105 0 0 Z " fill="#020202" transform="translate(152.3125,48.75)"/>
</svg>
