<?xml version="1.0" encoding="UTF-8"?>
<svg version="1.1" xmlns="http://www.w3.org/2000/svg" width="120" height="120">
<path d="M0 0 C0.85207031 0.32742187 1.70414062 0.65484375 2.58203125 0.9921875 C16.84636987 7.14719345 26.40698003 19.98075232 32.703125 33.65625 C35.59624557 41.11562111 36.388746 47.74643396 36.375 55.6875 C36.37338867 56.65703613 36.37177734 57.62657227 36.37011719 58.62548828 C36.2377841 66.39811096 35.10057933 72.81180571 32 80 C31.69964844 80.73992187 31.39929688 81.47984375 31.08984375 82.2421875 C28.60254865 87.77668828 24.90390071 92.39539917 21 97 C20.49984375 97.6084375 19.9996875 98.216875 19.484375 98.84375 C10.23624793 109.11944674 -4.65795838 115.60162637 -18.25 116.375 C-35.77699961 116.94965572 -50.72023877 113.40104894 -64.25 101.6875 C-71.57396633 94.74656202 -77.10406834 87.33311102 -81 78 C-81.48146484 76.85917969 -81.48146484 76.85917969 -81.97265625 75.6953125 C-86.61337175 62.18327575 -85.60899908 45.01956408 -80 32 C-79.67257813 31.14792969 -79.34515625 30.29585937 -79.0078125 29.41796875 C-72.85280655 15.15363013 -60.01924768 5.59301997 -46.34375 -0.703125 C-31.87200808 -6.31599686 -14.26250164 -6.14447289 0 0 Z " fill="#FDFDFD" transform="translate(84,4)"/>
<path d="M0 0 C1.35704585 0.23386731 2.71056699 0.48818994 4.0625 0.75 C4.81660156 0.88921875 5.57070313 1.0284375 6.34765625 1.171875 C9 2 9 2 11.8515625 4.04296875 C17.12680339 7.16750711 23.27891849 6.63161916 29.22338867 6.57641602 C31.29836086 6.56259418 33.36876989 6.59661622 35.44335938 6.63476562 C42.83022178 6.67566845 48.59712339 6.02561833 55.01000977 2.15332031 C57.59309381 0.65626608 60.04510666 0.23328105 63 0 C64.73042476 3.70805305 65.12369317 6.25524561 64.8125 10.3125 C64.68776747 15.44732234 65.77076581 18.25869363 68.80859375 22.34375 C72.53800802 27.52824722 71.44593703 34.96369291 71 41 C69.58325287 47.69570938 66.64224805 52.29173659 61.28515625 56.52734375 C55.85252978 60.0283697 50.51293179 62.28920656 44 62 C44.72509766 63.10601562 44.72509766 63.10601562 45.46484375 64.234375 C47.9590284 69.21981514 47.49450784 74.79767637 47.5625 80.25 C47.59683535 82.42202864 47.63938205 84.59394804 47.69140625 86.765625 C47.70373291 87.72243164 47.71605957 88.67923828 47.72875977 89.66503906 C47.7773666 92.1912275 47.7773666 92.1912275 50 94 C43.95408176 96.11313647 38.43476648 96.30163214 32.0625 96.25 C30.63647461 96.26160156 30.63647461 96.26160156 29.18164062 96.2734375 C23.44383795 96.25761999 18.5018892 95.63692571 13 94 C14.485 93.01 14.485 93.01 16 92 C16.58348752 89.3443272 16.58348752 89.3443272 16.6875 86.375 C16.75324219 85.37210937 16.81898437 84.36921875 16.88671875 83.3359375 C16.92410156 82.56507812 16.96148437 81.79421875 17 81 C16.34773438 81.04640625 15.69546875 81.0928125 15.0234375 81.140625 C9.09804837 81.38533134 5.64553163 81.07900338 1 77 C-1.04733935 74.7251785 -2.11325801 72.74774351 -3.375 69.9375 C-5.20746933 66.62495929 -6.78411496 65.82523205 -10 64 C-10 63.01 -10 62.02 -10 61 C-6.79551854 60.8834734 -4.9567878 60.88441729 -2 62 C0.18359375 64.2578125 0.18359375 64.2578125 2.375 67 C5.45863006 70.83856275 5.45863006 70.83856275 9.79296875 72.8828125 C12.23911533 73.09672095 14.55248157 73.17372782 17 73 C17.185625 71.39125 17.185625 71.39125 17.375 69.75 C17.89643936 66.62136385 18.40088254 64.66519576 20 62 C19.05125 61.9175 18.1025 61.835 17.125 61.75 C8.9547803 60.50958203 2.54049164 57.72873451 -2.59375 51.1171875 C-7.55382942 43.64951238 -8.100681 35.85502822 -7 27 C-5.69826553 23.39340234 -3.96384768 20.27737203 -2 17 C-1.05331513 14.1599454 -0.92014518 12.54968291 -1 9.625 C-1.04378031 6.27033353 -0.84373291 3.26946503 0 0 Z " fill="#020202" transform="translate(28,24)"/>
</svg>
