<?xml version="1.0" encoding="UTF-8"?>
<svg version="1.1" xmlns="http://www.w3.org/2000/svg" width="128" height="128">
<path d="M0 0 C2.75281673 1.4801716 5.31020318 3.18126702 7.8828125 4.953125 C8.61950165 5.45036072 9.3561908 5.94759644 10.11520386 6.4598999 C11.6666684 7.51068574 13.21463738 8.56664904 14.75927734 9.62744141 C17.11549725 11.24348243 19.48432623 12.83955249 21.85546875 14.43359375 C23.36537593 15.45977226 24.87451698 16.48707913 26.3828125 17.515625 C27.08705353 17.98977844 27.79129456 18.46393188 28.51687622 18.95245361 C32.30484174 21.5704832 35.70307079 23.92185225 38 28 C38.55981807 31.24676207 38.56086478 34.43033058 38.53125 37.71875 C38.53699036 39.12199524 38.53699036 39.12199524 38.54284668 40.55358887 C38.54556288 42.52711059 38.53822219 44.50066848 38.52148438 46.47412109 C38.50007046 49.49007645 38.52129584 52.50364974 38.546875 55.51953125 C38.54423167 57.44010941 38.53910659 59.36068609 38.53125 61.28125 C38.53934692 62.18033081 38.54744385 63.07941162 38.55578613 64.0057373 C38.49328486 68.19132601 38.35977461 70.42590724 36.09179688 74.04492188 C32.49659049 77.40514745 30.09358829 77.13909081 25.24291992 77.17700195 C24.54840225 77.18357315 23.85388458 77.19014435 23.13832092 77.19691467 C20.83570247 77.21665458 18.53314926 77.22831196 16.23046875 77.23828125 C15.44419916 77.24235678 14.65792957 77.2464323 13.84783363 77.25063133 C9.68591194 77.27149541 5.52402324 77.28579542 1.36206055 77.29516602 C-2.93554819 77.30622899 -7.23263893 77.34062611 -11.53006458 77.38033772 C-14.83551492 77.40649152 -18.14084163 77.41485674 -21.44638634 77.41844749 C-23.03041773 77.42331699 -24.61444347 77.43494143 -26.19837379 77.45348549 C-28.41757786 77.47785119 -30.63543927 77.47691743 -32.85473633 77.4699707 C-34.11667313 77.47583694 -35.37860992 77.48170319 -36.67878723 77.48774719 C-40.58754522 76.91371419 -42.22153569 75.75181555 -45 73 C-46.13176264 70.73647472 -46.14924639 69.43568993 -46.19287109 66.92089844 C-46.20893402 66.07952332 -46.22499695 65.23814819 -46.24154663 64.37127686 C-46.28605581 60.51656922 -46.32707401 56.66203361 -46.35009766 52.80712891 C-46.36664183 50.77608774 -46.3939115 48.74510443 -46.43212891 46.71435547 C-46.48700118 43.78322195 -46.5087887 40.85345355 -46.5234375 37.921875 C-46.54610687 37.01854431 -46.56877625 36.11521362 -46.59213257 35.18450928 C-46.57573061 30.26983328 -46.22967651 27.02714221 -42.58459473 23.33792114 C-39.553891 20.77900653 -36.37651778 18.52974469 -33.06640625 16.34765625 C-31.93307106 15.59106972 -31.93307106 15.59106972 -30.77684021 14.81919861 C-29.18739778 13.76315655 -27.59464358 12.71208371 -25.9987793 11.66577148 C-23.5606931 10.06131091 -21.14278202 8.42919354 -18.72460938 6.79492188 C-17.17302333 5.76909434 -15.6203254 4.74494616 -14.06640625 3.72265625 C-13.34747696 3.23322037 -12.62854767 2.74378448 -11.88783264 2.23951721 C-7.59431206 -0.52930031 -5.07437455 -1.87578995 0 0 Z M-13.50390625 9.671875 C-14.22360092 10.15070129 -14.94329559 10.62952759 -15.68479919 11.12286377 C-17.20487453 12.13735342 -18.72190619 13.15641633 -20.23608398 14.1796875 C-22.54982107 15.74144182 -24.87450706 17.28571539 -27.20117188 18.828125 C-28.67777006 19.81668334 -30.15370422 20.80623441 -31.62890625 21.796875 C-32.66961021 22.487742 -32.66961021 22.487742 -33.7313385 23.19256592 C-38.62001152 26.38879128 -38.62001152 26.38879128 -42 31 C-42.3166698 33.8439526 -42.4680088 36.46400855 -42.46875 39.30859375 C-42.48017029 40.51419701 -42.48017029 40.51419701 -42.49182129 41.74415588 C-42.50260867 43.44114074 -42.50548091 45.13819191 -42.50097656 46.83520508 C-42.5000044 49.42577287 -42.54163215 52.01337552 -42.5859375 54.60351562 C-42.59114506 56.25520218 -42.59383268 57.90689899 -42.59375 59.55859375 C-42.61014526 60.32956894 -42.62654053 61.10054413 -42.64343262 61.8948822 C-42.59265704 65.86441657 -42.15475925 67.79516274 -39.73730469 70.99487305 C-36.97255073 73.02010711 -35.94785985 73.61513773 -32.609375 73.5234375 C-31.81789063 73.51183594 -31.02640625 73.50023438 -30.2109375 73.48828125 C-29.39882813 73.45089844 -28.58671875 73.41351563 -27.75 73.375 C-26.92242187 73.36082031 -26.09484375 73.34664063 -25.2421875 73.33203125 C-21.30326831 73.59041012 -21.30326831 73.59041012 -18 72 C-17.90350087 70.49715692 -17.86801313 68.99028827 -17.859375 67.484375 C-17.84003906 66.56269531 -17.82070313 65.64101562 -17.80078125 64.69140625 C-17.76720037 62.74629819 -17.74871912 60.80086489 -17.74609375 58.85546875 C-17.62685759 54.34332133 -17.46334021 51.70915811 -14.953125 47.8671875 C-11.25607013 45.52963164 -8.2470035 45.257463 -4 45.375 C-3.30132812 45.35566406 -2.60265625 45.33632812 -1.8828125 45.31640625 C1.72838723 45.35047417 3.89849083 45.93581828 6.953125 47.8671875 C9.91969188 52.40762002 9.74282428 56.43279062 9.75 61.75 C9.78300103 63.66152115 9.81927601 65.57298958 9.859375 67.484375 C9.86420898 68.32709961 9.86904297 69.16982422 9.87402344 70.03808594 C9.78341363 72.0035279 9.78341363 72.0035279 11 73 C13.93317244 73.20781586 16.81359315 73.32468773 19.75 73.375 C20.96816406 73.43107422 20.96816406 73.43107422 22.2109375 73.48828125 C23.39816406 73.50568359 23.39816406 73.50568359 24.609375 73.5234375 C25.33092773 73.54325684 26.05248047 73.56307617 26.79589844 73.58349609 C30.36606611 72.63835866 31.79485678 70.91372702 34 68 C34.48726765 65.00061783 34.6805345 62.58375734 34.62890625 59.59375 C34.63131821 58.79142944 34.63373016 57.98910889 34.63621521 57.16247559 C34.63523862 55.47138511 34.62188958 53.78026193 34.59692383 52.08935547 C34.56260209 49.50767927 34.57627468 46.9294266 34.59570312 44.34765625 C34.58880429 42.70050633 34.57913155 41.05336521 34.56640625 39.40625 C34.57136612 38.63841187 34.57632599 37.87057373 34.58143616 37.07946777 C34.50609206 33.63371504 34.167334 31.28636035 32.41772461 28.29223633 C29.40505759 25.43593716 26.22411222 23.17689205 22.75 20.91796875 C22.05487305 20.45892654 21.35974609 19.99988434 20.64355469 19.52693176 C19.1804305 18.56405669 17.71455053 17.60535749 16.24609375 16.65063477 C13.9990461 15.18687862 11.76489383 13.70481028 9.53125 12.22070312 C8.10490352 11.28533375 6.67784396 10.35105063 5.25 9.41796875 C4.58323242 8.97430466 3.91646484 8.53064056 3.22949219 8.0735321 C-3.77675385 3.55906673 -7.08897238 5.32580318 -13.50390625 9.671875 Z M-14 54 C-14.61170928 57.11183372 -14.52035091 60.0923767 -14.375 63.25 C-14.36082031 64.07757813 -14.34664062 64.90515625 -14.33203125 65.7578125 C-14.59041012 69.69673169 -14.59041012 69.69673169 -13 73 C-11.66956375 73.0983721 -10.33406656 73.13078592 -9 73.1328125 C-8.195625 73.13410156 -7.39125 73.13539062 -6.5625 73.13671875 C-5.2940625 73.13091797 -5.2940625 73.13091797 -4 73.125 C-3.154375 73.12886719 -2.30875 73.13273437 -1.4375 73.13671875 C-0.633125 73.13542969 0.17125 73.13414063 1 73.1328125 C2.11375 73.13112061 2.11375 73.13112061 3.25 73.12939453 C5.02825811 73.18942216 5.02825811 73.18942216 6 72 C6.20781586 69.06682756 6.32468773 66.18640685 6.375 63.25 C6.41238281 62.43789062 6.44976562 61.62578125 6.48828125 60.7890625 C6.55167546 56.46416887 6.40498658 54.55667766 3.7890625 50.9609375 C0.85287539 48.89655945 -0.46361113 48.31974392 -4 48.375 C-5.2375 48.35566406 -5.2375 48.35566406 -6.5 48.3359375 C-10.2827723 49.34073639 -11.70479961 50.84511324 -14 54 Z " fill="#FFFFFF" transform="translate(68,33)"/>
<path d="M0 0 C3.48748014 2.76638128 3.48748014 2.76638128 7.78564453 3.4050293 C7.96740234 2.33961914 7.96740234 2.33961914 8.15283203 1.25268555 C8.32041016 0.33358398 8.48798828 -0.58551758 8.66064453 -1.5324707 C8.82306641 -2.44899414 8.98548828 -3.36551758 9.15283203 -4.30981445 C9.36166016 -5.06391602 9.57048828 -5.81801758 9.78564453 -6.5949707 C12.23946587 -7.82188137 13.98548556 -7.79673002 16.72314453 -7.8449707 C18.03605469 -7.88364258 18.03605469 -7.88364258 19.37548828 -7.9230957 C22.3193965 -7.52230431 23.00572084 -6.93074033 24.78564453 -4.5949707 C25.04345703 -2.36181641 25.04345703 -2.36181641 24.91064453 0.22924805 C24.17725966 11.03962944 24.17725966 11.03962944 28.28955078 20.49487305 C31.27281916 22.57533432 31.27281916 22.57533432 34.41455078 24.0378418 C35.19701172 24.48901367 35.97947266 24.94018555 36.78564453 25.4050293 C36.78564453 26.7250293 36.78564453 28.0450293 36.78564453 29.4050293 C30.88380272 29.0189275 27.48833151 26.4463949 22.91064453 23.0300293 C21.39834087 21.93138517 19.88530239 20.83375191 18.37158203 19.73706055 C17.60813477 19.17970215 16.8446875 18.62234375 16.05810547 18.0480957 C11.94407974 15.07351544 7.7474059 12.22011411 3.54833984 9.36743164 C0.35648647 7.19362826 -2.79779375 4.99083398 -5.89404297 2.68237305 C-6.47637695 2.25593506 -7.05871094 1.82949707 -7.65869141 1.39013672 C-9.23034348 0.23514139 -10.78927014 -0.93711422 -12.34716797 -2.1105957 C-15.11452106 -3.81760136 -15.11452106 -3.81760136 -18.17529297 -3.6184082 C-21.91150133 -2.36019922 -24.66078398 -0.38218182 -27.71435547 2.0300293 C-34.20167377 6.97175609 -40.83959843 11.64090352 -47.58935547 16.2175293 C-48.50394531 16.83901855 -49.41853516 17.46050781 -50.36083984 18.10083008 C-52.12665593 19.29823804 -53.89513482 20.49173041 -55.66650391 21.6809082 C-57.36886353 22.83288824 -59.05973393 24.00202674 -60.73876953 25.18774414 C-61.52735352 25.73769043 -62.3159375 26.28763672 -63.12841797 26.85424805 C-64.16796631 27.59227661 -64.16796631 27.59227661 -65.22851562 28.34521484 C-67.21435547 29.4050293 -67.21435547 29.4050293 -71.21435547 29.4050293 C-71.21435547 28.0850293 -71.21435547 26.7650293 -71.21435547 25.4050293 C-69.05913919 23.61579314 -67.00175869 22.15118868 -64.65185547 20.6550293 C-63.1886915 19.68767602 -61.7265119 18.71883277 -60.26513672 17.7487793 C-59.46156738 17.22026367 -58.65799805 16.69174805 -57.83007812 16.1472168 C-52.94624032 12.89436384 -48.14927033 9.51577065 -43.33935547 6.1550293 C-40.53460552 4.20253303 -37.72958976 2.25044793 -34.92236328 0.30151367 C-33.08411968 -0.98585346 -31.25558431 -2.28717315 -29.43603516 -3.60083008 C-28.55592773 -4.23311523 -27.67582031 -4.86540039 -26.76904297 -5.5168457 C-25.98770996 -6.085 -25.20637695 -6.6531543 -24.40136719 -7.23852539 C-15.51267018 -12.75154175 -7.04693735 -5.39230075 0 0 Z M12.78564453 -2.5949707 C12.6078319 -0.64194669 12.51781032 1.31943625 12.47314453 3.2800293 C12.43576172 4.34995117 12.39837891 5.41987305 12.35986328 6.5222168 C12.52287136 9.47933714 12.52287136 9.47933714 14.55517578 11.3503418 C16.72060929 12.62344011 16.72060929 12.62344011 19.03564453 12.0925293 C19.61314453 11.8656543 20.19064453 11.6387793 20.78564453 11.4050293 C20.81249865 9.09259138 20.83197294 6.7800666 20.84814453 4.4675293 C20.85974609 3.17975586 20.87134766 1.89198242 20.88330078 0.56518555 C21.15097002 -2.45795473 21.15097002 -2.45795473 19.78564453 -3.5949707 C15.98324079 -4.07233123 15.98324079 -4.07233123 12.78564453 -2.5949707 Z " fill="#FFFFFF" transform="translate(81.21435546875,25.594970703125)"/>
</svg>
