<?xml version="1.0" encoding="UTF-8"?>
<svg version="1.1" xmlns="http://www.w3.org/2000/svg" width="400" height="400">
<path d="M0 0 C0.82274414 0.17160645 1.64548828 0.34321289 2.49316406 0.52001953 C55.97259284 11.99748037 101.16058375 44.43246895 131 90 C134.25007784 95.20037188 137.18600375 100.55334215 140 106 C140.51771973 106.99652588 140.51771973 106.99652588 141.04589844 108.01318359 C154.81992586 134.89517045 161.38901969 163.87017505 161.31567383 193.97729492 C161.3125241 196.66692102 161.33603665 199.35543138 161.36132812 202.04492188 C161.47749092 233.75573732 153.03137326 264.15953601 138 292 C137.51877686 292.90226318 137.51877686 292.90226318 137.02783203 293.82275391 C119.30296162 326.83296203 92.23366917 353.21552307 60 372 C59.4004248 372.35400879 58.80084961 372.70801758 58.18310547 373.07275391 C32.9964652 387.78970768 1.87392218 397.04963073 -27.36328125 397.203125 C-28.23534714 397.20882507 -29.10741302 397.21452515 -30.00590515 397.22039795 C-31.84547742 397.22978786 -33.68506605 397.23635781 -35.5246582 397.24023438 C-38.26741022 397.24984205 -41.00937937 397.28088247 -43.75195312 397.3125 C-60.42303202 397.41406543 -76.52512301 395.5019584 -92.5625 390.8125 C-93.61131348 390.51061768 -94.66012695 390.20873535 -95.74072266 389.89770508 C-145.08965435 375.24923585 -187.40899393 341.55485917 -213 297 C-213.35803711 296.37963867 -213.71607422 295.75927734 -214.08496094 295.12011719 C-231.07025809 265.37743292 -239.2234529 232.35716906 -239.25 198.25 C-239.25067474 197.47066101 -239.25134949 196.69132202 -239.25204468 195.8883667 C-239.23485034 183.36092521 -238.54280775 171.29857998 -236 159 C-235.83371094 158.15405273 -235.66742188 157.30810547 -235.49609375 156.43652344 C-231.57813374 136.88300078 -224.56754998 118.47643667 -215 101 C-214.43176514 99.95634277 -214.43176514 99.95634277 -213.85205078 98.89160156 C-208.12493794 88.48848057 -201.67690821 79.05639861 -194 70 C-193.29617187 69.16597656 -192.59234375 68.33195312 -191.8671875 67.47265625 C-161.40113878 32.66258918 -123.31703124 9.7508405 -78 0 C-76.77772705 -0.26683594 -76.77772705 -0.26683594 -75.53076172 -0.5390625 C-51.60135558 -5.49099052 -23.85604263 -5.09213738 0 0 Z " fill="#FEFDFE" transform="translate(239,3)"/>
<path d="M0 0 C1.86311862 -0.00067636 3.72623715 -0.00164913 5.58935547 -0.00289917 C9.46517795 -0.00436054 13.34097714 -0.00227245 17.21679688 0.00244141 C22.13473363 0.0081377 27.05261577 0.00485024 31.97055054 -0.00113106 C35.80916745 -0.00477922 39.64777183 -0.00357875 43.48638916 -0.00100327 C45.29770922 -0.00034571 47.10903049 -0.0011204 48.92034912 -0.00348282 C76.49251115 -0.03157001 102.54651797 0.84810612 124.125 20.1328125 C133.10204627 29.21424303 138.62968972 40.54750543 141.5 52.8828125 C141.6556543 53.53572266 141.81130859 54.18863281 141.97167969 54.86132812 C144.93573524 69.2271626 144.27796929 84.59075532 144.2578125 99.1953125 C144.25848927 100.96492526 144.25946237 102.73453794 144.26071167 104.50415039 C144.26217113 108.18148702 144.26009132 111.85879908 144.25537109 115.53613281 C144.24967492 120.19499164 144.25296344 124.85379281 144.25894356 129.51264954 C144.26259702 133.15743425 144.26138889 136.80220581 144.25881577 140.44699097 C144.25815965 142.16258756 144.2589275 143.87818544 144.26129532 145.59378052 C144.27075297 154.36645243 144.15456424 163.11322482 143.69091797 171.875 C143.63519214 172.96233681 143.63519214 172.96233681 143.57834053 174.07164001 C142.62983397 190.16512916 137.92226338 205.95507709 127.125 218.1328125 C126.50625 218.94621094 125.8875 219.75960937 125.25 220.59765625 C114.2279794 233.74708891 96.73838205 239.77453412 80.11943054 241.31922531 C78.02426301 241.46830829 75.92970644 241.5905214 73.83203125 241.69873047 C72.6661422 241.76062718 72.6661422 241.76062718 71.47669983 241.82377434 C62.6728681 242.25482749 53.87492194 242.27778765 45.0625 242.265625 C43.29288724 242.26630177 41.52327456 242.26727487 39.75366211 242.26852417 C36.07632548 242.26998363 32.39901342 242.26790382 28.72167969 242.26318359 C24.06282086 242.25748742 19.40401969 242.26077594 14.74516296 242.26675606 C11.10037825 242.27040952 7.45560669 242.26920139 3.81082153 242.26662827 C2.09522494 242.26597215 0.37962706 242.26674 -1.33596802 242.26910782 C-10.09406505 242.27854976 -18.82693795 242.16418881 -27.57421875 241.70263672 C-28.65291481 241.64769641 -28.65291481 241.64769641 -29.75340271 241.59164619 C-45.93475106 240.63962717 -60.00791897 236.09805183 -72.875 226.1328125 C-73.48859375 225.69582031 -74.1021875 225.25882813 -74.734375 224.80859375 C-88.09515184 214.60414722 -94.21794667 197.08657672 -96.875 181.1328125 C-97.10949744 178.56622044 -97.3059072 176.02422269 -97.44482422 173.453125 C-97.50629796 172.3527742 -97.50629796 172.3527742 -97.5690136 171.23019409 C-98.02779618 162.24231448 -98.0195472 153.25504652 -98.0078125 144.2578125 C-98.00848886 142.39469388 -98.00946163 140.53157535 -98.01071167 138.66845703 C-98.01217304 134.79263455 -98.01008495 130.91683536 -98.00537109 127.04101562 C-97.9996748 122.12307887 -98.00296226 117.20519673 -98.00894356 112.28726196 C-98.01259172 108.44864505 -98.01139125 104.61004067 -98.00881577 100.77142334 C-98.00815821 98.96010328 -98.0089329 97.14878201 -98.01129532 95.33746338 C-98.03992213 67.23557167 -97.07079376 41.05408502 -77.06640625 19.265625 C-56.26464467 -0.97993974 -27.00222826 -0.03521782 0 0 Z " fill="#FDFDFD" transform="translate(176.875,78.8671875)"/>
<path d="M0 0 C1.86311862 -0.00067636 3.72623715 -0.00164913 5.58935547 -0.00289917 C9.46517795 -0.00436054 13.34097714 -0.00227245 17.21679688 0.00244141 C22.13473363 0.0081377 27.05261577 0.00485024 31.97055054 -0.00113106 C35.80916745 -0.00477922 39.64777183 -0.00357875 43.48638916 -0.00100327 C45.29770922 -0.00034571 47.10903049 -0.0011204 48.92034912 -0.00348282 C76.49251115 -0.03157001 102.54651797 0.84810612 124.125 20.1328125 C133.10204627 29.21424303 138.62968972 40.54750543 141.5 52.8828125 C141.6556543 53.53572266 141.81130859 54.18863281 141.97167969 54.86132812 C144.93573524 69.2271626 144.27796929 84.59075532 144.2578125 99.1953125 C144.25848927 100.96492526 144.25946237 102.73453794 144.26071167 104.50415039 C144.26217113 108.18148702 144.26009132 111.85879908 144.25537109 115.53613281 C144.24967492 120.19499164 144.25296344 124.85379281 144.25894356 129.51264954 C144.26259702 133.15743425 144.26138889 136.80220581 144.25881577 140.44699097 C144.25815965 142.16258756 144.2589275 143.87818544 144.26129532 145.59378052 C144.27075297 154.36645243 144.15456424 163.11322482 143.69091797 171.875 C143.63519214 172.96233681 143.63519214 172.96233681 143.57834053 174.07164001 C142.62983397 190.16512916 137.92226338 205.95507709 127.125 218.1328125 C126.50625 218.94621094 125.8875 219.75960937 125.25 220.59765625 C114.2279794 233.74708891 96.73838205 239.77453412 80.11943054 241.31922531 C78.02426301 241.46830829 75.92970644 241.5905214 73.83203125 241.69873047 C72.6661422 241.76062718 72.6661422 241.76062718 71.47669983 241.82377434 C62.6728681 242.25482749 53.87492194 242.27778765 45.0625 242.265625 C43.29288724 242.26630177 41.52327456 242.26727487 39.75366211 242.26852417 C36.07632548 242.26998363 32.39901342 242.26790382 28.72167969 242.26318359 C24.06282086 242.25748742 19.40401969 242.26077594 14.74516296 242.26675606 C11.10037825 242.27040952 7.45560669 242.26920139 3.81082153 242.26662827 C2.09522494 242.26597215 0.37962706 242.26674 -1.33596802 242.26910782 C-10.09406505 242.27854976 -18.82693795 242.16418881 -27.57421875 241.70263672 C-28.65291481 241.64769641 -28.65291481 241.64769641 -29.75340271 241.59164619 C-45.93475106 240.63962717 -60.00791897 236.09805183 -72.875 226.1328125 C-73.48859375 225.69582031 -74.1021875 225.25882813 -74.734375 224.80859375 C-88.09515184 214.60414722 -94.21794667 197.08657672 -96.875 181.1328125 C-97.10949744 178.56622044 -97.3059072 176.02422269 -97.44482422 173.453125 C-97.50629796 172.3527742 -97.50629796 172.3527742 -97.5690136 171.23019409 C-98.02779618 162.24231448 -98.0195472 153.25504652 -98.0078125 144.2578125 C-98.00848886 142.39469388 -98.00946163 140.53157535 -98.01071167 138.66845703 C-98.01217304 134.79263455 -98.01008495 130.91683536 -98.00537109 127.04101562 C-97.9996748 122.12307887 -98.00296226 117.20519673 -98.00894356 112.28726196 C-98.01259172 108.44864505 -98.01139125 104.61004067 -98.00881577 100.77142334 C-98.00815821 98.96010328 -98.0089329 97.14878201 -98.01129532 95.33746338 C-98.03992213 67.23557167 -97.07079376 41.05408502 -77.06640625 19.265625 C-56.26464467 -0.97993974 -27.00222826 -0.03521782 0 0 Z M-64.90625 37.60546875 C-77.31273881 53.5320526 -76.32278788 73.54129891 -76.23828125 92.6796875 C-76.2377613 95.02703857 -76.23828422 97.37439008 -76.23979187 99.72174072 C-76.23970272 104.61322632 -76.22938744 109.50454514 -76.21118164 114.39599609 C-76.18844636 120.63841061 -76.18796582 126.88058321 -76.19469929 133.1230278 C-76.19805314 137.95998249 -76.19138335 142.79688286 -76.18157005 147.63382721 C-76.17774598 149.934926 -76.17655812 152.23603085 -76.1781559 154.53713226 C-76.37471069 182.99770688 -76.37471069 182.99770688 -62.26171875 206.94140625 C-50.27538893 217.94685801 -34.98714375 220.44979036 -19.13378906 220.4074707 C-18.12239868 220.41258163 -17.1110083 220.41769257 -16.06896973 220.42295837 C-12.75945954 220.43674146 -9.4501603 220.43590586 -6.140625 220.43359375 C-3.81573409 220.43748739 -1.49084389 220.44182343 0.83404541 220.44657898 C5.69570221 220.45401738 10.55728637 220.45376759 15.41894531 220.44848633 C21.61305058 220.44270067 27.80685595 220.45961281 34.00091171 220.482831 C38.80024927 220.49764849 43.59951599 220.49842908 48.39887238 220.49532127 C50.68075402 220.49583065 52.96264003 220.50099534 55.24449921 220.51113319 C83.91608726 220.66612853 83.91608726 220.66612853 108.34765625 207 C119.72738101 195.0450364 122.44268216 179.49738047 122.3996582 163.4074707 C122.40476913 162.39768661 122.40988007 161.38790253 122.41514587 160.34751892 C122.42893 157.04281516 122.42809312 153.73832267 122.42578125 150.43359375 C122.42967514 148.11109847 122.43401123 145.7886039 122.43876648 143.46611023 C122.44620534 138.60864958 122.44595498 133.75126163 122.44067383 128.89379883 C122.43489143 122.70875985 122.45179218 116.52402153 122.4750185 110.33903217 C122.48984619 105.54394325 122.49061516 100.74892516 122.48750877 95.95381737 C122.48801775 93.67555332 122.49317471 91.39728486 122.50332069 89.11904335 C122.68102526 60.03304657 122.68102526 60.03304657 108.875 35.1953125 C104.40925079 31.0517566 99.75608498 28.39236319 94.125 26.1328125 C93.36058594 25.82601562 92.59617187 25.51921875 91.80859375 25.203125 C83.27644967 22.0870376 74.52070263 21.98233237 65.51904297 21.97167969 C64.49819107 21.96671478 63.47733917 21.96174988 62.42555237 21.95663452 C59.07275703 21.94211787 55.72000901 21.93522812 52.3671875 21.9296875 C50.63692511 21.92544643 50.63692511 21.92544643 48.87170792 21.92111969 C42.76603215 21.90616882 36.66037975 21.89691373 30.5546875 21.89257812 C24.28431756 21.88710279 18.01416577 21.86308248 11.74386406 21.83460617 C6.88963213 21.81587783 2.03545167 21.81076876 -2.81881332 21.80924225 C-5.12861192 21.80623766 -7.43841009 21.79828446 -9.74817276 21.78505707 C-29.77702524 21.67855161 -50.29154448 21.69344335 -64.90625 37.60546875 Z " fill="#040404" transform="translate(176.875,78.8671875)"/>
<path d="M0 0 C13.63498591 10.36729101 24.76829115 23.81122603 27.875 41.1171875 C29.98223479 60.56696464 25.79663665 76.85028763 14.265625 92.72265625 C4.66980734 104.55494934 -10.63603064 112.75169011 -25.734375 114.72265625 C-46.03671965 115.63583702 -61.16583598 111.13090909 -76.91796875 97.88671875 C-88.32056476 87.35098677 -95.11123669 72.49298465 -96.140625 57.05859375 C-96.74077007 39.94460608 -92.01897017 24.00783874 -80.296875 11.22265625 C-59.46235792 -10.54432951 -25.97008679 -17.26922438 0 0 Z " fill="#030303" transform="translate(233.734375,147.27734375)"/>
<path d="M0 0 C5.89378816 3.54417077 9.88557085 7.95460273 13.58203125 13.71484375 C14.09121094 14.50375 14.60039062 15.29265625 15.125 16.10546875 C20.11379511 25.21665758 20.00831284 36.0137107 17.8828125 46 C14.18067273 57.10641931 7.54322846 65.51735356 -2.85546875 71 C-12.6746691 75.50585016 -24.20818785 76.61081208 -34.73046875 73.84375 C-37.47447822 72.65493908 -39.90649808 71.33580929 -42.41796875 69.71484375 C-43.2275 69.19535156 -44.03703125 68.67585938 -44.87109375 68.140625 C-54.51437331 61.291342 -59.74648699 51.43827043 -61.953125 39.921875 C-63.34800947 28.5543682 -60.4077069 18.91934819 -53.921875 9.5546875 C-40.35663428 -7.32866966 -18.45415296 -9.80842702 0 0 Z " fill="#FDFDFD" transform="translate(221.41796875,165.28515625)"/>
<path d="M0 0 C5.27325806 1.90393496 8.54691506 4.89758333 11 10 C11.68061657 15.35985552 11.23478037 18.91820898 8.25390625 23.45703125 C5.61932763 26.69895821 2.98917128 28.65359136 -1.17578125 29.37890625 C-6.58069182 29.66050663 -9.84618251 28.67081546 -14 25 C-17.67213845 20.84468544 -18.65535778 17.58126268 -18.3828125 12.17578125 C-17.53587849 7.3620849 -14.82940839 4.71630724 -11.25 1.625 C-7.35580121 -0.3220994 -4.22960561 -0.80174342 0 0 Z " fill="#060606" transform="translate(268,121)"/>
</svg>
