<?xml version="1.0" encoding="UTF-8"?>
<svg version="1.1" xmlns="http://www.w3.org/2000/svg" width="90" height="90">
<path d="M0 0 C1.06310693 15.14927376 -5.13328494 30.32625466 -14.44921875 42.09375 C-16.57101835 44.47180559 -18.73055722 46.76351593 -21 49 C-23.3995791 51.3995791 -23.18281037 51.93440225 -23.25 55.1875 C-23.69516803 59.66072069 -24.87740006 62.19060588 -27.984375 65.42578125 C-32.98157875 69.32863612 -38.65206841 72 -45 72 C-44.67 67.38 -44.34 62.76 -44 58 C-45.98 57.34 -47.96 56.68 -50 56 C-52.08203125 54.44921875 -52.08203125 54.44921875 -53.8125 52.6875 C-54.68841797 51.82705078 -54.68841797 51.82705078 -55.58203125 50.94921875 C-57 49 -57 49 -58 44 C-62.62 44.33 -67.24 44.66 -72 45 C-71.53401897 37.69963053 -68.6188251 31.99294297 -63.8125 26.5 C-60.99565073 24.1688144 -59.48067684 24 -55.9375 24 C-50.35434568 23.44168457 -48.2148256 20.47711622 -44.578125 16.484375 C-33.07597706 5.40048699 -15.72976353 -0.49935757 0 0 Z M-29 21 C-29.33333333 24 -29.33333333 24 -29 27 C-27.11499729 29.31563087 -27.11499729 29.31563087 -24 29.25 C-20.88500271 29.31563087 -20.88500271 29.31563087 -19 27 C-18.66666667 24 -18.66666667 24 -19 21 C-20.88500271 18.68436913 -20.88500271 18.68436913 -24 18.75 C-27.11499729 18.68436913 -27.11499729 18.68436913 -29 21 Z " fill="#FFFFFF" transform="translate(81,9)"/>
<path d="M0 0 C1.32 0 2.64 0 4 0 C3.34 2.97 2.68 5.94 2 9 C4.97 8.34 7.94 7.68 11 7 C10.7395304 10.21245843 10.42509628 11.6147565 8 13.8125 C3.93801182 15.42037032 0.31343181 15.25373128 -4 15 C-4.32321868 9.50528249 -4.5464527 5.53945945 -1 1 C-0.67 0.67 -0.34 0.34 0 0 Z " fill="#FFFFFF" transform="translate(19,60)"/>
</svg>
