<?xml version="1.0" encoding="UTF-8"?>
<svg version="1.1" xmlns="http://www.w3.org/2000/svg" width="472" height="472">
<path d="M0 0 C0.90524414 0.21881836 1.81048828 0.43763672 2.74316406 0.66308594 C11.68757252 2.8631894 20.43983745 5.58985394 29 9 C29.91700684 9.35916504 29.91700684 9.35916504 30.85253906 9.72558594 C44.04099391 14.90835054 57.34717582 20.41352822 68.97265625 28.625 C71.87570185 30.59392495 74.94704871 32.20356842 78.0546875 33.82421875 C80 35 80 35 81.5703125 36.58203125 C83.05582814 38.26501442 83.05582814 38.26501442 86 39 C87.33333333 40.33333333 88.66666667 41.66666667 90 43 C92.10621885 44.5806748 94.2377421 46.11636578 96.390625 47.6328125 C96.92171875 48.08398438 97.4528125 48.53515625 98 49 C98 49.66 98 50.32 98 51 C98.556875 51.04125 99.11375 51.0825 99.6875 51.125 C102.57902316 52.21908985 103.7310355 53.99677983 105.58203125 56.39453125 C107.09116404 58.10321879 108.59566624 59.19410637 110.5 60.4375 C113.77245892 62.63563115 115.6007436 65.02701096 117.73828125 68.30078125 C119.08046352 70.10836418 120.47259702 71.31539556 122.25 72.6875 C125.06643224 75.05586348 125.39396 75.60617598 126 79 C126.99 79.33 127.98 79.66 129 80 C130.51464844 81.68310547 130.51464844 81.68310547 132.109375 83.8671875 C132.69589844 84.66511719 133.28242188 85.46304688 133.88671875 86.28515625 C134.50160156 87.13980469 135.11648438 87.99445313 135.75 88.875 C136.38035156 89.74253906 137.01070313 90.61007813 137.66015625 91.50390625 C144.4966138 100.9730369 150.58297588 110.64264989 156 121 C156.74056641 122.40185547 156.74056641 122.40185547 157.49609375 123.83203125 C163.96775751 136.3887399 168.79509813 149.53159218 173 163 C173.21011719 163.65210449 173.42023438 164.30420898 173.63671875 164.97607422 C185.620742 202.53509255 185.98438296 245.73295051 177 284 C176.69570068 285.31822754 176.69570068 285.31822754 176.38525391 286.66308594 C175.14874552 291.85497494 173.66499154 296.93069541 172 302 C171.73960937 302.8058252 171.47921875 303.61165039 171.2109375 304.44189453 C166.20728932 319.77725786 159.89490152 333.93008364 152 348 C150.87265103 350.061217 149.74760463 352.12369524 148.625 354.1875 C147.75 355.79166667 146.875 357.39583333 146 359 C145.34 359 144.68 359 144 359 C143.73574219 359.72920654 143.47148437 360.45841309 143.19921875 361.2097168 C141.18762324 365.89019829 138.02459965 369.74022276 135 373.8125 C134.35804688 374.69615234 133.71609375 375.57980469 133.0546875 376.49023438 C132.43851562 377.32490234 131.82234375 378.15957031 131.1875 379.01953125 C130.62417969 379.78370361 130.06085938 380.54787598 129.48046875 381.33520508 C128.99191406 381.8845874 128.50335938 382.43396973 128 383 C127.34 383 126.68 383 126 383 C125.73703125 383.57878906 125.4740625 384.15757812 125.203125 384.75390625 C121.86114643 390.99298962 116.36549024 395.54778469 111 400 C109.95830838 401.1692457 108.93799876 402.35781781 107.9375 403.5625 C105.53735722 406.44771101 103.10293359 408.84518501 100 411 C99.34 411 98.68 411 98 411 C97.67 411.99 97.34 412.98 97 414 C95.31347656 415.50219727 95.31347656 415.50219727 93.140625 417.06640625 C92.35429687 417.63423828 91.56796875 418.20207031 90.7578125 418.78710938 C89.93023437 419.37298828 89.10265625 419.95886719 88.25 420.5625 C87.43789063 421.15224609 86.62578125 421.74199219 85.7890625 422.34960938 C81.93718136 425.10677837 78.47167397 427.35917623 74 429 C74 429.66 74 430.32 74 431 C72.98292969 431.54527344 72.98292969 431.54527344 71.9453125 432.1015625 C67.29132008 434.61549192 62.7131948 437.15978513 58.25 440 C52.9440751 443.23263686 47.29308188 445.41771994 41.515625 447.6328125 C38.84143041 448.67277706 36.27362848 449.76802541 33.6875 451 C26.37949994 454.30305087 18.64034013 456.60124945 11 459 C9.22496094 459.56074219 9.22496094 459.56074219 7.4140625 460.1328125 C3.63610973 461.23075301 -0.15985497 462.15382306 -4 463 C-4.79519043 463.18336914 -5.59038086 463.36673828 -6.40966797 463.55566406 C-37.05770723 470.31298218 -73.45479218 470.23362622 -104 463 C-105.25997803 462.70319336 -105.25997803 462.70319336 -106.54541016 462.40039062 C-111.76284633 461.12769453 -116.88461493 459.63082808 -122 458 C-122.63905273 457.80293457 -123.27810547 457.60586914 -123.93652344 457.40283203 C-141.61354216 451.94522291 -159.224491 444.73438599 -175 435 C-176.10214844 434.34064453 -176.10214844 434.34064453 -177.2265625 433.66796875 C-183.73654409 429.64959249 -189.94109979 425.25026787 -196.125 420.75 C-196.97916504 420.13535889 -197.83333008 419.52071777 -198.71337891 418.88745117 C-199.51179199 418.30068604 -200.31020508 417.7139209 -201.1328125 417.109375 C-202.21393311 416.31998535 -202.21393311 416.31998535 -203.31689453 415.51464844 C-205 414 -205 414 -206 411 C-206.5775 410.896875 -207.155 410.79375 -207.75 410.6875 C-210.70160774 409.78561986 -211.74622386 407.9835454 -213.58203125 405.60546875 C-215.09116404 403.89678121 -216.59566624 402.80589363 -218.5 401.5625 C-221.77245892 399.36436885 -223.6007436 396.97298904 -225.73828125 393.69921875 C-227.08046352 391.89163582 -228.47259702 390.68460444 -230.25 389.3125 C-233.12569445 386.89430239 -233.29464239 386.40922846 -234 383 C-234.5671875 382.76925781 -235.134375 382.53851563 -235.71875 382.30078125 C-239.04063463 380.40662443 -240.7747222 377.47504549 -242.875 374.375 C-243.7621313 373.09443538 -244.65014684 371.81448288 -245.5390625 370.53515625 C-245.96348633 369.92043457 -246.38791016 369.30571289 -246.82519531 368.67236328 C-248.23487013 366.6656566 -249.73100326 364.73736624 -251.25 362.8125 C-254.12164399 359.02935103 -256.29819428 354.9577036 -258.5078125 350.76171875 C-259.86932318 348.24185475 -261.33732282 345.85206876 -262.875 343.4375 C-267.37839899 336.03059376 -270.61306251 327.95987977 -274 320 C-274.41507812 319.03449219 -274.83015625 318.06898438 -275.2578125 317.07421875 C-279.76625433 306.22910868 -282.94162531 294.77870766 -285.48242188 283.32519531 C-285.82988102 281.7642515 -286.19076627 280.20624068 -286.56445312 278.65136719 C-294.03498536 246.60405008 -292.94477652 208.83374691 -285 177 C-284.78118164 176.09475586 -284.56236328 175.18951172 -284.33691406 174.25683594 C-282.1368106 165.31242748 -279.41014606 156.56016255 -276 148 C-275.76055664 147.38866211 -275.52111328 146.77732422 -275.27441406 146.14746094 C-270.09164946 132.95900609 -264.58647178 119.65282418 -256.375 108.02734375 C-254.40607505 105.12429815 -252.79643158 102.05295129 -251.17578125 98.9453125 C-250 97 -250 97 -248.41796875 95.4296875 C-246.73498558 93.94417186 -246.73498558 93.94417186 -246 91 C-245.34 91 -244.68 91 -244 91 C-243.731875 90.42765625 -243.46375 89.8553125 -243.1875 89.265625 C-241.95867364 86.92115366 -240.57477824 84.87595062 -239 82.75 C-238.484375 82.04359375 -237.96875 81.3371875 -237.4375 80.609375 C-236.963125 80.07828125 -236.48875 79.5471875 -236 79 C-235.34 79 -234.68 79 -234 79 C-233.938125 78.443125 -233.87625 77.88625 -233.8125 77.3125 C-232.6552513 74.01879217 -230.51681071 72.40495246 -228 70 C-227.05226913 68.88360516 -226.11524127 67.75806107 -225.1875 66.625 C-222.3614237 63.27449718 -219.23332657 60.4705175 -215.890625 57.64453125 C-214.21567654 56.18760294 -212.7020079 54.68192863 -211.1875 53.0625 C-209 51 -209 51 -206 51 C-205.7525 50.40703125 -205.505 49.8140625 -205.25 49.203125 C-203.81031137 46.6656738 -202.34848507 45.45955898 -200 43.75 C-198.948125 42.96882813 -198.948125 42.96882813 -197.875 42.171875 C-196 41 -196 41 -194 41 C-194 40.34 -194 39.68 -194 39 C-192.36021682 37.95650161 -190.68535024 36.96817992 -189 36 C-187.96875 35.236875 -186.9375 34.47375 -185.875 33.6875 C-182.05888812 30.92268141 -177.98940184 28.75625317 -173.8359375 26.54296875 C-171.10992009 25.05980501 -168.46060899 23.49238349 -165.8125 21.875 C-157.19819812 16.68760448 -148.29597717 13.12074744 -138.86572266 9.6875 C-137.33432461 9.12319525 -135.81219747 8.53379179 -134.29296875 7.9375 C-124.45929931 4.12476872 -114.2362852 1.4801871 -104 -1 C-103.12827148 -1.2175293 -102.25654297 -1.43505859 -101.35839844 -1.65917969 C-69.54705983 -9.21842864 -31.59886582 -7.88615704 0 0 Z " fill="#FDFEFE" transform="translate(290,5)"/>
<path d="M0 0 C16.83 0 33.66 0 51 0 C52.65079442 1.65079442 52.22549447 3.63736179 52.31640625 5.91015625 C52.35830078 6.89951172 52.40019531 7.88886719 52.44335938 8.90820312 C52.48267578 9.94912109 52.52199219 10.99003906 52.5625 12.0625 C52.60568359 13.10728516 52.64886719 14.15207031 52.69335938 15.22851562 C52.79981225 17.81886884 52.9018276 20.40932186 53 23 C53.48726563 22.3709375 53.97453125 21.741875 54.4765625 21.09375 C64.05671908 9.52788824 77.02736057 2.50931752 92 1 C115.113701 -0.41267913 138.39500624 -0.44504808 157.25 15 C173.43141404 30.50502053 176.20522891 53.70442159 177 75 C177.18004067 83.56880243 177.14110651 92.14071726 177.1328125 100.7109375 C177.13348713 103.17575083 177.13445849 105.64056409 177.13571167 108.1053772 C177.13717726 113.23725018 177.13506835 118.36910563 177.13037109 123.50097656 C177.12463215 130.09307919 177.12798608 136.68514146 177.13394356 143.27724266 C177.13754415 148.35049753 177.13641364 153.42374269 177.13381577 158.49699783 C177.13314728 160.92999908 177.13397221 163.3630012 177.13629532 165.79600143 C177.13881812 169.17571127 177.1349885 172.55535381 177.12939453 175.93505859 C177.13141876 176.94582962 177.13344299 177.95660065 177.13552856 178.9980011 C177.13270874 179.91166946 177.12988892 180.82533783 177.12698364 181.76669312 C177.1264181 182.96391526 177.1264181 182.96391526 177.12584114 184.18532372 C177 186 177 186 176 187 C174.28134591 187.0935919 172.55884256 187.11744611 170.83764648 187.11352539 C169.73658066 187.11344986 168.63551483 187.11337433 167.50108337 187.11329651 C166.3031868 187.10813522 165.10529022 187.10297394 163.87109375 187.09765625 C162.65172623 187.0962413 161.4323587 187.09482635 160.17604065 187.09336853 C156.2631693 187.08774967 152.35035419 187.07519396 148.4375 187.0625 C145.79231853 187.05748743 143.14713617 187.0529241 140.50195312 187.04882812 C134.00128274 187.03777411 127.50064539 187.02101764 121 187 C120.99191315 185.78272217 120.98382629 184.56544434 120.97549438 183.3112793 C120.89764455 171.77871686 120.80981098 160.2462668 120.71247292 148.71385193 C120.66275708 142.78647146 120.616427 136.85910671 120.578125 130.93164062 C120.54095736 125.19975211 120.49451679 119.46800368 120.44193649 113.73623657 C120.42355828 111.56127405 120.40839086 109.3862817 120.39665604 107.21127319 C121.16302631 78.31676325 121.16302631 78.31676325 108.68359375 53.40234375 C100.69072291 46.74470887 91.11491971 47.12097267 81.17138672 47.76367188 C74.67630468 48.47057984 68.50155156 51.24121692 64 56 C56.19410631 67.41582651 54.87680034 79.98955745 54.79467773 93.45507812 C54.78477814 94.47061768 54.77487854 95.48615723 54.76467896 96.5324707 C54.73327123 99.865374 54.70838903 103.19829151 54.68359375 106.53125 C54.6630063 108.85152543 54.64200937 111.17179725 54.62062073 113.49206543 C54.56558503 119.58126906 54.51609456 125.6705055 54.46777344 131.75976562 C54.40856094 139.075374 54.34243532 146.39092279 54.27747345 153.70648193 C54.17969692 164.80428471 54.09068151 175.90212677 54 187 C36.18 187 18.36 187 0 187 C0 125.29 0 63.58 0 0 Z " fill="#010101" transform="translate(205,177)"/>
<path d="M0 0 C1.91703735 -0.00472824 1.91703735 -0.00472824 3.87280273 -0.009552 C5.27848342 -0.00776222 6.6841638 -0.00571127 8.08984375 -0.00341797 C9.52091488 -0.00409105 10.9519859 -0.00506111 12.38305664 -0.00631714 C15.38591599 -0.00779391 18.38874565 -0.00564023 21.39160156 -0.00097656 C25.24886946 0.00472073 29.10606779 0.00144161 32.96333313 -0.00454903 C35.91947966 -0.00815521 38.87560958 -0.00701579 41.83175659 -0.00442123 C43.25438444 -0.00375212 44.67701378 -0.00457984 46.09963989 -0.00690079 C48.08465549 -0.0094282 50.06967634 -0.00489589 52.0546875 0 C53.75226196 0.00119339 53.75226196 0.00119339 55.48413086 0.00241089 C58.02734375 0.12939453 58.02734375 0.12939453 59.02734375 1.12939453 C59.12721411 3.51777611 59.16176782 5.87729618 59.15432739 8.26623535 C59.15666738 9.39964442 59.15666738 9.39964442 59.15905464 10.55595064 C59.16306751 13.10714404 59.15987389 15.65827873 59.15673828 18.20947266 C59.1580922 20.03063492 59.15987207 21.85179691 59.16204834 23.67295837 C59.16662385 28.63355869 59.16483263 33.5941383 59.16166925 38.554739 C59.15914626 43.73396233 59.16148302 48.91318383 59.16305542 54.09240723 C59.16487729 62.7917513 59.16247034 71.4910869 59.15771484 80.19042969 C59.15227219 90.2634418 59.15403483 100.33643367 59.15954125 110.40944529 C59.16407187 119.04125851 59.16472318 127.67306563 59.16210258 136.30487967 C59.16053953 141.46758449 59.16034681 146.63027979 59.16363907 151.79298401 C59.16651705 156.64543676 59.16454344 161.49786329 59.15874481 166.35031319 C59.15741682 168.13660704 59.15781199 169.92290309 59.16000748 171.70919609 C59.16271746 174.13701227 59.15933974 176.56474305 59.15432739 178.99255371 C59.15655811 179.70878418 59.15878884 180.42501466 59.16108716 181.16294909 C59.14149361 186.01524467 59.14149361 186.01524467 58.02734375 187.12939453 C56.03846881 187.22869986 54.04603958 187.25738915 52.0546875 187.25878906 C50.7766626 187.26194122 49.4986377 187.26509338 48.18188477 187.26834106 C46.77620408 187.26655128 45.3705237 187.26450033 43.96484375 187.26220703 C42.53377262 187.26288011 41.1027016 187.26385018 39.67163086 187.2651062 C36.66877151 187.26658297 33.66594185 187.2644293 30.66308594 187.25976562 C26.80581804 187.25406834 22.94861971 187.25734745 19.09135437 187.26333809 C16.13520784 187.26694427 13.17907792 187.26580486 10.22293091 187.2632103 C8.80030306 187.26254119 7.37767372 187.2633689 5.95504761 187.26568985 C3.97003201 187.26821727 1.98501116 187.26368496 0 187.25878906 C-1.69757446 187.25759567 -1.69757446 187.25759567 -3.42944336 187.25637817 C-5.97265625 187.12939453 -5.97265625 187.12939453 -6.97265625 186.12939453 C-7.07252661 183.74101295 -7.10708032 181.38149288 -7.09963989 178.99255371 C-7.10119988 178.23694767 -7.10275987 177.48134162 -7.10436714 176.70283842 C-7.10838001 174.15164502 -7.10518639 171.60051033 -7.10205078 169.04931641 C-7.1034047 167.22815414 -7.10518457 165.40699215 -7.10736084 163.58583069 C-7.11193635 158.62523038 -7.11014513 153.66465076 -7.10698175 148.70405006 C-7.10445876 143.52482673 -7.10679552 138.34560523 -7.10836792 133.16638184 C-7.11018979 124.46703776 -7.10778284 115.76770216 -7.10302734 107.06835938 C-7.09758469 96.99534727 -7.09934733 86.92235539 -7.10485375 76.84934378 C-7.10938437 68.21753055 -7.11003568 59.58572343 -7.10741508 50.9539094 C-7.10585203 45.79120457 -7.10565931 40.62850928 -7.10895157 35.46580505 C-7.11182955 30.61335231 -7.10985594 25.76092578 -7.10405731 20.90847588 C-7.10272932 19.12218202 -7.10312449 17.33588597 -7.10531998 15.54959297 C-7.10802996 13.12177679 -7.10465224 10.69404601 -7.09963989 8.26623535 C-7.10187061 7.55000488 -7.10410134 6.8337744 -7.10639966 6.09583998 C-7.08064116 -0.28319195 -6.19847966 0.00435751 0 0 Z " fill="#010202" transform="translate(108.97265625,176.87060546875)"/>
<path d="M0 0 C8.3240343 5.11476806 13.9059657 11.8733132 17.375 21 C19.54994127 30.24003712 18.09966505 39.09560291 13.5 47.375 C7.92958741 54.2560979 0.67088426 61.0900799 -8.3359375 62.8125 C-19.37585114 63.71679327 -27.20705771 61.0841451 -36.375 55.25 C-44.52061555 47.10438445 -47.05193604 39.06210005 -47.06542969 27.88598633 C-46.91809253 21.27657523 -45.47494591 16.45035947 -41.625 11 C-41.0475 10.0925 -40.47 9.185 -39.875 8.25 C-29.63509918 -1.98990082 -13.62355136 -6.31231631 0 0 Z " fill="#010101" transform="translate(149.625,87)"/>
</svg>
