<?xml version="1.0" encoding="UTF-8"?>
<svg version="1.1" xmlns="http://www.w3.org/2000/svg" width="142" height="128">
<path d="M0 0 C4.53517375 3.81366883 7.52057958 7.56503174 8.35546875 13.546875 C8.7032264 20.35164626 7.47449954 24.83055094 3 30 C0.26480171 32.53982698 -1.46953778 33.82317926 -5 35 C-4.31035156 35.07476562 -3.62070313 35.14953125 -2.91015625 35.2265625 C5.05013254 36.34034776 11.51109197 38.58461161 16.6328125 45.06640625 C19.92036048 50.16680211 21.1263648 54.0842984 21.09765625 60.19921875 C21.09282227 62.01196289 21.09282227 62.01196289 21.08789062 63.86132812 C21.07532227 65.7552832 21.07532227 65.7552832 21.0625 67.6875 C21.05798828 68.96173828 21.05347656 70.23597656 21.04882812 71.54882812 C21.03702873 74.69926564 21.02056597 77.84960949 21 81 C0.71673772 87.35132455 -24.28264643 90.31053842 -44 80 C-44.53287392 51.83966287 -44.53287392 51.83966287 -37.75390625 43.75390625 C-31.69019532 37.69019532 -25.37636286 36.03164763 -17 35 C-18.299375 34.4740625 -18.299375 34.4740625 -19.625 33.9375 C-24.52726274 31.12323806 -28.19423268 27.41730197 -30 22 C-30.69540161 14.94338363 -30.4745652 8.75301241 -26 3 C-18.37683311 -4.09255203 -9.15880472 -5.01142145 0 0 Z M-23.3984375 6.5078125 C-26.36933799 11.03790899 -26.94681017 15.70559212 -26 21 C-23.63619663 25.81852225 -20.83763525 28.67076821 -16 31 C-10.92310496 31.81031875 -7.17001088 31.5956419 -2.5625 29.25 C1.94614766 25.29118742 3.75936195 22.36627412 4.375 16.3125 C4.29158879 11.28929145 2.36116117 7.67363093 -1 4 C-8.72808502 -0.49634037 -17.09202119 -0.29184307 -23.3984375 6.5078125 Z M-36 48 C-39.62132188 54.99289743 -40.14634023 61.11854702 -40.0625 68.8125 C-40.05798828 69.60076172 -40.05347656 70.38902344 -40.04882812 71.20117188 C-40.03711312 73.13414761 -40.01917998 75.06708393 -40 77 C-30.08861488 81.11415986 -20.31457123 82.37124881 -9.625 82.3125 C-8.12706909 82.30947876 -8.12706909 82.30947876 -6.59887695 82.30639648 C1.44863829 82.1973551 9.67080922 81.66459539 17 78 C17.11728126 74.33360752 17.18760891 70.6677048 17.25 67 C17.28351563 65.97003906 17.31703125 64.94007812 17.3515625 63.87890625 C17.44362348 56.65211951 16.60271838 50.97307937 11.62255859 45.48095703 C4.93126296 39.42235645 -2.4156464 39.66166054 -10.9375 39.6875 C-12.52594727 39.66333008 -12.52594727 39.66333008 -14.14648438 39.63867188 C-23.31485355 39.63295237 -29.30676712 41.30676712 -36 48 Z " fill="#EDEDED" transform="translate(83,32)"/>
<path d="M0 0 C5.03627699 2.84909384 8.45013183 6.79197352 10.61328125 12.16015625 C11.32485488 15.26891646 11.14436435 16.86744106 10.61328125 20.16015625 C8.36328125 23.09765625 8.36328125 23.09765625 6.984375 24.51171875 C4.80856519 27.12764964 3.74479472 30.16222629 2.5078125 33.3046875 C1.61328125 35.16015625 1.61328125 35.16015625 -0.38671875 36.16015625 C0.04640625 36.63453125 0.47953125 37.10890625 0.92578125 37.59765625 C2.92335508 40.6310091 3.78161465 43.59145276 4.8515625 47.0390625 C5.72099079 49.46008589 6.96571068 51.19876272 8.61328125 53.16015625 C8.61328125 53.82015625 8.61328125 54.48015625 8.61328125 55.16015625 C8.04480469 55.42828125 7.47632813 55.69640625 6.890625 55.97265625 C-0.33009145 59.63726026 -5.98421849 64.33093689 -9.26171875 71.91015625 C-10.96958438 77.14900787 -11.1224403 82.69232622 -11.38671875 88.16015625 C-13.97147882 87.89984274 -16.55400321 87.62704711 -19.13671875 87.34765625 C-20.20212891 87.24227539 -20.20212891 87.24227539 -21.2890625 87.13476562 C-27.81339368 86.41304757 -34.05211649 84.85274583 -40.38671875 83.16015625 C-40.50361948 78.66037741 -40.57420712 74.16099338 -40.63671875 69.66015625 C-40.68699219 67.7575 -40.68699219 67.7575 -40.73828125 65.81640625 C-40.82788936 57.21402799 -40.14928481 51.45382011 -34.421875 44.91796875 C-28.4533987 39.977725 -24.17949899 38.07695393 -16.38671875 37.16015625 C-17.10859375 36.64453125 -17.83046875 36.12890625 -18.57421875 35.59765625 C-23.0927888 31.68156221 -26.96074663 27.09166945 -27.625 20.9609375 C-27.80917391 14.78626474 -27.02397338 10.24525011 -23.38671875 5.16015625 C-16.79650393 -1.10054783 -8.78743278 -3.09214083 0 0 Z M-20.69921875 8.66015625 C-23.60704779 12.96805113 -23.91602822 17.0884091 -23.38671875 22.16015625 C-21.66943287 26.86009654 -19.52065209 29.36975124 -15.38671875 32.16015625 C-11.67871871 33.39615626 -8.24125979 33.71414899 -4.38671875 33.16015625 C-0.69399884 30.56527199 0.66313153 27.14171194 2.61328125 23.16015625 C3.35578125 22.35578125 4.09828125 21.55140625 4.86328125 20.72265625 C6.92703606 18.2040521 6.92703606 18.2040521 6.67578125 14.72265625 C5.16655187 9.66229892 2.95612534 6.55319868 -1.69921875 3.78515625 C-9.31590923 2.01383288 -15.23125162 2.74884044 -20.69921875 8.66015625 Z M-31.38671875 47.16015625 C-36.42137434 55.10099515 -37.5575578 62.31800314 -37.44921875 71.53515625 C-37.44470703 72.27121094 -37.44019531 73.00726563 -37.43554688 73.765625 C-37.42387017 75.56383783 -37.40593886 77.36200822 -37.38671875 79.16015625 C-35.03528699 79.83804649 -32.68133251 80.50256372 -30.32421875 81.16015625 C-29.33905273 81.44632813 -29.33905273 81.44632813 -28.33398438 81.73828125 C-23.91931695 82.95612054 -20.00730198 83.35243019 -15.38671875 83.16015625 C-15.30035156 82.39832031 -15.21398437 81.63648438 -15.125 80.8515625 C-13.42619849 68.36770922 -9.02709557 62.0580681 0.61328125 54.16015625 C1.27328125 53.50015625 1.93328125 52.84015625 2.61328125 52.16015625 C2.13890625 51.27328125 1.66453125 50.38640625 1.17578125 49.47265625 C-0.1959307 46.56462691 -0.83854607 44.2842083 -1.38671875 41.16015625 C-17.46867056 40.30520687 -17.46867056 40.30520687 -31.38671875 47.16015625 Z " fill="#EBEBEB" transform="translate(47.38671875,10.83984375)"/>
<path d="M0 0 C5.38286787 3.09314049 8.6174813 7.1493189 10.59375 13.078125 C11.3238154 19.81626957 10.82446177 25.59161118 6.59375 31.078125 C4.35798869 33.00269897 2.09630778 34.48996333 -0.40625 36.078125 C-0.40625 36.408125 -0.40625 36.738125 -0.40625 37.078125 C0.24601562 37.17609375 0.89828125 37.2740625 1.5703125 37.375 C9.94543835 38.80791239 14.77244763 41.79860532 20.296875 48.19921875 C23.2715717 52.508945 23.83811642 56.29746779 23.7890625 61.47265625 C23.78261719 62.67470703 23.77617187 63.87675781 23.76953125 65.11523438 C23.75277344 66.36111328 23.73601562 67.60699219 23.71875 68.890625 C23.70972656 70.15583984 23.70070312 71.42105469 23.69140625 72.72460938 C23.66787394 75.84264064 23.63499545 78.96028597 23.59375 82.078125 C18.92745846 84.68511417 14.72545339 85.87810005 9.53125 86.765625 C8.83708984 86.89517578 8.14292969 87.02472656 7.42773438 87.15820312 C3.77797283 87.81328853 0.30183499 88.22991795 -3.40625 88.078125 C-3.50421875 87.088125 -3.6021875 86.098125 -3.703125 85.078125 C-4.89939832 74.06906425 -6.54989187 66.78685133 -15.3671875 59.5546875 C-17.95415149 57.68136875 -20.47024059 56.325929 -23.40625 55.078125 C-22.37129579 52.37132168 -21.271699 49.82584188 -19.90625 47.265625 C-16.741941 40.6798476 -16.741941 40.6798476 -17 33.5546875 C-19.06868024 27.99928007 -21.85402144 21.85423928 -27.40625 19.078125 C-27.13812279 13.04526283 -26.55744848 8.76152841 -22.40625 4.078125 C-16.09842239 -1.66731798 -8.04099552 -3.08064114 0 0 Z M-20.71875 8.390625 C-22.6801831 11.51438882 -23.48340721 13.37457883 -23.40625 17.078125 C-21.51736148 19.16261097 -21.51736148 19.16261097 -19.953125 20.4453125 C-16.58317211 24.00248499 -14.61598191 28.74219056 -12.40625 33.078125 C-5.95166095 33.53107862 -2.71860401 32.82802195 2.59375 29.078125 C6.19523885 25.11648726 6.89667224 21.47036057 6.80859375 16.13671875 C6.33504167 11.59922878 4.37100298 8.797084 1.09375 5.765625 C-6.3122586 0.7665692 -14.60381908 2.27569408 -20.71875 8.390625 Z M-13.40625 41.078125 C-14.72625 45.038125 -16.04625 48.998125 -17.40625 53.078125 C-16.21 53.903125 -15.01375 54.728125 -13.78125 55.578125 C-5.33460535 61.96169538 -1.26749842 69.75982481 0.28125 80.140625 C0.384375 81.11 0.4875 82.079375 0.59375 83.078125 C7.93188334 83.6425968 13.75463115 81.63139604 20.59375 79.078125 C21.51223414 62.0521475 21.51223414 62.0521475 14.59375 47.078125 C5.78529115 40.60181049 -2.82486053 40.97015164 -13.40625 41.078125 Z " fill="#ECECEC" transform="translate(111.40625,10.921875)"/>
<path d="M0 0 C4.53517375 3.81366883 7.52057958 7.56503174 8.35546875 13.546875 C8.7032264 20.35164626 7.47449954 24.83055094 3 30 C0.26480171 32.53982698 -1.46953778 33.82317926 -5 35 C-2.36 35.33 0.28 35.66 3 36 C3 36.33 3 36.66 3 37 C-6.24 37 -15.48 37 -25 37 C-25 36.67 -25 36.34 -25 36 C-22.36 35.67 -19.72 35.34 -17 35 C-18.299375 34.4740625 -18.299375 34.4740625 -19.625 33.9375 C-24.52726274 31.12323806 -28.19423268 27.41730197 -30 22 C-30.69540161 14.94338363 -30.4745652 8.75301241 -26 3 C-18.37683311 -4.09255203 -9.15880472 -5.01142145 0 0 Z M-23.3984375 6.5078125 C-26.36933799 11.03790899 -26.94681017 15.70559212 -26 21 C-23.63619663 25.81852225 -20.83763525 28.67076821 -16 31 C-10.92310496 31.81031875 -7.17001088 31.5956419 -2.5625 29.25 C1.94614766 25.29118742 3.75936195 22.36627412 4.375 16.3125 C4.29158879 11.28929145 2.36116117 7.67363093 -1 4 C-8.72808502 -0.49634037 -17.09202119 -0.29184307 -23.3984375 6.5078125 Z " fill="#E4E4E4" transform="translate(83,32)"/>
<path d="M0 0 C5.03627699 2.84909384 8.45013183 6.79197352 10.61328125 12.16015625 C11.32485488 15.26891646 11.14436435 16.86744106 10.61328125 20.16015625 C8.36328125 23.09765625 8.36328125 23.09765625 6.984375 24.51171875 C4.80856519 27.12764964 3.74479472 30.16222629 2.5078125 33.3046875 C1.61328125 35.16015625 1.61328125 35.16015625 -0.38671875 36.16015625 C-0.05671875 36.82015625 0.27328125 37.48015625 0.61328125 38.16015625 C-4.99671875 38.16015625 -10.60671875 38.16015625 -16.38671875 38.16015625 C-16.38671875 37.50015625 -16.38671875 36.84015625 -16.38671875 36.16015625 C-17.99546875 35.10828125 -17.99546875 35.10828125 -19.63671875 34.03515625 C-23.82719184 31.11967497 -25.94257847 28.05656086 -27.38671875 23.16015625 C-28.43271107 16.37738132 -27.39983408 10.77072526 -23.38671875 5.16015625 C-16.79650393 -1.10054783 -8.78743278 -3.09214083 0 0 Z M-20.69921875 8.66015625 C-23.60704779 12.96805113 -23.91602822 17.0884091 -23.38671875 22.16015625 C-21.66943287 26.86009654 -19.52065209 29.36975124 -15.38671875 32.16015625 C-11.67871871 33.39615626 -8.24125979 33.71414899 -4.38671875 33.16015625 C-0.69399884 30.56527199 0.66313153 27.14171194 2.61328125 23.16015625 C3.35578125 22.35578125 4.09828125 21.55140625 4.86328125 20.72265625 C6.92703606 18.2040521 6.92703606 18.2040521 6.67578125 14.72265625 C5.16655187 9.66229892 2.95612534 6.55319868 -1.69921875 3.78515625 C-9.31590923 2.01383288 -15.23125162 2.74884044 -20.69921875 8.66015625 Z " fill="#E5E5E5" transform="translate(47.38671875,10.83984375)"/>
<path d="M0 0 C5.38286787 3.09314049 8.6174813 7.1493189 10.59375 13.078125 C11.32328565 19.81138023 10.82890947 25.59804834 6.59375 31.078125 C4.35881488 32.95891622 2.04629682 34.4745367 -0.40625 36.078125 C-0.40625 36.738125 -0.40625 37.398125 -0.40625 38.078125 C-5.68625 38.078125 -10.96625 38.078125 -16.40625 38.078125 C-16.7775 36.593125 -17.14875 35.108125 -17.53125 33.578125 C-19.12181574 28.22804023 -21.59303241 24.14626521 -25.40625 20.078125 C-26.06625 19.748125 -26.72625 19.418125 -27.40625 19.078125 C-27.13812279 13.04526283 -26.55744848 8.76152841 -22.40625 4.078125 C-16.09842239 -1.66731798 -8.04099552 -3.08064114 0 0 Z M-20.71875 8.390625 C-22.6801831 11.51438882 -23.48340721 13.37457883 -23.40625 17.078125 C-21.51736148 19.16261097 -21.51736148 19.16261097 -19.953125 20.4453125 C-16.58317211 24.00248499 -14.61598191 28.74219056 -12.40625 33.078125 C-5.95166095 33.53107862 -2.71860401 32.82802195 2.59375 29.078125 C6.19523885 25.11648726 6.89667224 21.47036057 6.80859375 16.13671875 C6.33504167 11.59922878 4.37100298 8.797084 1.09375 5.765625 C-6.3122586 0.7665692 -14.60381908 2.27569408 -20.71875 8.390625 Z " fill="#E4E4E4" transform="translate(111.40625,10.921875)"/>
<path d="M0 0 C0.66 0.33 1.32 0.66 2 1 C-0.97 3.97 -3.94 6.94 -7 10 C-7.33 9.34 -7.66 8.68 -8 8 C-3.375 2.25 -3.375 2.25 0 0 Z " fill="#C6C6C6" transform="translate(51,71)"/>
<path d="M0 0 C0.66 0.33 1.32 0.66 2 1 C-0.64 3.64 -3.28 6.28 -6 9 C-6.33 8.34 -6.66 7.68 -7 7 C-2.25 1.125 -2.25 1.125 0 0 Z " fill="#C6C6C6" transform="translate(29,12)"/>
<path d="M0 0 C0.99 0.33 1.98 0.66 3 1 C-0.465 3.97 -0.465 3.97 -4 7 C-3.04065919 3.16263678 -2.76390737 2.40339772 0 0 Z " fill="#CCCCCC" transform="translate(91,13)"/>
</svg>
