<?xml version="1.0" encoding="UTF-8"?>
<svg version="1.1" xmlns="http://www.w3.org/2000/svg" width="100" height="100">
<path d="M0 0 C5.06713563 1.75854081 7.53805766 7.40268662 10.18359375 11.7578125 C10.82425781 12.70269531 11.46492188 13.64757813 12.125 14.62109375 C16.31936419 21.25513286 16.31936419 21.25513286 15.953125 25.30859375 C15.20858146 27.61781253 14.33279422 29.62418663 13.18359375 31.7578125 C12.62671875 32.87349609 12.62671875 32.87349609 12.05859375 34.01171875 C11.76984375 34.58792969 11.48109375 35.16414063 11.18359375 35.7578125 C11.6425 36.27730469 12.10140625 36.79679687 12.57421875 37.33203125 C17.9125555 43.39934255 17.9125555 43.39934255 20.12109375 46.3203125 C24.35123039 51.3195649 29.38573292 55.67769893 35.18359375 58.7578125 C36.17359375 58.0978125 37.16359375 57.4378125 38.18359375 56.7578125 C41.91830329 54.26800614 45.84865372 53.93468657 50.18359375 54.7578125 C53.56502497 56.30494292 56.52175104 58.31151774 59.55859375 60.4453125 C60.76708984 61.24098633 60.76708984 61.24098633 62 62.05273438 C65.28852644 64.29741532 67.73326971 65.99248346 69.76953125 69.453125 C70.45004823 73.2409082 69.2274016 75.6803547 67.18359375 78.7578125 C63.69337591 83.3137457 60.15745186 87.85611791 54.50390625 89.5703125 C39.45460483 90.26825112 26.00587448 79.08646375 15.39038086 69.58935547 C12.95031129 67.35043577 10.56747154 65.05655179 8.18359375 62.7578125 C7.01570313 61.68466797 7.01570313 61.68466797 5.82421875 60.58984375 C-5.21013304 50.16199002 -18.12993597 34.34956401 -19.50390625 18.6953125 C-19.50390625 13.26306272 -17.80095731 10.99236356 -14.00390625 7.1953125 C-5.85886604 -0.15050298 -5.85886604 -0.15050298 0 0 Z M-8.50390625 9.5703125 C-9.29152344 10.29863281 -10.07914063 11.02695312 -10.890625 11.77734375 C-13.39925835 14.35721618 -13.77533632 15.27806805 -14.0859375 18.90625 C-13.77873594 23.29611572 -12.49639902 26.54041857 -10.50390625 30.3828125 C-10.15215332 31.07431396 -9.80040039 31.76581543 -9.43798828 32.47827148 C-5.54594885 39.783601 -0.37482256 45.68552103 5.18359375 51.7578125 C6.25173618 53.04481708 7.31544333 54.33554182 8.37109375 55.6328125 C10.97391329 58.64854392 13.8328055 61.24917749 16.87890625 63.8125 C18.54841745 65.22168064 20.18530132 66.66981491 21.80078125 68.140625 C27.38038269 73.08514985 32.87086819 76.99721776 39.49609375 80.3828125 C40.15351562 80.72562256 40.8109375 81.06843262 41.48828125 81.42163086 C45.8389189 83.53158025 49.26061704 84.28954178 54.18359375 83.7578125 C58.19085981 81.00772795 61.5525912 77.86217648 64.18359375 73.7578125 C63.93202892 71.30918807 63.54393311 70.11626032 61.78833008 68.36987305 C59.8687779 67.04302655 57.94482346 65.72907283 55.99609375 64.4453125 C55.33544922 63.97802734 54.67480469 63.51074219 53.99414062 63.02929688 C50.71299892 60.83647068 48.94467146 59.74142566 44.91796875 59.828125 C42.48454688 60.65548844 40.70436322 61.47447406 38.62109375 62.9453125 C35.18359375 64.7578125 35.18359375 64.7578125 32.85546875 64.2109375 C29.45465606 62.3613727 26.78008461 59.96937247 23.99609375 57.3203125 C23.43237061 56.79042725 22.86864746 56.26054199 22.2878418 55.71459961 C6.60025624 40.79777217 6.60025624 40.79777217 5.18359375 34.7578125 C6.1171875 32.4765625 6.1171875 32.4765625 7.62109375 30.2578125 C9.7508912 27.1121385 9.7508912 27.1121385 10.11328125 23.4296875 C8.84313905 19.77936285 6.96666798 16.7400262 4.87109375 13.5078125 C4.47986328 12.87101562 4.08863281 12.23421875 3.68554688 11.578125 C2.09703438 9.10183686 0.75842091 7.09125716 -1.81640625 5.59765625 C-4.91935097 5.84613425 -6.27755934 7.4690826 -8.50390625 9.5703125 Z " fill="#FFFFFF" transform="translate(24.81640625,5.2421875)"/>
</svg>
