<?xml version="1.0" encoding="UTF-8"?>
<svg version="1.1" xmlns="http://www.w3.org/2000/svg" width="272" height="273">
<path d="M0 0 C1.32 0 2.64 0 4 0 C7 6.75 7 6.75 7 9 C7.99 9.495 7.99 9.495 9 10 C9.88082308 12.29014001 10.53303769 14.61347727 11.21875 16.96875 C11.80935836 19.18562475 11.80935836 19.18562475 14 20 C14.33333333 21.66666667 14.66666667 23.33333333 15 25 C15.66 25.33 16.32 25.66 17 26 C18.05352843 28.30965848 19.05719096 30.6429774 20 33 C18.625 34.5 18.625 34.5 17 36 C16.34 36 15.68 36 15 36 C14.01 36.99 14.01 36.99 13 38 C10.95211518 38.8375807 8.8763398 39.52034987 6.77734375 40.21875 C4.80353553 40.86054904 4.80353553 40.86054904 4 43 C2.33333333 43.33333333 0.66666667 43.66666667 -1 44 C-1.495 44.99 -1.495 44.99 -2 46 C-3.65 46 -5.3 46 -7 46 C-7.495 46.99 -7.495 46.99 -8 48 C-8.99 48 -9.98 48 -11 48 C-11.495 48.99 -11.495 48.99 -12 50 C-12.99 50 -13.98 50 -15 50 C-14.195625 50.680625 -13.39125 51.36125 -12.5625 52.0625 C-9.57711289 55.48477302 -9.26218749 57.5428126 -9 62 C-8.071875 62.2475 -7.14375 62.495 -6.1875 62.75 C-2.73423704 64.10422077 -1.70385682 64.77163972 0 68 C0.88695963 71.62175183 1.188117 73.43564899 0 77 C-0.66 77 -1.32 77 -2 77 C-1.74438677 79.3431213 -1.40729228 81.67843403 -1 84 C-0.34 84.33 0.32 84.66 1 85 C2.25390625 86.890625 2.25390625 86.890625 3.5625 89.25 C4.21412109 90.40242188 4.21412109 90.40242188 4.87890625 91.578125 C6 94 6 94 6.52734375 96.671875 C6.81382173 99.18201041 6.81382173 99.18201041 9 101 C9.83933502 103.01440404 10.51968416 105.05819665 11.21875 107.125 C11.94192432 109.19575753 11.94192432 109.19575753 14 111 C14.4375 113.4375 14.4375 113.4375 14 116 C10.94924511 118.35343949 7.58923467 119.654037 4 121 C3.13375 121.37125 2.2675 121.7425 1.375 122.125 C-1 123 -1 123 -4 123 C-4.40992188 122.08476562 -4.81984375 121.16953125 -5.2421875 120.2265625 C-5.78101563 119.03804688 -6.31984375 117.84953125 -6.875 116.625 C-7.40867187 115.44164062 -7.94234375 114.25828125 -8.4921875 113.0390625 C-9.8096989 109.97752957 -9.8096989 109.97752957 -12 108 C-12 106.68 -12 105.36 -12 104 C-12.66 103.67 -13.32 103.34 -14 103 C-14 102.01 -14 101.02 -14 100 C-14.66 99.67 -15.32 99.34 -16 99 C-16 98.01 -16 97.02 -16 96 C-16.66 95.67 -17.32 95.34 -18 95 C-19.05352843 92.69034152 -20.05719096 90.3570226 -21 88 C-22.64779993 90.02229991 -23.91851162 91.79227738 -24.875 94.23046875 C-26.6942187 98.70903146 -29.17787828 102.82748086 -31.5390625 107.0390625 C-33.22123749 109.89810037 -33.22123749 109.89810037 -33 113 C-33.99 113.495 -33.99 113.495 -35 114 C-35 114.99 -35 115.98 -35 117 C-35.66 117 -36.32 117 -37 117 C-37.28875 117.969375 -37.5775 118.93875 -37.875 119.9375 C-39 123 -39 123 -41 124 C-43.12890625 123.29296875 -43.12890625 123.29296875 -45.5625 122.1875 C-46.36816406 121.83042969 -47.17382812 121.47335938 -48.00390625 121.10546875 C-50 120 -50 120 -51 118 C-54.02934491 117.34227572 -54.02934491 117.34227572 -57 117 C-57.80967438 114.08517222 -58.21845993 112.53886783 -57.0625 109.6875 C-56.711875 109.130625 -56.36125 108.57375 -56 108 C-55.34 108 -54.68 108 -54 108 C-53.896875 107.319375 -53.79375 106.63875 -53.6875 105.9375 C-52.85274981 102.37084011 -51.50527246 99.33777806 -50 96 C-49.34 96 -48.68 96 -48 96 C-48 94.68 -48 93.36 -48 92 C-47.34 92 -46.68 92 -46 92 C-45.71125 91.13375 -45.4225 90.2675 -45.125 89.375 C-44 86 -44 86 -42.6875 83 C-41.65092861 79.93661847 -41.65092861 79.93661847 -43.4375 77.125 C-45.5588538 72.88229239 -44.87104089 70.59276104 -44 66 C-44.99 66 -45.98 66 -47 66 C-47.33 66.66 -47.66 67.32 -48 68 C-50.29014001 68.88082308 -52.61347727 69.53303769 -54.96875 70.21875 C-57.18562475 70.80935836 -57.18562475 70.80935836 -58 73 C-58.99 73 -59.98 73 -61 73 C-61.33 73.66 -61.66 74.32 -62 75 C-64 75.66666667 -66 76.33333333 -68 77 C-68.495 77.515625 -68.99 78.03125 -69.5 78.5625 C-71 80 -71 80 -74 80 C-75.6875 78 -75.6875 78 -77 76 C-77.350625 76.825 -77.70125 77.65 -78.0625 78.5 C-80 81 -80 81 -83.4375 81.625 C-87 81 -87 81 -89.4375 78.5 C-90.2109375 77.2625 -90.2109375 77.2625 -91 76 C-94.93075644 76.57452746 -94.93075644 76.57452746 -98 79 C-101 81 -101 81 -102.94140625 80.71484375 C-104.94980869 80.01742886 -106.95145444 79.32152335 -108.9375 78.5625 C-109.62972656 78.29824219 -110.32195312 78.03398437 -111.03515625 77.76171875 C-117.45132743 75.27433628 -117.45132743 75.27433628 -120 74 C-120.35412344 72.67203709 -120.68521554 71.33783393 -121 70 C-121.66 69.01 -122.32 68.02 -123 67 C-123.33 66.34 -123.66 65.68 -124 65 C-124.66 64.731875 -125.32 64.46375 -126 64.1875 C-128 63 -128 63 -128.75 60.375 C-128.8325 59.59125 -128.915 58.8075 -129 58 C-120 52 -120 52 -116.875 51.5 C-115.451875 51.2525 -115.451875 51.2525 -114 51 C-113.67 50.34 -113.34 49.68 -113 49 C-111.68 49.33 -110.36 49.66 -109 50 C-108.87625 50.969375 -108.7525 51.93875 -108.625 52.9375 C-108.41875 53.948125 -108.2125 54.95875 -108 56 C-107.34 56.33 -106.68 56.66 -106 57 C-106.99 57.495 -106.99 57.495 -108 58 C-107.34 59.65 -106.68 61.3 -106 63 C-102.535 62.505 -102.535 62.505 -99 62 C-98.91363281 61.30132812 -98.82726562 60.60265625 -98.73828125 59.8828125 C-98.31832575 57.16273377 -97.85390453 54.61806261 -97 52 C-94.39439577 50.30635725 -93.04664378 50 -90 50 C-90.33 49.01 -90.66 48.02 -91 47 C-90.34 46.01 -89.68 45.02 -89 44 C-87.68 44 -86.36 44 -85 44 C-84.67 43.01 -84.34 42.02 -84 41 C-82.23046875 40.40234375 -82.23046875 40.40234375 -80 40 C-78.43208828 39.53884949 -76.86951491 39.05920062 -75.3125 38.5625 C-74.52488281 38.31628906 -73.73726562 38.07007813 -72.92578125 37.81640625 C-70.81278663 37.16635026 -70.81278663 37.16635026 -70 35 C-67.66666667 34.33333333 -65.33333333 33.66666667 -63 33 C-62.505 32.01 -62.505 32.01 -62 31 C-57.66666667 29 -57.66666667 29 -55 29 C-54.67 28.34 -54.34 27.68 -54 27 C-52.36328125 26.03515625 -52.36328125 26.03515625 -50.3125 25.0625 C-49.58417969 24.711875 -48.85585937 24.36125 -48.10546875 24 C-47.41066406 23.67 -46.71585937 23.34 -46 23 C-45.05125 22.525625 -44.1025 22.05125 -43.125 21.5625 C-35.25 17.625 -35.25 17.625 -32.65234375 16.328125 C-30.89243807 15.4468762 -29.13459567 14.56149408 -27.37890625 13.671875 C-22.64235351 11.27836585 -17.87919516 9.09108364 -13 7 C-10.40153101 5.6808386 -7.81307043 4.34570012 -5.234375 2.98828125 C-3 2 -3 2 0 2 C0 1.34 0 0.68 0 0 Z M-6.875 8.73828125 C-8.59976563 9.59776367 -8.59976563 9.59776367 -10.359375 10.47460938 C-10.95685547 10.7764917 -11.55433594 11.07837402 -12.16992188 11.3894043 C-13.98913919 12.30702178 -15.81437373 13.21171281 -17.640625 14.11523438 C-18.79046875 14.69208984 -19.9403125 15.26894531 -21.125 15.86328125 C-22.17945313 16.39219971 -23.23390625 16.92111816 -24.3203125 17.46606445 C-26.69547544 18.82568077 -28.11078042 20.09014245 -30 22 C-32.30988315 22.74386068 -34.64315944 23.42190703 -37 24 C-36.34 24.99 -35.68 25.98 -35 27 C-35.83640015 27.14477783 -35.83640015 27.14477783 -36.68969727 27.29248047 C-42.40529981 28.40316091 -46.90898291 30.24355184 -51.9375 33.125 C-58.11746232 36.5317504 -64.35816713 39.64500907 -70.8125 42.5 C-71.57103271 42.83789551 -72.32956543 43.17579102 -73.11108398 43.52392578 C-76.39427944 44.96108972 -79.49706701 46.19844452 -83 47 C-82.54762239 48.91808109 -82.08785537 50.83442033 -81.625 52.75 C-81.36976562 53.81734375 -81.11453125 54.8846875 -80.8515625 55.984375 C-80.12466459 58.55852722 -79.2973776 60.67600186 -78 63 C-77.34 63 -76.68 63 -76 63 C-75.80664062 63.71027344 -75.61328125 64.42054687 -75.4140625 65.15234375 C-75.15367188 66.07144531 -74.89328125 66.99054688 -74.625 67.9375 C-74.36976562 68.85402344 -74.11453125 69.77054688 -73.8515625 70.71484375 C-73.23339896 73.16745087 -73.23339896 73.16745087 -71 74 C-68.30156519 72.79723961 -65.71868666 71.52910647 -63.10546875 70.16015625 C-61.49417714 69.3365171 -59.88284782 68.51295172 -58.27148438 67.68945312 C-55.72882872 66.37774036 -53.1879274 65.06272169 -50.64819336 63.74536133 C-48.20068962 62.47934543 -45.74719213 61.22558312 -43.29296875 59.97265625 C-42.53759323 59.57579117 -41.78221771 59.17892609 -41.00395203 58.77003479 C-37.20420223 56.83479662 -34.38510656 55.45057862 -30 56 C-29.0898941 58.45728594 -28.99286552 59.95821235 -29.4375 62.5625 C-31.76294769 66.1901984 -34.97999353 66.85009117 -39 68 C-39.25030977 70.41619823 -39.25030977 70.41619823 -39 73 C-38.01 73.66 -37.02 74.32 -36 75 C-36.56280053 79.94864846 -38.17804858 83.95709905 -40.37890625 88.3671875 C-40.87619484 89.38656906 -40.87619484 89.38656906 -41.38352966 90.42654419 C-42.43594999 92.57966654 -43.49901544 94.7273246 -44.5625 96.875 C-45.28131057 98.34079708 -45.99941703 99.80693967 -46.71679688 101.2734375 C-48.46974299 104.85300746 -50.23225043 108.42771899 -52 112 C-49.93100225 114.27271445 -48.16580795 115.55694402 -45.3125 116.6875 C-44.219375 117.120625 -43.12625 117.55375 -42 118 C-36.99086504 108.86890657 -32.31553928 99.64027028 -27.97094727 90.17260742 C-27.61186279 89.39763916 -27.25277832 88.6226709 -26.8828125 87.82421875 C-26.56715332 87.13416748 -26.25149414 86.44411621 -25.92626953 85.7331543 C-25 84 -25 84 -23 82 C-21.1015625 81.9453125 -21.1015625 81.9453125 -19 83 C-17.60039889 85.29192322 -16.47854783 87.44443014 -15.375 89.875 C-14.68718948 91.32140543 -13.99697154 92.76666786 -13.3046875 94.2109375 C-12.93827148 94.98147461 -12.57185547 95.75201172 -12.19433594 96.54589844 C-10.06662283 100.91788783 -7.77856258 105.20525477 -5.5 109.5 C-5.05446777 110.34288574 -4.60893555 111.18577148 -4.14990234 112.05419922 C-3.10150964 114.03696626 -2.05099702 116.01861218 -1 118 C2.3 116.35 5.6 114.7 9 113 C7.64786465 110.12402958 6.29348518 107.24915522 4.9375 104.375 C4.53281494 103.51503418 4.12812988 102.65506836 3.71118164 101.76904297 C1.810535 97.74814264 -0.10751859 93.74471137 -2.15625 89.796875 C-2.47972412 89.17119629 -2.80319824 88.54551758 -3.13647461 87.90087891 C-4.01098529 86.22379199 -4.89769853 84.5530844 -5.78515625 82.8828125 C-7.02799187 79.93357556 -7.52181291 78.15284852 -7 75 C-6.01 74.34 -5.02 73.68 -4 73 C-4.495 70.03 -4.495 70.03 -5 67 C-6.03125 66.9175 -7.0625 66.835 -8.125 66.75 C-11.20731732 65.91050707 -11.96368113 65.05479971 -13.765625 62.3359375 C-15.95679238 57.96423947 -17.87890837 53.76495974 -19 49 C-8.06327768 43.20181789 2.89529879 37.47083159 14 32 C12.56460211 28.79072218 11.12630395 25.58275207 9.6875 22.375 C9.28337891 21.47136719 8.87925781 20.56773438 8.46289062 19.63671875 C6.39943356 15.04007457 4.3009615 10.48277937 2 6 C-1.68375263 6 -3.58098211 7.09655763 -6.875 8.73828125 Z M-84 48 C-83 50 -83 50 -83 50 Z M-89 54 C-88.67 54.99 -88.34 55.98 -88 57 C-87.34 57 -86.68 57 -86 57 C-86 56.01 -86 55.02 -86 54 C-86.99 54 -87.98 54 -89 54 Z M-119.125 57.5 C-120.03507812 57.9640625 -120.94515625 58.428125 -121.8828125 58.90625 C-122.58148438 59.2671875 -123.28015625 59.628125 -124 60 C-123.38382813 60.226875 -122.76765625 60.45375 -122.1328125 60.6875 C-119.33929627 62.40658691 -118.99779878 63.95871827 -117.875 67 C-116.10491622 70.90744858 -116.10491622 70.90744858 -112.5625 73.06640625 C-110.0326684 73.53339551 -107.56228725 73.79588559 -105 74 C-104.01 74.33 -103.02 74.66 -102 75 C-99.84476453 74.20331601 -99.84476453 74.20331601 -97.625 73 C-94.73938264 71.64399444 -93.29154611 70.99379689 -90.0625 71.0625 C-88 72 -88 72 -86 75 C-85.34 75 -84.68 75 -84 75 C-85.34849837 70.64029169 -87.04907846 66.68658562 -89.125 62.625 C-89.66382813 61.56539062 -90.20265625 60.50578125 -90.7578125 59.4140625 C-91.16773438 58.61742187 -91.57765625 57.82078125 -92 57 C-92.66 57 -93.32 57 -94 57 C-94 58.98 -94 60.96 -94 63 C-95.38782485 63.8466034 -96.78569397 64.67675339 -98.1875 65.5 C-98.96480469 65.9640625 -99.74210937 66.428125 -100.54296875 66.90625 C-103.24103386 68.10729647 -105.0806982 68.20741043 -108 68 C-110.95047835 63.38987758 -112.5497272 60.63470383 -112 55 C-114.82440059 55 -116.6229276 56.21688595 -119.125 57.5 Z M-86 57 C-86.33 57.99 -86.66 58.98 -87 60 C-86.67 60.66 -86.34 61.32 -86 62 C-85.01 62 -84.02 62 -83 62 C-83.66 60.35 -84.32 58.7 -85 57 C-85.33 57 -85.66 57 -86 57 Z M-34 59 C-33 61 -33 61 -33 61 Z M-83 62 C-83.66 62.66 -84.32 63.32 -85 64 C-84.01 65.98 -83.02 67.96 -82 70 C-81.34 68.68 -80.68 67.36 -80 66 C-80.99 64.68 -81.98 63.36 -83 62 Z M-81 70 C-80.67 70.66 -80.34 71.32 -80 72 C-79.34 71.34 -78.68 70.68 -78 70 C-78.99 70 -79.98 70 -81 70 Z M-80 72 C-79.67 72.99 -79.34 73.98 -79 75 C-78.34 74.34 -77.68 73.68 -77 73 C-77.99 72.67 -78.98 72.34 -80 72 Z " fill="#F9F9F9" transform="translate(160,57)"/>
<path d="M0 0 C3.29678709 2.76272812 4.99749567 6.43553988 6.9375 10.1875 C7.29158936 10.86224365 7.64567871 11.5369873 8.01049805 12.23217773 C10.39709166 16.79369978 12.73132401 21.37862298 15 26 C15.556875 27.0725 16.11375 28.145 16.6875 29.25 C17.79090492 31.56189602 18.38625878 33.54503511 19 36 C19.66 36.66 20.32 37.32 21 38 C21.71408334 39.98356483 22.38617742 41.98315437 23 44 C14.93204373 49.1751215 7.24620925 52.52547493 -2 55 C-3.485 55.495 -3.485 55.495 -5 56 C-6.7634375 56.2475 -6.7634375 56.2475 -8.5625 56.5 C-11.85097245 56.79473089 -11.85097245 56.79473089 -14 58 C-16 57.8125 -16 57.8125 -18 57 C-19.125 55.0625 -19.125 55.0625 -20 53 C-20.66 52.34 -21.32 51.68 -22 51 C-23.43561411 47.70653234 -24.71147567 44.40140388 -25.4375 40.875 C-25.623125 40.25625 -25.80875 39.6375 -26 39 C-26.66 38.67 -27.32 38.34 -28 38 C-28.66666667 35.66666667 -29.33333333 33.33333333 -30 31 C-30.66 30.67 -31.32 30.34 -32 30 C-33.402461 27.40544714 -34.20764178 25.85652236 -33.5 22.9375 C-31.42288861 20.25456445 -28.84607653 18.82148898 -26 17 C-25.360625 16.360625 -24.72125 15.72125 -24.0625 15.0625 C-21.76676631 12.76676631 -19.32322171 11.00728828 -16.66015625 9.1640625 C-15.38032133 8.26667237 -14.14727386 7.30231497 -12.9375 6.3125 C-10.44144742 4.62162567 -7.85904191 3.9335647 -5 3 C-3.30792999 2.0436126 -1.63183107 1.05589069 0 0 Z M-3 7 C-1.515 7.99 -1.515 7.99 0 9 C0 8.34 0 7.68 0 7 C-0.99 7 -1.98 7 -3 7 Z M-10 11.25 C-11.051875 11.68828125 -12.10375 12.1265625 -13.1875 12.578125 C-17.06524847 14.53854228 -18.60363824 16.40545736 -21 20 C-21.680625 20.165 -22.36125 20.33 -23.0625 20.5 C-23.701875 20.665 -24.34125 20.83 -25 21 C-26.74298703 26.22896109 -25.62016864 31.10211555 -23.29296875 35.95703125 C-22.60435998 37.24931603 -21.90237048 38.53455549 -21.1875 39.8125 C-20.84396484 40.46669922 -20.50042969 41.12089844 -20.14648438 41.79492188 C-18.21694319 45.33905099 -16.48115875 47.89565909 -13 50 C-13.99 50.66 -14.98 51.32 -16 52 C-3.70990219 51.2268702 6.17677795 47.83660666 17 42 C12.1115939 31.60927975 7.20929663 21.23473574 2 11 C1.34 11.66 0.68 12.32 0 13 C-0.33 12.01 -0.66 11.02 -1 10 C-4.91827573 8.69390809 -6.25261472 9.65185039 -10 11.25 Z " fill="#FAFAFA" transform="translate(201,31)"/>
<path d="M0 0 C3.79746835 6.58227848 3.79746835 6.58227848 5 9.0625 C6.05321081 11.21497383 6.05321081 11.21497383 8 13.8125 C10.12117071 17.19311581 10.90961062 20.18363716 12 24 C13.0209375 25.5159375 13.0209375 25.5159375 14.0625 27.0625 C16.1238119 30.18771482 16.49093617 32.35170921 17 36 C17.66 36.33 18.32 36.66 19 37 C19.34342449 38.33076989 19.67619874 39.66431979 20 41 C20.66 41.66 21.32 42.32 22 43 C21.505 43.99 21.505 43.99 21 45 C21.99 45.495 21.99 45.495 23 46 C20 48 20 48 17 48 C16.67 48.66 16.34 49.32 16 50 C14.515 50.495 14.515 50.495 13 51 C12.34 51.66 11.68 52.32 11 53 C10.54625 52.21625 10.0925 51.4325 9.625 50.625 C8.11571258 47.96301969 8.11571258 47.96301969 6 46 C5.19567752 44.01656604 4.54418535 42.0065095 3.87890625 39.97265625 C3.10918283 37.91895619 3.10918283 37.91895619 1.4375 36.47265625 C-0.868207 34.11055967 -0.58799137 31.17835227 -1 28 C-1.66 27.67 -2.32 27.34 -3 27 C-3.68486725 25.67592331 -4.34870203 24.34090759 -5 23 C-5.474375 22.4225 -5.94875 21.845 -6.4375 21.25 C-8.64415918 18.07241077 -9.72088247 14.62895704 -11 11 C-11.66066719 9.33094605 -12.32438252 7.6630584 -13 6 C-9.43216717 1.83752837 -5.4396369 0 0 0 Z M-5.625 6.5 C-6.07875 6.995 -6.5325 7.49 -7 8 C-2.98515223 16.62765159 1.06620394 25.23337225 5.3125 33.75 C5.63734375 34.40419922 5.9621875 35.05839844 6.296875 35.73242188 C8.06043678 39.24856892 9.92660365 42.65704712 12 46 C13.98 45.505 13.98 45.505 16 45 C15.39395508 41.2936267 14.34311906 38.27714985 12.70703125 34.90234375 C12.24401611 33.94078369 11.78100098 32.97922363 11.30395508 31.98852539 C10.8117749 30.98168701 10.31959473 29.97484863 9.8125 28.9375 C9.31580811 27.91068115 8.81911621 26.8838623 8.30737305 25.82592773 C4.92853324 18.85579454 1.51747929 11.90138341 -2 5 C-4.12364481 4.77390663 -4.12364481 4.77390663 -5.625 6.5 Z " fill="#F9F9F9" transform="translate(174,177)"/>
<path d="M0 0 C0.66 0 1.32 0 2 0 C2 0.66 2 1.32 2 2 C3.32 2 4.64 2 6 2 C6 2.66 6 3.32 6 4 C7.98 4.66 9.96 5.32 12 6 C11.34 8.31 10.68 10.62 10 13 C9.34 13 8.68 13 8 13 C7.81824219 13.78246094 7.63648437 14.56492188 7.44921875 15.37109375 C7.19785156 16.38300781 6.94648437 17.39492187 6.6875 18.4375 C6.44386719 19.44683594 6.20023438 20.45617187 5.94921875 21.49609375 C5.63597656 22.32238281 5.32273437 23.14867187 5 24 C4.01 24.33 3.02 24.66 2 25 C2 26.32 2 27.64 2 29 C1.34 29 0.68 29 0 29 C0.04125 29.78375 0.0825 30.5675 0.125 31.375 C0 34 0 34 -2 36 C-3.07981793 37.94973404 -3.07981793 37.94973404 -3.4375 40.0625 C-3.623125 40.701875 -3.80875 41.34125 -4 42 C-4.99 42.495 -4.99 42.495 -6 43 C-7.08462277 45.28341636 -7.98231297 47.61466315 -8.90234375 49.96875 C-10 52 -10 52 -13 53 C-15 52.125 -15 52.125 -17 51 C-17.99 50.67 -18.98 50.34 -20 50 C-20 49.34 -20 48.68 -20 48 C-20.99 48 -21.98 48 -23 48 C-23.5118262 43.77743389 -22.28369685 41.34284808 -20.0859375 37.7734375 C-18.55117327 35.26702398 -17.28887245 32.63911977 -16 30 C-15.67 29.34 -15.34 28.68 -15 28 C-14.87625 27.360625 -14.7525 26.72125 -14.625 26.0625 C-14 24 -14 24 -12.5 22.5625 C-10.53272378 20.51325393 -10.49357245 18.74990365 -10 16 C-9.34 15.34 -8.68 14.68 -8 14 C-6.77545747 11.82523509 -5.59190376 9.64871875 -4.4375 7.4375 C-1.11993243 1.11993243 -1.11993243 1.11993243 0 0 Z M1 6 C-1.57100525 11.21076818 -4.1342837 16.42523703 -6.69042969 21.64331055 C-7.56135325 23.41844241 -8.43439101 25.19253861 -9.30957031 26.96557617 C-10.56610521 29.51212506 -11.81502636 32.06228381 -13.0625 34.61328125 C-13.45622803 35.40712723 -13.84995605 36.20097321 -14.25561523 37.01887512 C-14.61598877 37.75941635 -14.9763623 38.49995758 -15.34765625 39.26293945 C-15.66742432 39.91357864 -15.98719238 40.56421783 -16.31665039 41.23457336 C-17.18048755 43.15077677 -17.18048755 43.15077677 -17 46 C-15.68 46.33 -14.36 46.66 -13 47 C-12.32517578 45.65035156 -12.32517578 45.65035156 -11.63671875 44.2734375 C-5.7578125 32.515625 0.12109375 20.7578125 6 9 C4.62514468 7.45833358 4.62514468 7.45833358 3 6 C2.34 6 1.68 6 1 6 Z " fill="#F9F9F9" transform="translate(104,176)"/>
<path d="M0 0 C0.96446239 2.89338718 1.12655657 4.72375591 1.12939453 7.73095703 C1.13254669 8.68849884 1.13569885 9.64604065 1.13894653 10.63259888 C1.1369223 11.66391937 1.13489807 12.69523987 1.1328125 13.7578125 C1.13376923 14.81660614 1.13472595 15.87539978 1.13571167 16.96627808 C1.13639226 19.20391906 1.13454639 21.44156203 1.13037109 23.67919922 C1.12501059 27.11820873 1.13032563 30.55708826 1.13671875 33.99609375 C1.13605816 36.16666696 1.13477738 38.33724008 1.1328125 40.5078125 C1.13483673 41.54318146 1.13686096 42.57855042 1.13894653 43.64529419 C1.13579437 44.59653168 1.13264221 45.54776917 1.12939453 46.52783203 C1.12820114 47.79000046 1.12820114 47.79000046 1.12698364 49.07766724 C1 51 1 51 0 52 C-2.18639453 52.07258946 -4.37500389 52.08373783 -6.5625 52.0625 C-8.35880859 52.04896484 -8.35880859 52.04896484 -10.19140625 52.03515625 C-11.11824219 52.02355469 -12.04507813 52.01195312 -13 52 C-13.95471816 49.13584553 -14.12651891 47.34869988 -14.12939453 44.37670898 C-14.13254669 43.44241562 -14.13569885 42.50812225 -14.13894653 41.54551697 C-14.1369223 40.53920731 -14.13489807 39.53289764 -14.1328125 38.49609375 C-14.13376923 37.46186783 -14.13472595 36.42764191 -14.13571167 35.36207581 C-14.13639228 33.17570942 -14.1345463 30.98934102 -14.13037109 28.80297852 C-14.12501577 25.4473825 -14.13032293 22.09192 -14.13671875 18.73632812 C-14.13605805 16.61458304 -14.13477707 14.49283803 -14.1328125 12.37109375 C-14.13584885 10.85859291 -14.13584885 10.85859291 -14.13894653 9.3155365 C-14.13579437 8.38439529 -14.13264221 7.45325409 -14.12939453 6.49389648 C-14.12859894 5.67243637 -14.12780334 4.85097626 -14.12698364 4.00462341 C-14 2 -14 2 -13 0 C-10.8203125 -0.44921875 -10.8203125 -0.44921875 -8.125 -0.6875 C-7.24070313 -0.77386719 -6.35640625 -0.86023438 -5.4453125 -0.94921875 C-3 -1 -3 -1 0 0 Z M-9 4 C-9 18.52 -9 33.04 -9 48 C-7.35 48 -5.7 48 -4 48 C-4 33.48 -4 18.96 -4 4 C-5.65 4 -7.3 4 -9 4 Z " fill="#F3F3F3" transform="translate(145,173)"/>
<path d="M0 0 C3 1 3 1 4.125 2.875 C4.81761182 4.55705727 5.4247585 6.27427551 6 8 C6.23460937 8.60457031 6.46921875 9.20914063 6.7109375 9.83203125 C7.42205348 11.95283008 7.88977872 13.76166009 8 16 C5.19443343 20.64671963 2.21606898 23.19034341 -3 25 C-6.5582836 24.92883433 -8.36630789 24.45766652 -11.25 22.375 C-13.43797201 19.40560942 -14.08041193 16.54698255 -15 13 C-15.66 12.34 -16.32 11.68 -17 11 C-16.67 10.34 -16.34 9.68 -16 9 C-15.34 9 -14.68 9 -14 9 C-13.67 8.34 -13.34 7.68 -13 7 C-10.4375 6.375 -10.4375 6.375 -8 6 C-8 5.34 -8 4.68 -8 4 C-7.401875 3.855625 -6.80375 3.71125 -6.1875 3.5625 C-4.43849596 3.1127561 -2.71322977 2.57107659 -1 2 C-0.67 1.34 -0.34 0.68 0 0 Z M-6.125 9 C-6.84945312 9.37125 -7.57390625 9.7425 -8.3203125 10.125 C-9.15175781 10.558125 -9.15175781 10.558125 -10 11 C-9.45276317 14.37462715 -8.9451 16.08235 -7 19 C-3.48156769 19.45892595 -1.65139498 19.41140736 1.375 17.5 C1.91125 17.005 2.4475 16.51 3 16 C2.5020163 12.26512223 2.12508244 10.18762365 0 7 C-2.52475462 7 -3.88902934 7.84595063 -6.125 9 Z " fill="#F8F8F8" transform="translate(199,224)"/>
<path d="M0 0 C1.27423828 -0.00193359 1.27423828 -0.00193359 2.57421875 -0.00390625 C3.91419922 0.00189453 3.91419922 0.00189453 5.28125 0.0078125 C6.17457031 0.00394531 7.06789062 0.00007812 7.98828125 -0.00390625 C8.83777344 -0.00261719 9.68726563 -0.00132812 10.5625 0 C11.34689453 0.00112793 12.13128906 0.00225586 12.93945312 0.00341797 C14.78125 0.1328125 14.78125 0.1328125 15.78125 1.1328125 C15.85355993 3.94838034 15.77748631 6.75073461 15.71875 9.56640625 C15.59897784 12.12268935 15.59897784 12.12268935 16.78125 14.1328125 C15.79125 14.6278125 15.79125 14.6278125 14.78125 15.1328125 C14.306875 15.9578125 13.8325 16.7828125 13.34375 17.6328125 C11.78125 20.1328125 11.78125 20.1328125 8.78125 21.1328125 C4.5176576 21.1328125 1.7154683 20.77803106 -2.21875 19.1328125 C-5.88437962 13.57524501 -5.80499329 7.6491321 -5.21875 1.1328125 C-3.66268249 -0.42325501 -2.15917629 0.00310481 0 0 Z M-0.21875 5.1328125 C-0.239375 6.5971875 -0.26 8.0615625 -0.28125 9.5703125 C-0.29285156 10.39402344 -0.30445313 11.21773437 -0.31640625 12.06640625 C-0.45142348 14.12445188 -0.45142348 14.12445188 0.78125 15.1328125 C2.27863124 15.2307182 3.78067892 15.26256114 5.28125 15.2578125 C6.0959375 15.26039063 6.910625 15.26296875 7.75 15.265625 C9.77655377 15.3573303 9.77655377 15.3573303 10.78125 14.1328125 C10.85304964 12.61353212 10.86517007 11.09113768 10.84375 9.5703125 C10.823125 8.1059375 10.8025 6.6415625 10.78125 5.1328125 C7.15125 5.1328125 3.52125 5.1328125 -0.21875 5.1328125 Z " fill="#FAFAFA" transform="translate(133.21875,227.8671875)"/>
<path d="M0 0 C3.90447725 0.78089545 7.40909763 2.30617813 11 4 C11.33 4.66 11.66 5.32 12 6 C12.763125 5.938125 13.52625 5.87625 14.3125 5.8125 C17 6 17 6 18.8125 7.375 C20 9 20 9 20 11 C19 12 18 13 17 14 C17 14.66 17 15.32 17 16 C16.34 16 15.68 16 15 16 C15.33 16.99 15.66 17.98 16 19 C15.34 19 14.68 19 14 19 C14 19.66 14 20.32 14 21 C8 24 8 24 6.16015625 23.51171875 C5.12181641 23.10373047 5.12181641 23.10373047 4.0625 22.6875 C3.37285156 22.42324219 2.68320313 22.15898437 1.97265625 21.88671875 C0 21 0 21 -3 19 C-3 18.34 -3 17.68 -3 17 C-3.66 16.67 -4.32 16.34 -5 16 C-5.29363808 11.00815264 -5.07836372 8.02555256 -2 4 C-1.34 3.67 -0.68 3.34 0 3 C0 2.01 0 1.02 0 0 Z M2 6 C0.65113218 8.7770808 -0.02945279 10.5778434 0.1875 13.6875 C0.85929411 16.34034619 0.85929411 16.34034619 4 18 C7 18.58333333 7 18.58333333 10 18 C12.31141604 15.14925356 13 13.6860549 13 10 C11.73308493 9.32591692 10.46129251 8.66099503 9.1875 8 C8.47980469 7.62875 7.77210937 7.2575 7.04296875 6.875 C4.91079271 5.80314642 4.91079271 5.80314642 2 6 Z " fill="#F8F8F8" transform="translate(75,225)"/>
<path d="M0 0 C0.66 0.33 1.32 0.66 2 1 C2.33333333 2.66666667 2.66666667 4.33333333 3 6 C3.66 6.33 4.32 6.66 5 7 C5.66666667 9.33333333 6.33333333 11.66666667 7 14 C7.66 14.33 8.32 14.66 9 15 C9.33 15.66 9.66 16.32 10 17 C8.98046875 18.51953125 8.98046875 18.51953125 7 20 C4.32891426 20.05546517 1.94707177 19.96547069 -0.6875 19.6875 C-1.7403418 19.5956543 -1.7403418 19.5956543 -2.81445312 19.50195312 C-4.5442967 19.34897376 -6.27238497 19.17637398 -8 19 C-8 12.04166667 -8 12.04166667 -5.5 9.4375 C-5.005 8.963125 -4.51 8.48875 -4 8 C-3.65657551 6.66923011 -3.32380126 5.33568021 -3 4 C-1.4375 1.75 -1.4375 1.75 0 0 Z M0 9 C-0.66 10.98 -1.32 12.96 -2 15 C-0.35 15 1.3 15 3 15 C2.34 13.02 1.68 11.04 1 9 C0.67 9 0.34 9 0 9 Z " fill="#F8F8F8" transform="translate(138,151)"/>
<path d="M0 0 C0.66 0.33 1.32 0.66 2 1 C-0.64 3.64 -3.28 6.28 -6 9 C-5.62746094 9.77085938 -5.25492188 10.54171875 -4.87109375 11.3359375 C-4.39800781 12.33882812 -3.92492187 13.34171875 -3.4375 14.375 C-2.72400391 15.87160156 -2.72400391 15.87160156 -1.99609375 17.3984375 C-1.66738281 18.25695312 -1.33867187 19.11546875 -1 20 C-1.33 20.66 -1.66 21.32 -2 22 C-5 17.25 -5 17.25 -5 15 C-5.66 14.67 -6.32 14.34 -7 14 C-8.402461 11.40544714 -9.20764178 9.85652236 -8.5 6.9375 C-6.42096618 4.25208132 -3.870596 2.77121881 -1 1 C-0.67 0.67 -0.34 0.34 0 0 Z " fill="#F0F0F0" transform="translate(176,47)"/>
<path d="M0 0 C1 1 1 1 1.0625 3.43359375 C1.02088749 5.43359488 0.97922097 7.43359488 0.9375 9.43359375 C0.81772784 11.98987685 0.81772784 11.98987685 2 14 C1.01 14 0.02 14 -1 14 C-1 10.04 -1 6.08 -1 2 C-6.61 2 -12.22 2 -18 2 C-18 1.67 -18 1.34 -18 1 C-16.12528812 0.83012319 -14.25021305 0.66425224 -12.375 0.5 C-11.33085937 0.4071875 -10.28671875 0.314375 -9.2109375 0.21875 C-6.12120967 0.00825759 -3.09524685 -0.10892364 0 0 Z " fill="#EAEAEA" transform="translate(148,228)"/>
<path d="M0 0 C0.33 0.66 0.66 1.32 1 2 C0.10375977 4.24658203 0.10375977 4.24658203 -1.30859375 7.0078125 C-1.80810547 7.99394531 -2.30761719 8.98007813 -2.82226562 9.99609375 C-3.35529297 11.02863281 -3.88832031 12.06117188 -4.4375 13.125 C-4.96666016 14.16527344 -5.49582031 15.20554688 -6.04101562 16.27734375 C-7.3536281 18.85526735 -8.67354287 21.4291802 -10 24 C-10.66 23.34 -11.32 22.68 -12 22 C-11.505 20.515 -11.505 20.515 -11 19 C-10.34 19 -9.68 19 -9 19 C-8.896875 18.319375 -8.79375 17.63875 -8.6875 16.9375 C-7.85274981 13.37084011 -6.50527246 10.33777806 -5 7 C-4.34 7 -3.68 7 -3 7 C-3 5.68 -3 4.36 -3 3 C-2.34 3 -1.68 3 -1 3 C-0.67 2.01 -0.34 1.02 0 0 Z " fill="#EFEFEF" transform="translate(115,146)"/>
<path d="M0 0 C0.33 0.66 0.66 1.32 1 2 C0.27148438 3.84765625 0.27148438 3.84765625 -0.90625 6.0625 C-1.32003906 6.85914063 -1.73382813 7.65578125 -2.16015625 8.4765625 C-3.05338542 10.15885417 -3.94661458 11.84114583 -4.83984375 13.5234375 C-5.46052734 14.71839844 -5.46052734 14.71839844 -6.09375 15.9375 C-6.48240234 16.66839844 -6.87105469 17.39929688 -7.27148438 18.15234375 C-7.51189453 18.76207031 -7.75230469 19.37179688 -8 20 C-7.67 20.66 -7.34 21.32 -7 22 C-7.99 22 -8.98 22 -10 22 C-10.5118262 17.77743389 -9.28369685 15.34284808 -7.0859375 11.7734375 C-5.55117327 9.26702398 -4.28887245 6.63911977 -3 4 C-2 2 -2 2 0 0 Z " fill="#F0F0F0" transform="translate(91,202)"/>
<path d="M0 0 C1.65 0 3.3 0 5 0 C2.10181338 2.29158942 -0.83140544 4.07862366 -4.125 5.75 C-4.99382812 6.19859375 -5.86265625 6.6471875 -6.7578125 7.109375 C-7.49773437 7.40328125 -8.23765625 7.6971875 -9 8 C-9.66 7.67 -10.32 7.34 -11 7 C-10.01 6.67 -9.02 6.34 -8 6 C-7.67 5.34 -7.34 4.68 -7 4 C-2.66666667 2 -2.66666667 2 0 2 C0 1.34 0 0.68 0 0 Z " fill="#EFEFEF" transform="translate(105,84)"/>
<path d="M0 0 C1.35439668 2.70879335 1.06501451 5.00933268 1 8 C-0.96466413 9.06775224 -2.96855359 10.06553465 -5 11 C-5.66 10.67 -6.32 10.34 -7 10 C-6.34 9.34 -5.68 8.68 -5 8 C-4.01 8 -3.02 8 -2 8 C-1.855625 6.865625 -1.71125 5.73125 -1.5625 4.5625 C-1 1 -1 1 0 0 Z " fill="#EEEEEE" transform="translate(63,111)"/>
<path d="M0 0 C0.33 0 0.66 0 1 0 C1 2.31 1 4.62 1 7 C2.32 7 3.64 7 5 7 C4.67 7.66 4.34 8.32 4 9 C2.125 8.8125 2.125 8.8125 0 8 C-1.375 5.625 -1.375 5.625 -2 3 C-1.34 2.01 -0.68 1.02 0 0 Z " fill="#E5E5E5" transform="translate(117,126)"/>
<path d="M0 0 C0.66 0 1.32 0 2 0 C1.25 1.9375 1.25 1.9375 0 4 C-2.125 4.75 -2.125 4.75 -4 5 C-4.33 4.34 -4.66 3.68 -5 3 C-3.68 3 -2.36 3 -1 3 C-0.67 2.01 -0.34 1.02 0 0 Z " fill="#FFFFFF" transform="translate(92,124)"/>
<path d="M0 0 C0.66 0 1.32 0 2 0 C1.67 0.99 1.34 1.98 1 3 C0.34 3 -0.32 3 -1 3 C-0.67 2.01 -0.34 1.02 0 0 Z " fill="#FFFFFF" transform="translate(198,45)"/>
<path d="" fill="#FFFFFF" transform="translate(0,0)"/>
<path d="" fill="#FFFFFF" transform="translate(0,0)"/>
<path d="" fill="#FFFFFF" transform="translate(0,0)"/>
<path d="" fill="#FEFEFE" transform="translate(0,0)"/>
<path d="" fill="#FFFFFF" transform="translate(0,0)"/>
<path d="M0 0 C2 1 2 1 2 1 Z " fill="#FFFFFF" transform="translate(48,106)"/>
<path d="M0 0 C2 1 2 1 2 1 Z " fill="#FFFFFF" transform="translate(203,85)"/>
<path d="M0 0 C2 1 2 1 2 1 Z " fill="#FFFFFF" transform="translate(183,39)"/>
<path d="" fill="#FFFFFF" transform="translate(0,0)"/>
<path d="" fill="#FFFFFF" transform="translate(0,0)"/>
<path d="" fill="#FFFFFF" transform="translate(0,0)"/>
<path d="" fill="#FFFFFF" transform="translate(0,0)"/>
<path d="" fill="#FFFFFF" transform="translate(0,0)"/>
<path d="" fill="#FFFFFF" transform="translate(0,0)"/>
<path d="" fill="#FFFFFF" transform="translate(0,0)"/>
<path d="" fill="#FFFFFF" transform="translate(0,0)"/>
<path d="" fill="#FFFFFF" transform="translate(0,0)"/>
<path d="" fill="#FFFFFF" transform="translate(0,0)"/>
<path d="" fill="#FFFFFF" transform="translate(0,0)"/>
<path d="" fill="#FFFFFF" transform="translate(0,0)"/>
<path d="" fill="#FFFFFF" transform="translate(0,0)"/>
<path d="" fill="#FFFFFF" transform="translate(0,0)"/>
<path d="" fill="#FFFFFF" transform="translate(0,0)"/>
<path d="" fill="#FFFFFF" transform="translate(0,0)"/>
<path d="" fill="#FFFFFF" transform="translate(0,0)"/>
<path d="" fill="#FFFFFF" transform="translate(0,0)"/>
<path d="" fill="#FFFFFF" transform="translate(0,0)"/>
<path d="" fill="#FFFFFF" transform="translate(0,0)"/>
<path d="" fill="#FFFFFF" transform="translate(0,0)"/>
<path d="" fill="#FFFFFF" transform="translate(0,0)"/>
<path d="" fill="#FFFFFF" transform="translate(0,0)"/>
<path d="" fill="#FFFFFF" transform="translate(0,0)"/>
<path d="" fill="#FFFFFF" transform="translate(0,0)"/>
<path d="" fill="#FFFFFF" transform="translate(0,0)"/>
<path d="" fill="#FFFFFF" transform="translate(0,0)"/>
<path d="" fill="#FFFFFF" transform="translate(0,0)"/>
<path d="" fill="#FFFFFF" transform="translate(0,0)"/>
<path d="" fill="#FFFFFF" transform="translate(0,0)"/>
<path d="" fill="#FFFFFF" transform="translate(0,0)"/>
<path d="" fill="#FFFFFF" transform="translate(0,0)"/>
<path d="" fill="#FFFFFF" transform="translate(0,0)"/>
<path d="" fill="#FFFFFF" transform="translate(0,0)"/>
<path d="" fill="#FFFFFF" transform="translate(0,0)"/>
<path d="" fill="#FFFFFF" transform="translate(0,0)"/>
<path d="" fill="#FFFFFF" transform="translate(0,0)"/>
<path d="" fill="#FFFFFF" transform="translate(0,0)"/>
<path d="" fill="#FFFFFF" transform="translate(0,0)"/>
<path d="" fill="#FFFFFF" transform="translate(0,0)"/>
<path d="" fill="#FFFFFF" transform="translate(0,0)"/>
<path d="" fill="#FFFFFF" transform="translate(0,0)"/>
<path d="" fill="#FFFFFF" transform="translate(0,0)"/>
<path d="" fill="#FFFFFF" transform="translate(0,0)"/>
<path d="" fill="#FFFFFF" transform="translate(0,0)"/>
<path d="" fill="#FFFFFF" transform="translate(0,0)"/>
<path d="" fill="#FFFFFF" transform="translate(0,0)"/>
<path d="" fill="#FFFFFF" transform="translate(0,0)"/>
<path d="" fill="#FFFFFF" transform="translate(0,0)"/>
<path d="" fill="#FFFFFF" transform="translate(0,0)"/>
<path d="" fill="#FFFFFF" transform="translate(0,0)"/>
<path d="" fill="#FFFFFF" transform="translate(0,0)"/>
<path d="" fill="#FFFFFF" transform="translate(0,0)"/>
<path d="" fill="#FFFFFF" transform="translate(0,0)"/>
<path d="" fill="#FFFFFF" transform="translate(0,0)"/>
<path d="" fill="#FFFFFF" transform="translate(0,0)"/>
<path d="" fill="#FFFFFF" transform="translate(0,0)"/>
<path d="" fill="#FFFFFF" transform="translate(0,0)"/>
<path d="" fill="#FFFFFF" transform="translate(0,0)"/>
<path d="" fill="#FEFEFE" transform="translate(0,0)"/>
<path d="" fill="#FFFFFF" transform="translate(0,0)"/>
<path d="" fill="#FFFFFF" transform="translate(0,0)"/>
<path d="" fill="#FFFFFF" transform="translate(0,0)"/>
<path d="" fill="#FFFFFF" transform="translate(0,0)"/>
<path d="" fill="#FFFFFF" transform="translate(0,0)"/>
<path d="" fill="#FFFFFF" transform="translate(0,0)"/>
<path d="" fill="#FEFEFE" transform="translate(0,0)"/>
<path d="" fill="#FEFEFE" transform="translate(0,0)"/>
<path d="" fill="#FEFEFE" transform="translate(0,0)"/>
<path d="" fill="#FFFFFF" transform="translate(0,0)"/>
<path d="" fill="#FFFFFF" transform="translate(0,0)"/>
<path d="" fill="#FFFFFF" transform="translate(0,0)"/>
<path d="" fill="#FFFFFF" transform="translate(0,0)"/>
<path d="" fill="#FFFFFF" transform="translate(0,0)"/>
<path d="" fill="#FFFFFF" transform="translate(0,0)"/>
<path d="" fill="#FFFFFF" transform="translate(0,0)"/>
<path d="" fill="#FFFFFF" transform="translate(0,0)"/>
<path d="" fill="#FFFFFF" transform="translate(0,0)"/>
<path d="" fill="#FFFFFF" transform="translate(0,0)"/>
<path d="" fill="#FFFFFF" transform="translate(0,0)"/>
<path d="" fill="#FFFFFF" transform="translate(0,0)"/>
<path d="" fill="#FFFFFF" transform="translate(0,0)"/>
<path d="" fill="#FFFFFF" transform="translate(0,0)"/>
<path d="" fill="#FFFFFF" transform="translate(0,0)"/>
<path d="" fill="#FFFFFF" transform="translate(0,0)"/>
<path d="" fill="#FFFFFF" transform="translate(0,0)"/>
<path d="" fill="#FFFFFF" transform="translate(0,0)"/>
<path d="" fill="#FFFFFF" transform="translate(0,0)"/>
<path d="" fill="#FFFFFF" transform="translate(0,0)"/>
<path d="" fill="#FFFFFF" transform="translate(0,0)"/>
<path d="" fill="#FFFFFF" transform="translate(0,0)"/>
<path d="" fill="#FFFFFF" transform="translate(0,0)"/>
<path d="" fill="#FFFFFF" transform="translate(0,0)"/>
<path d="" fill="#FFFFFF" transform="translate(0,0)"/>
<path d="" fill="#FFFFFF" transform="translate(0,0)"/>
<path d="" fill="#FFFFFF" transform="translate(0,0)"/>
<path d="" fill="#FFFFFF" transform="translate(0,0)"/>
<path d="" fill="#FFFFFF" transform="translate(0,0)"/>
<path d="" fill="#FFFFFF" transform="translate(0,0)"/>
<path d="" fill="#FFFFFF" transform="translate(0,0)"/>
<path d="" fill="#FFFFFF" transform="translate(0,0)"/>
<path d="" fill="#FFFFFF" transform="translate(0,0)"/>
<path d="" fill="#FFFFFF" transform="translate(0,0)"/>
<path d="" fill="#FFFFFF" transform="translate(0,0)"/>
<path d="" fill="#FFFFFF" transform="translate(0,0)"/>
<path d="" fill="#FFFFFF" transform="translate(0,0)"/>
<path d="" fill="#FFFFFF" transform="translate(0,0)"/>
<path d="" fill="#FFFFFF" transform="translate(0,0)"/>
<path d="" fill="#FFFFFF" transform="translate(0,0)"/>
<path d="" fill="#FFFFFF" transform="translate(0,0)"/>
<path d="" fill="#FFFFFF" transform="translate(0,0)"/>
<path d="" fill="#FFFFFF" transform="translate(0,0)"/>
<path d="" fill="#FFFFFF" transform="translate(0,0)"/>
<path d="" fill="#FFFFFF" transform="translate(0,0)"/>
<path d="" fill="#FFFFFF" transform="translate(0,0)"/>
<path d="" fill="#FFFFFF" transform="translate(0,0)"/>
<path d="" fill="#FFFFFF" transform="translate(0,0)"/>
<path d="" fill="#FFFFFF" transform="translate(0,0)"/>
<path d="" fill="#FFFFFF" transform="translate(0,0)"/>
<path d="" fill="#FFFFFF" transform="translate(0,0)"/>
</svg>
