<?xml version="1.0" encoding="UTF-8"?>
<svg version="1.1" xmlns="http://www.w3.org/2000/svg" width="239" height="238">
<path d="M0 0 C4.67457386 3.30170144 8.55802438 6.37113623 12 11 C14.69516621 13.84085087 17.49555746 16.43488409 20.5 18.9375 C23.7421207 21.66844401 26.29182571 24.73630278 29 28 C30.45556831 29.202426 31.91190098 30.40429253 33.390625 31.578125 C35.96606427 33.8535131 38.09976055 36.49126038 40.2890625 39.1328125 C41.96775394 41.08741137 41.96775394 41.08741137 44.2109375 42.6171875 C45.09652344 43.30167969 45.09652344 43.30167969 46 44 C46 44.66 46 45.32 46 46 C46.66 46 47.32 46 48 46 C49.35386936 47.65002828 50.68678142 49.3174387 52 51 C52.66 51.33 53.32 51.66 54 52 C54 52.66 54 53.32 54 54 C54.66 54 55.32 54 56 54 C57.35386936 55.65002828 58.68678142 57.3174387 60 59 C60.66 59.33 61.32 59.66 62 60 C62 60.66 62 61.32 62 62 C62.66 62 63.32 62 64 62 C65.35386936 63.65002828 66.68678142 65.3174387 68 67 C68.66 67.33 69.32 67.66 70 68 C70 68.66 70 69.32 70 70 C70.66 70 71.32 70 72 70 C73.37073786 71.63604196 74.70055256 73.30678061 76 75 C76.98808231 76.01177733 77.98565504 77.01455376 79 78 C75.49060265 82.18474529 71.91167687 86.1814583 68 90 C67.34515625 90.67675781 66.6903125 91.35351562 66.015625 92.05078125 C65.30921875 92.77652344 64.6028125 93.50226563 63.875 94.25 C63.21242187 94.93578125 62.54984375 95.6215625 61.8671875 96.328125 C60 98 60 98 57 99 C56.01 98.01 55.02 97.02 54 96 C53.34 96.66 52.68 97.32 52 98 C51.01 98.495 51.01 98.495 50 99 C50 99.66 50 100.32 50 101 C49.0409375 101.4021875 49.0409375 101.4021875 48.0625 101.8125 C45.66868314 102.88667752 45.66868314 102.88667752 45 106 C45.495 106.45375 45.99 106.9075 46.5 107.375 C48 109 48 109 48 111 C46.61035156 112.3684082 46.61035156 112.3684082 44.640625 113.98828125 C39.3966291 118.44798789 34.59168719 123.29911998 29.75 128.1875 C28.86570312 129.07630859 27.98140625 129.96511719 27.0703125 130.88085938 C25.43340084 132.5264254 23.79752632 134.17302431 22.16308594 135.82104492 C20.11357313 137.88559365 18.05835707 139.94427286 16 142 C14.35 141.01 12.7 140.02 11 139 C10.56429687 139.40992188 10.12859375 139.81984375 9.6796875 140.2421875 C2.86956522 146.40372671 2.86956522 146.40372671 -2 147 C-6.70969032 145.76467139 -9.99487694 143.26203677 -13.0456543 139.53930664 C-17.3373606 134.50936788 -22.03345377 129.91518736 -26.75358009 125.29351616 C-28.92505731 123.16472523 -31.08669502 121.02605177 -33.24908733 118.88803959 C-37.2575513 114.92502834 -41.26996846 110.96621563 -45.29858398 107.02368164 C-48.11858383 104.2631903 -50.92611323 101.49053797 -53.72589684 98.70955086 C-54.78867441 97.65847034 -55.8559594 96.61192614 -56.9278965 95.57018852 C-58.42577014 94.11351222 -59.90719808 92.64178515 -61.38598633 91.16577148 C-62.23091141 90.33496567 -63.07583649 89.50415985 -63.94636536 88.6481781 C-66.39250041 85.49386763 -67.27902363 82.91050174 -68 79 C-66.515625 76.12890625 -66.515625 76.12890625 -64.25 73.5625 C-63.51265625 72.69753906 -62.7753125 71.83257812 -62.015625 70.94140625 C-60 69 -60 69 -58 69 C-58.7734375 68.13375 -58.7734375 68.13375 -59.5625 67.25 C-61 65 -61 65 -60.9375 63.0625 C-59.09551571 59.01013455 -56.28247472 56.14930094 -52.875 53.375 C-49.88146585 51.13441618 -49.88146585 51.13441618 -48 48 C-46 46.33333333 -44 44.66666667 -42 43 C-41.34 42.01 -40.68 41.02 -40 40 C-38.66666667 39 -37.33333333 38 -36 37 C-35.34 36.01 -34.68 35.02 -34 34 C-32.5 32.3125 -32.5 32.3125 -31 31 C-30.34 31 -29.68 31 -29 31 C-29 31.66 -29 32.32 -29 33 C-26.9254644 34.2236068 -26.9254644 34.2236068 -24 34 C-21.83023454 32.17739702 -20.59459332 30.39188999 -19 28 C-18.34 27.34 -17.68 26.68 -17 26 C-17.66 23.69 -18.32 21.38 -19 19 C-17.71034824 17.62437146 -16.37310707 16.29233607 -15 15 C-14.34 15 -13.68 15 -13 15 C-13 14.34 -13 13.68 -13 13 C-12.34 13 -11.68 13 -11 13 C-11 12.34 -11 11.68 -11 11 C-10.34 11 -9.68 11 -9 11 C-9 10.34 -9 9.68 -9 9 C-6.625 6.375 -6.625 6.375 -4 4 C-3.34 4 -2.68 4 -2 4 C-1.34 2.68 -0.68 1.36 0 0 Z M-1.625 12.375 C-4.22363777 14.65718683 -4.22363777 14.65718683 -4 17 C-4.61875 17.268125 -5.2375 17.53625 -5.875 17.8125 C-8.2995233 18.95556848 -8.2995233 18.95556848 -10 22 C-6.83677611 22.32460584 -6.83677611 22.32460584 -4.51953125 19.8828125 C-3.62621094 18.97273438 -2.73289062 18.06265625 -1.8125 17.125 C-0.91144531 16.22007813 -0.01039062 15.31515625 0.91796875 14.3828125 C3.21932669 12.27636773 3.21932669 12.27636773 3 10 C0.65718683 9.77636223 0.65718683 9.77636223 -1.625 12.375 Z M-28 44 C-28 44.66 -28 45.32 -28 46 C-28.639375 46.268125 -29.27875 46.53625 -29.9375 46.8125 C-32.33131686 47.88667752 -32.33131686 47.88667752 -33 51 C-34.32407669 51.68486725 -35.65909241 52.34870203 -37 53 C-39.25065102 54.91666921 -39.25065102 54.91666921 -41 57 C-41 57.66 -41 58.32 -41 59 C-41.5775 59.2475 -42.155 59.495 -42.75 59.75 C-45.34908658 61.19393699 -47.07836838 62.73521987 -49 65 C-49 65.99 -49 66.98 -49 68 C-47.00016466 67.20882096 -47.00016466 67.20882096 -45 66 C-44.67 65.01 -44.34 64.02 -44 63 C-43.01 62.67 -42.02 62.34 -41 62 C-41 61.34 -41 60.68 -41 60 C-40.4225 59.7525 -39.845 59.505 -39.25 59.25 C-36.67060021 57.81700012 -34.93878408 56.21575324 -33 54 C-33 53.34 -33 52.68 -33 52 C-32.401875 51.731875 -31.80375 51.46375 -31.1875 51.1875 C-29.02775192 50.01506533 -27.64209744 48.80630718 -26 47 C-26.33 46.01 -26.66 45.02 -27 44 C-27.33 44 -27.66 44 -28 44 Z M-22 50 C-23.33929505 51.28548409 -24.67128643 52.57858155 -26 53.875 C-26.7425 54.59429687 -27.485 55.31359375 -28.25 56.0546875 C-30.22293325 57.81170957 -30.22293325 57.81170957 -30 60 C-30.5775 60.2475 -31.155 60.495 -31.75 60.75 C-34.32939979 62.18299988 -36.06121592 63.78424676 -38 66 C-38 66.66 -38 67.32 -38 68 C-38.639375 68.2475 -39.27875 68.495 -39.9375 68.75 C-42.18741541 69.81562433 -42.18741541 69.81562433 -42.75 72.125 C-42.8325 72.74375 -42.915 73.3625 -43 74 C-42.67 73.34 -42.34 72.68 -42 72 C-41.2575 71.731875 -40.515 71.46375 -39.75 71.1875 C-36.34560669 69.71742107 -34.42691171 67.77361338 -32 65 C-32 64.34 -32 63.68 -32 63 C-31.4225 62.7525 -30.845 62.505 -30.25 62.25 C-27.67060021 60.81700012 -25.93878408 59.21575324 -24 57 C-24 56.34 -24 55.68 -24 55 C-23.34 55 -22.68 55 -22 55 C-21.34 53.68 -20.68 52.36 -20 51 C-20.66 50.67 -21.32 50.34 -22 50 Z M-4 81 C-3.67 81.66 -3.34 82.32 -3 83 C-2.67 82.34 -2.34 81.68 -2 81 C-2.66 81 -3.32 81 -4 81 Z M-6 83 C-6.66 84.32 -7.32 85.64 -8 87 C-6.68 85.68 -5.36 84.36 -4 83 C-4.66 83 -5.32 83 -6 83 Z M-13.7265625 90.53125 C-14.66628906 91.50578125 -14.66628906 91.50578125 -15.625 92.5 C-16.25664063 93.1496875 -16.88828125 93.799375 -17.5390625 94.46875 C-18.02117187 94.9740625 -18.50328125 95.479375 -19 96 C-18.67 96.66 -18.34 97.32 -18 98 C-13.04437087 94.26978687 -13.04437087 94.26978687 -10 89 C-12.13524093 88.77882569 -12.13524093 88.77882569 -13.7265625 90.53125 Z M15.80175781 95.6965332 C15.02670898 96.47343506 14.25166016 97.25033691 13.453125 98.05078125 C12.60878906 98.89447266 11.76445313 99.73816406 10.89453125 100.60742188 C10.02183594 101.50009766 9.14914063 102.39277344 8.25 103.3125 C7.36183594 104.19357422 6.47367187 105.07464844 5.55859375 105.98242188 C0.66627032 110.24327916 0.66627032 110.24327916 -1 116 C2.36179774 114.55922954 4.59156268 112.75249979 7 110 C7 109.34 7 108.68 7 108 C7.9590625 107.5978125 7.9590625 107.5978125 8.9375 107.1875 C11.33131686 106.11332248 11.33131686 106.11332248 12 103 C12.99 102.67 13.98 102.34 15 102 C15 101.34 15 100.68 15 100 C15.598125 99.7525 16.19625 99.505 16.8125 99.25 C19.28647521 97.83629988 20.43370255 96.34944617 22 94 C18.0649719 93.59268537 18.0649719 93.59268537 15.80175781 95.6965332 Z M25 99 C24.7525 99.61875 24.505 100.2375 24.25 100.875 C22.77229238 103.38710296 21.56044823 103.76107344 19 105 C18.67 105.99 18.34 106.98 18 108 C16.66666667 108.66666667 15.33333333 109.33333333 14 110 C13.67 110.99 13.34 111.98 13 113 C12.01 113.33 11.02 113.66 10 114 C10 114.66 10 115.32 10 116 C9.360625 116.2475 8.72125 116.495 8.0625 116.75 C5.80696091 117.80283433 5.80696091 117.80283433 5.37109375 120.078125 C5.24863281 120.71234375 5.12617187 121.3465625 5 122 C6.6479787 120.59235153 8.294985 119.18355122 9.9375 117.76953125 C11.28507845 116.6133702 12.63901872 115.46457221 14 114.32421875 C18.8056175 110.24132107 22.9706369 105.84782747 27 101 C26.34 100.34 25.68 99.68 25 99 Z " fill="#3EB0C0" transform="translate(98,61)"/>
<path d="M0 0 C3.42633503 1.25632285 5.88822808 3.02787656 8 6 C7.86276037 8.88203233 7.60354915 11.22916073 7 14 C6.7215625 15.485 6.7215625 15.485 6.4375 17 C6.293125 17.66 6.14875 18.32 6 19 C5.34 19 4.68 19 4 19 C3.82984375 19.556875 3.6596875 20.11375 3.484375 20.6875 C1.9587374 25.49163543 0.19871409 29.80874413 -2.328125 34.17578125 C-3.17468798 36.47429817 -2.78415716 37.72292825 -2 40 C0.25115271 39.21149464 2.50090104 38.41932463 4.75 37.625 C5.70132813 37.29242188 5.70132813 37.29242188 6.671875 36.953125 C9.29895332 36.02270143 11.84156293 35.0805477 14.328125 33.81640625 C16.59591224 32.70900547 17.6560935 33.19428214 20 34 C20.62648437 34.09667969 21.25296875 34.19335938 21.8984375 34.29296875 C24.70379347 35.2367781 25.77478503 36.71779651 27.625 39 C29.94555299 41.95572315 29.94555299 41.95572315 33 44 C33 44.66 33 45.32 33 46 C33.66 46 34.32 46 35 46 C36.35386936 47.65002828 37.68678142 49.3174387 39 51 C39.66 51.33 40.32 51.66 41 52 C41 52.66 41 53.32 41 54 C42.485 54.495 42.485 54.495 44 55 C48.87986581 59.16573911 50.72997283 62.69216715 51.25 69.0625 C50.91125838 73.04271401 49.95207872 75.81942238 47.4375 78.9375 C45.60731895 81.56341194 45.35734122 83.85539725 45 87 C48.85495416 87 49.78700089 86.81555 52.9375 85.0625 C55.98274016 83.44329581 58.5954218 82.61901422 62 82 C62.33 81.34 62.66 80.68 63 80 C68.31554102 77.78009973 74.2783898 75.99030408 80 77 C82.10174277 78.84035852 83.39601794 80.66693519 85 83 C83.56438314 86.18706942 81.79733671 88.62169105 79.5 91.25 C78.8915625 91.95640625 78.283125 92.6628125 77.65625 93.390625 C76 95 76 95 74 95 C74 95.66 74 96.32 74 97 C73.34 97 72.68 97 72 97 C71.7525 97.61875 71.505 98.2375 71.25 98.875 C69.79371361 101.35068687 68.62187494 101.95125002 66 103 C66 103.66 66 104.32 66 105 C65.34 105 64.68 105 64 105 C63.7525 105.61875 63.505 106.2375 63.25 106.875 C61.79371361 109.35068687 60.62187494 109.95125002 58 111 C58 111.66 58 112.32 58 113 C57.34 113 56.68 113 56 113 C55.505 114.485 55.505 114.485 55 116 C49.98450257 114.71696577 47.46446709 112.62957821 44 109 C42.7996051 107.79415108 41.59623932 106.59125552 40.390625 105.390625 C31.46354167 96.46354167 22.53645833 87.53645833 13.609375 78.609375 C12.98683838 77.98756348 12.36430176 77.36575195 11.72290039 76.72509766 C10.6435859 75.64440668 9.56683255 74.56114499 8.49389648 73.47412109 C6.58482252 71.54290173 4.71962091 69.78432378 2.5625 68.125 C-0.15866136 65.86842716 -2.26868968 63.43782796 -4.52734375 60.734375 C-7.35589079 57.40314188 -10.36533761 54.4936263 -13.8125 51.8125 C-14.534375 51.214375 -15.25625 50.61625 -16 50 C-16 49.34 -16 48.68 -16 48 C-16.66 48 -17.32 48 -18 48 C-19.36176922 46.35648543 -20.68962066 44.68477344 -22 43 C-22.825 42.175 -23.65 41.35 -24.5 40.5 C-26.91247231 38.08752769 -29.10585424 35.84121864 -31 33 C-30.75 30.6875 -30.75 30.6875 -30 29 C-29.34 29 -28.68 29 -28 29 C-28 28.34 -28 27.68 -28 27 C-27.34 27 -26.68 27 -26 27 C-26 26.34 -26 25.68 -26 25 C-24.70703125 23.73046875 -24.70703125 23.73046875 -22.8125 22.1875 C-18.70461075 18.70022711 -14.8717149 14.99356982 -11.0625 11.1875 C-10.48282471 10.61217529 -9.90314941 10.03685059 -9.3059082 9.4440918 C-6.28349447 6.50273942 -6.28349447 6.50273942 -4 3 C-3.34 3 -2.68 3 -2 3 C-2 2.34 -2 1.68 -2 1 C-1.34 0.67 -0.68 0.34 0 0 Z " fill="#434D89" transform="translate(132,21)"/>
<path d="M0 0 C1.55078125 1.609375 1.55078125 1.609375 3.3125 3.75 C6.00233417 6.92333742 8.7418814 9.41021342 12 12 C13.55654454 13.71842517 15.04086372 15.48641105 16.52734375 17.265625 C19.24116272 20.46174071 22.11476735 23.31905181 25.4375 25.875 C28.16519401 28.13699015 30.27938806 30.57459 32.54296875 33.28515625 C34.56505543 35.66503843 36.76613828 37.81808856 39 40 C40.60552211 41.60281008 42.2095861 43.20708155 43.8125 44.8125 C44.60269531 45.60269531 45.39289063 46.39289063 46.20703125 47.20703125 C46.79871094 47.79871094 47.39039063 48.39039063 48 49 C46.49309047 52.40421013 44.51286953 54.95740009 42.0625 57.75 C41.37285156 58.54921875 40.68320313 59.3484375 39.97265625 60.171875 C38 62 38 62 35 62 C34.34 60.68 33.68 59.36 33 58 C32.34 58 31.68 58 31 58 C29.375 56.6875 29.375 56.6875 28 55 C28 54.01 28 53.02 28 52 C27.34 52 26.68 52 26 52 C21.23255814 47.69767442 21.23255814 47.69767442 20 44 C19.34 44 18.68 44 18 44 C13.23255814 39.69767442 13.23255814 39.69767442 12 36 C11.34 36 10.68 36 10 36 C5.23255814 31.69767442 5.23255814 31.69767442 4 28 C3.34 28 2.68 28 2 28 C-2.76744186 23.69767442 -2.76744186 23.69767442 -4 20 C-4.66 20 -5.32 20 -6 20 C-6 19.34 -6 18.68 -6 18 C-6.99 17.67 -7.98 17.34 -9 17 C-11.25 15.1875 -11.25 15.1875 -13 13 C-12.75 10.75 -12.75 10.75 -12 9 C-11.34 9 -10.68 9 -10 9 C-9.67 8.01 -9.34 7.02 -9 6 C-7.44140625 4.39453125 -7.44140625 4.39453125 -5.5625 2.8125 C-4.94503906 2.28269531 -4.32757813 1.75289062 -3.69140625 1.20703125 C-2 0 -2 0 0 0 Z " fill="#36CACD" transform="translate(35,154)"/>
<path d="M0 0 C0.66 0.33 1.32 0.66 2 1 C1.10168457 1.8878418 0.20336914 2.77568359 -0.72216797 3.69042969 C-4.05569616 6.98774046 -7.38258692 10.29167993 -10.70751953 13.59765625 C-12.1471241 15.02720726 -13.58851915 16.45495757 -15.03173828 17.88085938 C-17.10663334 19.93147831 -19.1749899 21.98850018 -21.2421875 24.046875 C-21.88807831 24.68244324 -22.53396912 25.31801147 -23.19943237 25.97283936 C-23.79990387 26.57315979 -24.40037537 27.17348022 -25.01904297 27.79199219 C-25.54754852 28.31605652 -26.07605408 28.84012085 -26.62057495 29.38006592 C-28.12149598 31.14267935 -29.04906315 32.8969755 -30 35 C-30.33 33.35 -30.66 31.7 -31 30 C-30.01 29.67 -29.02 29.34 -28 29 C-28 28.34 -28 27.68 -28 27 C-27.34 27 -26.68 27 -26 27 C-26 26.34 -26 25.68 -26 25 C-24.70703125 23.73046875 -24.70703125 23.73046875 -22.8125 22.1875 C-18.70461075 18.70022711 -14.8717149 14.99356982 -11.0625 11.1875 C-10.48282471 10.61217529 -9.90314941 10.03685059 -9.3059082 9.4440918 C-6.28349447 6.50273942 -6.28349447 6.50273942 -4 3 C-3.34 3 -2.68 3 -2 3 C-2 2.34 -2 1.68 -2 1 C-1.34 0.67 -0.68 0.34 0 0 Z " fill="#5C5F94" transform="translate(132,21)"/>
<path d="M0 0 C-0.24917753 3.36389668 -1.15841742 4.14041544 -3.75 6.4375 C-4.28367188 6.85257812 -4.81734375 7.26765625 -5.3671875 7.6953125 C-7.77350957 9.61806745 -9.8553223 11.79224355 -12 14 C-12.66 13.34 -13.32 12.68 -14 12 C-13.04882866 10.8274869 -12.08882991 9.66212985 -11.125 8.5 C-10.32449219 7.52546875 -10.32449219 7.52546875 -9.5078125 6.53125 C-9.01023438 6.0259375 -8.51265625 5.520625 -8 5 C-7.34 5 -6.68 5 -6 5 C-6 4.34 -6 3.68 -6 3 C-2.53846154 0 -2.53846154 0 0 0 Z " fill="#6097B5" transform="translate(152,121)"/>
<path d="M0 0 C0 0.66 0 1.32 0 2 C-1.93530766 3.82729049 -3.99047623 5.46895378 -6.0546875 7.1484375 C-8.0268943 9.02559819 -8.94734255 10.51654602 -10 13 C-10.33 13.66 -10.66 14.32 -11 15 C-11.66 14.34 -12.32 13.68 -13 13 C-12.625 10.875 -12.625 10.875 -12 9 C-11.34 9 -10.68 9 -10 9 C-9.67 8.01 -9.34 7.02 -9 6 C-7.44140625 4.39453125 -7.44140625 4.39453125 -5.5625 2.8125 C-4.94503906 2.28269531 -4.32757813 1.75289062 -3.69140625 1.20703125 C-2 0 -2 0 0 0 Z " fill="#69D5D8" transform="translate(35,154)"/>
<path d="M0 0 C0.66 0 1.32 0 2 0 C1.49769006 4.28837741 0.26421354 6.25890929 -2.8125 9.25 C-3.49957031 9.93578125 -4.18664062 10.6215625 -4.89453125 11.328125 C-7.00987455 13.00784102 -8.36202269 13.59689335 -11 14 C-8.44428082 11.44428082 -5.89464966 8.90183264 -3.25 6.4375 C-1.11767389 4.12748005 -0.33978908 3.05810168 0 0 Z " fill="#5A90B1" transform="translate(103,74)"/>
<path d="M0 0 C0.99 0 1.98 0 3 0 C2.54261927 4.68191549 0.80889606 6.63104174 -2.5625 9.8125 C-3.80193359 10.99779297 -3.80193359 10.99779297 -5.06640625 12.20703125 C-5.70449219 12.79871094 -6.34257812 13.39039063 -7 14 C-7 11 -7 11 -5.46875 9.31640625 C-4.15754263 8.14828699 -2.84504357 6.98161602 -1.53125 5.81640625 C0.42969381 3.88624046 0.42969381 3.88624046 0 0 Z " fill="#5990B1" transform="translate(152,124)"/>
<path d="" fill="#94E2E4" transform="translate(0,0)"/>
<path d="" fill="#96E2E4" transform="translate(0,0)"/>
<path d="" fill="#96E2E4" transform="translate(0,0)"/>
<path d="" fill="#91E0E3" transform="translate(0,0)"/>
<path d="" fill="#97E1E4" transform="translate(0,0)"/>
<path d="" fill="#92E1E2" transform="translate(0,0)"/>
<path d="" fill="#95E2E4" transform="translate(0,0)"/>
<path d="" fill="#99DBE1" transform="translate(0,0)"/>
<path d="" fill="#98DAE0" transform="translate(0,0)"/>
<path d="" fill="#97DDE1" transform="translate(0,0)"/>
<path d="" fill="#9FB1CA" transform="translate(0,0)"/>
<path d="" fill="#91E0E3" transform="translate(0,0)"/>
<path d="" fill="#97E3E5" transform="translate(0,0)"/>
<path d="" fill="#97E3E5" transform="translate(0,0)"/>
<path d="" fill="#99D8DF" transform="translate(0,0)"/>
<path d="" fill="#97E3E5" transform="translate(0,0)"/>
<path d="" fill="#99DFE3" transform="translate(0,0)"/>
<path d="" fill="#9EA1C1" transform="translate(0,0)"/>
<path d="" fill="#9C97BC" transform="translate(0,0)"/>
<path d="" fill="#9A93B9" transform="translate(0,0)"/>
<path d="" fill="#9AD9E0" transform="translate(0,0)"/>
<path d="" fill="#9CD5DD" transform="translate(0,0)"/>
<path d="" fill="#97D5DD" transform="translate(0,0)"/>
<path d="" fill="#9DD1DB" transform="translate(0,0)"/>
<path d="" fill="#9DCDD9" transform="translate(0,0)"/>
<path d="" fill="#9DCCD9" transform="translate(0,0)"/>
<path d="" fill="#9DC3D3" transform="translate(0,0)"/>
<path d="" fill="#9AC8D6" transform="translate(0,0)"/>
<path d="" fill="#95B1C8" transform="translate(0,0)"/>
<path d="" fill="#999FBF" transform="translate(0,0)"/>
<path d="" fill="#9DA1C1" transform="translate(0,0)"/>
<path d="" fill="#9B95BA" transform="translate(0,0)"/>
<path d="" fill="#9A92B8" transform="translate(0,0)"/>
</svg>
