<?xml version="1.0" encoding="UTF-8"?>
<svg version="1.1" xmlns="http://www.w3.org/2000/svg" width="768" height="768">
<path d="M0 0 C1.06178806 -0.00465992 2.12357612 -0.00931984 3.21753958 -0.01412097 C6.76948214 -0.0260558 10.32104114 -0.01668105 13.87298679 -0.00736332 C16.44765552 -0.01153687 19.0223224 -0.0170145 21.59698588 -0.02368313 C27.19177552 -0.03603635 32.78648128 -0.0372683 38.38127995 -0.0311327 C46.70105432 -0.02203314 55.02075127 -0.03008046 63.34051971 -0.04142394 C78.20085333 -0.06108525 93.06115206 -0.06343931 107.92149559 -0.05822874 C120.92667842 -0.05367091 133.93184745 -0.05427156 146.93702984 -0.06006908 C148.68177182 -0.06082595 150.4265138 -0.06158193 152.17125579 -0.06233703 C154.80044388 -0.06348223 157.42963196 -0.0646321 160.05882005 -0.06579627 C184.50084112 -0.07650049 208.94285759 -0.08122728 233.38488007 -0.07332611 C234.76678093 -0.07288035 234.76678093 -0.07288035 236.17659897 -0.07242559 C243.65786554 -0.06997667 251.13913205 -0.06736507 258.62039856 -0.06474145 C287.80459716 -0.05463821 316.98873823 -0.06299622 346.17292881 -0.086236 C378.96535209 -0.11230684 411.75774074 -0.12515709 444.55017477 -0.11804825 C448.04650723 -0.11733219 451.5428397 -0.1166578 455.03917217 -0.1160078 C455.90005142 -0.115838 456.76093066 -0.11566819 457.64789715 -0.11549323 C470.64373623 -0.11319015 483.63954315 -0.12116764 496.63537502 -0.13429928 C511.41413416 -0.14920588 526.19281792 -0.15005983 540.97157543 -0.13222837 C549.24108161 -0.12266147 557.510412 -0.12410815 565.77990646 -0.14146306 C571.95490456 -0.15318148 578.12970547 -0.14398336 584.30468661 -0.12664068 C586.80254725 -0.12286506 589.30042911 -0.12584735 591.79827093 -0.13625234 C595.19389589 -0.14939185 598.58859166 -0.13786465 601.98417664 -0.12025452 C602.95353257 -0.12990503 603.9228885 -0.13955554 604.92161885 -0.14949849 C616.19173204 -0.0295216 626.28382618 4.40323958 635.05500889 11.38031673 C649.75243377 26.49696346 650.50262524 43.52037351 650.43595982 63.54682064 C650.43941922 65.80901789 650.44418569 68.07121344 650.45014155 70.33340549 C650.46264216 76.53123449 650.45648533 82.72892456 650.44718289 88.926754 C650.44108732 94.93024098 650.4490919 100.93369917 650.45662499 106.93718046 C650.47239949 119.96921318 650.47106211 133.0012017 650.46238825 146.03323859 C650.45483499 157.4379375 650.45287455 168.84262023 650.45645618 180.24732113 C650.45679992 181.38304862 650.45679992 181.38304862 650.45715059 182.54172011 C650.45808464 185.61541658 650.45903985 188.68911304 650.46002989 191.76280949 C650.46920232 220.58340816 650.46089374 249.40397872 650.44473919 278.22457305 C650.43050289 303.81751829 650.43177679 329.41041875 650.44612217 355.00336361 C650.46219377 383.77199586 650.46855176 412.54060327 650.45928538 441.30923939 C650.45832326 444.3772637 650.45738474 447.44528802 650.45645618 450.51331234 C650.45610034 451.64641141 650.45610034 451.64641141 650.4557373 452.80240138 C650.45232807 464.1985989 650.45630977 475.59477844 650.46389484 486.99097347 C650.47247843 499.95183616 650.47031573 512.91264782 650.45405261 525.87350416 C650.44602907 532.48556618 650.4430759 539.09755737 650.45300007 545.70962429 C650.46195034 551.76442076 650.45700834 557.81904229 650.44106741 563.87382293 C650.43772106 566.06208681 650.43941036 568.25036553 650.44669478 570.43861985 C650.50197655 588.42774318 649.28621594 604.51648532 636.35579014 618.27484798 C625.01369236 628.65411912 612.69263429 631.5391017 597.76396942 631.5117445 C596.20443479 631.51482345 596.20443479 631.51482345 594.61339441 631.5179646 C591.11263311 631.52364085 587.61191107 631.52217657 584.11114597 631.52075863 C581.58260476 631.52334191 579.05406396 631.52635496 576.52552372 631.52976203 C570.2941665 631.53699205 564.06282163 631.53953487 557.8314607 631.54009109 C550.36781297 631.54100515 542.90417315 631.54767397 535.44052883 631.55443791 C517.40108777 631.57049601 499.36164756 631.57640099 481.32220063 631.58118666 C472.78769839 631.58352281 464.25319681 631.58712549 455.71869509 631.59088203 C426.50206482 631.60371742 397.28543491 631.61443658 368.06880188 631.61788464 C366.23482988 631.61810627 364.40085789 631.61832805 362.56688589 631.61854999 C360.72849347 631.61877063 358.89010106 631.61899111 357.05170864 631.61921144 C353.36359974 631.61965399 349.67549084 631.6201011 345.98738194 631.62055111 C344.61572759 631.6207152 344.61572759 631.6207152 343.21636306 631.6208826 C313.56720623 631.62451305 283.91807385 631.64043273 254.26892638 631.66374147 C222.91940683 631.68834189 191.56990126 631.70205757 160.22037178 631.70325255 C156.77842589 631.70342401 153.33648 631.70363943 149.89453411 631.70388699 C149.04703522 631.70394275 148.19953632 631.70399852 147.32635564 631.70405598 C133.69230892 631.70520625 120.05828731 631.71622617 106.42424907 631.73077404 C92.71788908 631.74514608 79.01156126 631.74837203 65.3051958 631.74033406 C57.1650175 631.73588114 49.02494307 631.7397249 40.88477843 631.75557257 C34.80234768 631.7664853 28.7200353 631.76167098 22.63760007 631.7508007 C20.17995867 631.74884021 17.72230685 631.75193831 15.26468008 631.76064506 C-3.36917563 631.82247335 -20.38275235 631.71312498 -34.75749111 618.13031673 C-48.14956353 603.80391369 -48.38709752 588.70780471 -48.32594204 570.09282589 C-48.32940071 567.80531754 -48.33416667 565.51781085 -48.34012377 563.23030764 C-48.35263449 556.95794922 -48.34646295 550.68572794 -48.33716512 544.41336906 C-48.33107312 538.33939242 -48.33907194 532.26544851 -48.34660721 526.19147627 C-48.36238724 513.00547319 -48.36104218 499.81951378 -48.35237048 486.63350657 C-48.34481945 475.09473987 -48.34285574 463.55598916 -48.34643841 452.0172205 C-48.34666756 451.25139176 -48.34689672 450.48556303 -48.34713282 449.69652737 C-48.34806685 446.58767542 -48.34902206 443.47882348 -48.35001211 440.36997155 C-48.35918576 411.21641413 -48.35087386 382.06288449 -48.33472142 352.90933136 C-48.32048354 327.01447241 -48.32176007 301.11965772 -48.33610439 275.22479916 C-48.3521716 246.12255425 -48.35853656 217.02033388 -48.3492676 187.91808516 C-48.34830547 184.81525585 -48.34736695 181.71242653 -48.34643841 178.60959721 C-48.34620118 177.84561757 -48.34596394 177.08163794 -48.34571952 176.29450741 C-48.34230862 164.76297843 -48.34629509 153.2314672 -48.35387707 141.69994068 C-48.3624556 128.58748188 -48.36030867 115.47507352 -48.34403484 102.362621 C-48.33600459 95.67181841 -48.33306907 88.98111689 -48.34298229 82.29030895 C-48.35191918 76.16587861 -48.34701265 70.04162146 -48.33104964 63.91720683 C-48.32769763 61.70135796 -48.3294053 59.48549446 -48.336677 57.26965498 C-48.34580569 54.2569262 -48.33643601 51.24478988 -48.32251453 48.2320919 C-48.32953803 47.37269899 -48.33656153 46.51330607 -48.34379786 45.62787095 C-48.21967709 32.17940354 -42.46128831 21.34057401 -33.39811611 11.67719173 C-23.88695496 2.77183702 -12.73930045 -0.08833304 0 0 Z M40.24250889 63.13031673 C38.49563818 66.44017702 37.94074749 69.68110382 38.05500889 73.38031673 C39.91155919 78.74368426 42.99999778 81.85281118 48.05500889 84.38031673 C53.28450162 84.78258541 56.66185464 84.30908624 61.05500889 81.38031673 C64.7669151 77.27768355 65.70436093 73.93945865 65.44172764 68.56000423 C64.64145898 64.04939908 62.22857991 61.35829258 58.80500889 58.50531673 C51.07897003 55.34466448 45.99604665 57.57517682 40.24250889 63.13031673 Z M101.18000889 63.56781673 C99.57314542 67.58497539 99.38530782 71.11379419 100.05500889 75.38031673 C102.42208754 80.29655702 104.91541382 82.566342 110.05500889 84.38031673 C114.28076163 84.90853583 116.43486254 84.69646977 120.24250889 82.75531673 C124.43091238 79.21844268 126.76829936 76.38728345 127.55500889 70.88031673 C126.81356886 65.69023652 124.08720157 61.71125851 120.05500889 58.38031673 C112.15747342 55.74780491 106.61121933 57.23140455 101.18000889 63.56781673 Z M159.18000889 63.56781673 C157.57314542 67.58497539 157.38530782 71.11379419 158.05500889 75.38031673 C160.42208754 80.29655702 162.91541382 82.566342 168.05500889 84.38031673 C172.28076163 84.90853583 174.43486254 84.69646977 178.24250889 82.75531673 C182.43091238 79.21844268 184.76829936 76.38728345 185.55500889 70.88031673 C184.81356886 65.69023652 182.08720157 61.71125851 178.05500889 58.38031673 C170.15747342 55.74780491 164.61121933 57.23140455 159.18000889 63.56781673 Z M-7.94499111 122.38031673 C-8.02749111 195.26906673 -8.10999111 268.15781673 -8.19499111 343.25531673 C-8.23140713 366.29199154 -8.26782314 389.32866634 -8.30534267 413.0634222 C-8.31871828 433.66707396 -8.31871828 433.66707396 -8.32676601 454.27072811 C-8.33050095 463.46616344 -8.34519388 472.66150191 -8.36729336 481.85690975 C-8.39273626 492.45914293 -8.4043392 503.06128298 -8.39877091 513.66354693 C-8.39635888 519.08827138 -8.40021098 524.51278765 -8.42185163 529.93747401 C-8.44130461 534.84355236 -8.44229283 539.74927513 -8.42859554 544.65536976 C-8.42690009 546.42820031 -8.43196691 548.20105309 -8.44452143 549.97384 C-8.53017271 562.8245127 -7.27332086 573.71957435 2.05500889 583.38031673 C10.55653501 590.57642618 20.04920842 592.84554686 30.99769497 592.76063347 C32.42784379 592.76762335 32.42784379 592.76762335 33.88688451 592.77475443 C37.07025511 592.78667111 40.25319628 592.77732169 43.43657017 592.76799679 C45.74653925 592.77217115 48.05650627 592.77764922 50.3664695 592.7843166 C56.70563087 592.7987764 63.04466229 592.79452472 69.38383079 592.78714979 C75.52100538 592.78144277 81.65816148 592.7927288 87.79532781 592.80205741 C101.12057548 592.82171261 114.44578423 592.82407392 127.77104294 592.81886221 C139.43351488 592.81430315 151.09597143 592.81490656 162.75844288 592.82070255 C164.32347593 592.82145942 165.88850898 592.8222154 167.45354203 592.8229705 C169.81197418 592.82411571 172.17040632 592.82526558 174.52883846 592.82642974 C196.45235232 592.83713311 218.37586106 592.84186167 240.29937649 592.83395958 C241.12561545 592.83366241 241.95185442 592.83336523 242.80313093 592.83305905 C249.51255793 592.83061018 256.22198486 592.82799856 262.9314118 592.82537492 C289.10137869 592.81527286 315.27128141 592.82362777 341.44123936 592.84686947 C370.85223359 592.87294737 400.26318919 592.88578859 429.67419541 592.87868172 C432.81077805 592.87796567 435.94736071 592.87729128 439.08394337 592.87664127 C439.85623356 592.87647146 440.62852375 592.87630166 441.42421667 592.8761267 C453.0768871 592.87382472 464.72952164 592.88179587 476.38218403 592.89493275 C489.63588711 592.90984806 502.88950613 592.91068169 516.14320742 592.89286184 C522.90516211 592.88414425 529.66694666 592.88223474 536.428895 592.89751339 C542.62074426 592.9113307 548.81229506 592.90663491 555.00412692 592.88727415 C557.24224925 592.88350481 559.48039531 592.88646289 561.71849655 592.8968858 C577.07933051 592.96332628 589.4416788 592.97283354 600.99641514 581.60297298 C610.75129824 571.07066087 610.48816582 559.00303074 610.41577244 545.43570614 C610.41708612 543.61243715 610.41971946 541.78916871 610.42355442 539.96590328 C610.43026668 534.96240782 610.41826588 529.95910583 610.40322708 524.95563492 C610.39010907 519.47465883 610.3945121 513.99369139 610.39668083 508.5127039 C610.39827463 497.87745121 610.38443418 487.24227463 610.36517685 476.60704149 C610.34356537 464.30302484 610.34119197 451.99905381 610.33882236 439.695014 C610.32307539 407.21510286 610.281192 374.73520865 610.24250889 342.25531673 C610.18063389 269.69656673 610.11875889 197.13781673 610.05500889 122.38031673 C406.11500889 122.38031673 202.17500889 122.38031673 -7.94499111 122.38031673 Z " fill="#9D2A64" transform="translate(83.94499111175537,69.61968326568604)"/>
<path d="M0 0 C1.23812073 -0.00507454 2.47624146 -0.01014909 3.751881 -0.0153774 C5.13847943 -0.01597913 6.52507791 -0.01647819 7.91167641 -0.01688576 C9.37485707 -0.02089887 10.83803662 -0.02533684 12.30121481 -0.03016531 C16.33653157 -0.04215318 20.37183635 -0.04778436 24.40716743 -0.05234647 C28.75354234 -0.05829406 33.09990286 -0.06990586 37.44626808 -0.08063698 C47.94906016 -0.10517824 58.451857 -0.11978957 68.95466894 -0.13269705 C71.91927127 -0.13640737 74.88387312 -0.14038072 77.84847498 -0.14444971 C96.2445393 -0.16968184 114.64060432 -0.19174249 133.03668213 -0.20417786 C137.29926366 -0.20710771 141.56184517 -0.21006936 145.82442665 -0.21308327 C147.41365865 -0.21420234 147.41365865 -0.21420234 149.03499635 -0.21534403 C166.21054501 -0.22800647 183.38599037 -0.26124066 200.5614907 -0.3028851 C218.18072739 -0.34525661 235.79991111 -0.36886725 253.41919863 -0.37409842 C263.31772584 -0.37751771 273.21609153 -0.38933387 283.11456871 -0.42220116 C291.54183237 -0.45013703 299.96890141 -0.46122949 308.39620779 -0.4500057 C312.69853888 -0.44480262 317.00046199 -0.44781195 321.30273438 -0.47247124 C325.23832745 -0.49484132 329.1732166 -0.49432054 333.10882099 -0.47526737 C334.53548124 -0.47245003 335.96218799 -0.47816144 337.38877301 -0.4930803 C339.32247285 -0.51207228 341.25641657 -0.49746029 343.19013977 -0.48101807 C344.26594248 -0.4823746 345.34174519 -0.48373112 346.45014799 -0.48512876 C349.22091103 0.13701439 349.22091103 0.13701439 351.56267798 2.48814142 C353.6149017 5.76637783 353.93343519 7.3368855 353.22091103 11.13701439 C351.58064884 13.75485497 350.87028861 14.71102991 348.22091103 16.13701439 C343.56658308 16.90658585 338.91113452 16.80763443 334.20734596 16.76520348 C332.74569327 16.77024838 331.28404675 16.77747679 329.82241446 16.78670162 C325.80506904 16.80565899 321.788331 16.79337094 317.77100074 16.77597868 C313.4389687 16.76262626 309.10702678 16.77803406 304.77500343 16.78980064 C296.28855286 16.80819706 287.80233226 16.79965181 279.31588881 16.78171242 C272.42052549 16.76769792 265.52522468 16.76379114 258.62984848 16.76715469 C257.64920294 16.76763214 256.6685574 16.76810958 255.65819534 16.76860149 C253.66616791 16.7696278 251.67414051 16.77068315 249.68211312 16.77176725 C232.06080371 16.78033825 214.43960549 16.76364585 196.81832314 16.73393822 C179.7098772 16.70509546 162.60159141 16.69801884 145.49312782 16.7134304 C126.872587 16.73018105 108.25212225 16.73423873 89.63157946 16.71672004 C87.64710558 16.71487561 85.6626317 16.71304088 83.67815781 16.71121597 C82.21347193 16.70984784 82.21347193 16.70984784 80.71919645 16.70845206 C73.82957182 16.70283993 66.93998426 16.70616011 60.05036163 16.71276093 C51.65792602 16.7204822 43.26564821 16.71378503 34.87324446 16.68858588 C30.58919662 16.67606323 26.30539481 16.66997766 22.02133751 16.68112755 C18.10256489 16.69113438 14.18428396 16.6827871 10.26557142 16.65954637 C8.84507521 16.65436729 7.42453529 16.65598438 6.00405788 16.66494102 C4.07861876 16.67607525 2.15307962 16.6603541 0.22768497 16.64317226 C-0.84345376 16.64198078 -1.91459249 16.6407893 -3.01818997 16.63956171 C-6.4772166 16.00993905 -7.63801822 14.87440585 -9.77908897 12.13701439 C-10.95499871 8.45249721 -11.11390236 6.85447164 -9.46658897 3.32451439 C-6.6389088 -0.34099694 -4.44313488 0.00962861 0 0 Z " fill="#A91B6A" transform="translate(223.77908897399902,297.8629856109619)"/>
<path d="M0 0 C1.96219734 -0.00856522 1.96219734 -0.00856522 3.96403503 -0.01730347 C5.42228689 -0.01854889 6.88053886 -0.01967397 8.33879089 -0.02069092 C9.8679008 -0.02531803 11.39700955 -0.03034255 12.92611694 -0.03573608 C17.0873581 -0.04887301 21.24858311 -0.05530764 25.40984178 -0.05974674 C28.00863949 -0.06267559 30.60743277 -0.06678006 33.20622826 -0.07125092 C41.33433888 -0.08492971 49.4624394 -0.0945943 57.59056073 -0.09845281 C66.97856825 -0.10293363 76.36643016 -0.12048099 85.7543934 -0.1494534 C93.00710881 -0.17106039 100.25978324 -0.18115657 107.51253051 -0.18249393 C111.84597374 -0.18354273 116.17928019 -0.18946638 120.51268959 -0.20731354 C124.58959805 -0.22377713 128.66626666 -0.22595813 132.74319649 -0.21717453 C134.23917024 -0.21640321 135.7351568 -0.22075937 137.23109818 -0.23063278 C139.27422494 -0.24332622 141.31744779 -0.23569325 143.3605957 -0.22705078 C144.50378675 -0.22851734 145.64697779 -0.2299839 146.82481098 -0.2314949 C150.2678724 0.18893093 152.11079183 1.06927833 154.87077332 3.14044189 C156.94987521 6.25909474 157.15236706 6.67783711 156.74577332 10.14044189 C156.68132019 10.82106689 156.61686707 11.50169189 156.55046082 12.20294189 C155.58861339 14.94475983 154.3600839 15.66214437 151.87077332 17.14044189 C148.90938663 17.52075863 148.90938663 17.52075863 145.387146 17.52812195 C144.41338395 17.53620025 144.41338395 17.53620025 143.41994995 17.54444176 C141.24654476 17.55873952 139.07374708 17.55161355 136.90031433 17.54449463 C135.34134939 17.55019729 133.78238862 17.55716114 132.22343445 17.56529236 C127.98993943 17.58325079 123.75665138 17.58205035 119.5231297 17.57634997 C115.9892483 17.57326192 112.45540686 17.57934632 108.92153114 17.58538872 C100.58483528 17.59944122 92.24824187 17.59786671 83.9115448 17.58648682 C75.31022344 17.57500517 66.70921385 17.58908031 58.10793358 17.61588329 C50.72352481 17.63803298 43.33921396 17.64467932 35.95477432 17.63880688 C31.54421171 17.63543429 27.13384897 17.63787227 22.72331429 17.65505791 C18.57570525 17.67051335 14.4285584 17.66658738 10.28096771 17.64775276 C8.75919878 17.64406293 7.23739571 17.64718689 5.71565819 17.65763855 C3.63703303 17.67082453 1.5599434 17.65932516 -0.51861572 17.64164734 C-1.68133216 17.64143806 -2.8440486 17.64122877 -4.04199886 17.64101315 C-7.78114747 17.03473774 -9.45534831 15.77348689 -12.12922668 13.14044189 C-12.99223999 10.39595239 -12.76587848 7.93367997 -12.12922668 5.14044189 C-8.50547603 0.42956605 -5.73584298 0.01493984 0 0 Z " fill="#AB246F" transform="translate(295.1292266845703,256.85955810546875)"/>
<path d="M0 0 C0.64579671 -0.0055344 1.29159342 -0.01106879 1.95695972 -0.0167709 C4.11907853 -0.03037512 6.28004243 -0.01541113 8.44213867 -0.00050354 C9.99287405 -0.00428684 11.54360605 -0.00978697 13.09432983 -0.01687622 C17.30511456 -0.03084686 21.51549141 -0.01964996 25.72625351 -0.00316501 C30.13130775 0.01067757 34.53633812 0.00422632 38.94140625 0.0007019 C46.33917826 -0.00200085 53.73678807 0.01148095 61.13452148 0.03465271 C69.6892474 0.06126289 78.24370212 0.06300981 86.79845524 0.05126435 C95.02537063 0.04048781 103.25218786 0.04667265 111.47909546 0.06081963 C114.98141803 0.06658052 118.48366879 0.06649594 121.98599243 0.06175423 C126.1097536 0.05698439 130.23321753 0.0670862 134.35692215 0.08870888 C135.87103905 0.09427686 137.38518451 0.09474192 138.89930344 0.08975601 C140.96493786 0.08380667 143.02966243 0.09629998 145.09521484 0.11352539 C146.25147873 0.11595529 147.40774261 0.11838518 148.5990448 0.12088871 C151.87458633 0.54338042 153.24897362 1.15898478 155.54760742 3.50120544 C156.6513412 7.47464706 156.96304325 9.59120316 155.23510742 13.37620544 C153.54760742 15.50120544 153.54760742 15.50120544 151.54760742 16.50120544 C149.47894836 16.60394774 147.40691867 16.64073364 145.33572388 16.64837646 C144.36959209 16.6538915 144.36959209 16.6538915 143.38394248 16.65951794 C141.215996 16.67057065 139.04809742 16.67440126 136.88012695 16.6782074 C135.32969001 16.68447077 133.77925458 16.69111745 132.2288208 16.69812012 C128.00980218 16.71553958 123.79079489 16.72608408 119.57174921 16.73432565 C116.93744744 16.73947296 114.30314922 16.74554876 111.66884995 16.75183678 C103.43128725 16.77089004 95.19373354 16.78512184 86.95615304 16.79344875 C77.43848296 16.80322784 67.92104504 16.82956422 58.40345681 16.86994964 C51.05224504 16.90007539 43.70109996 16.91491418 36.34982765 16.91822976 C31.95656473 16.92058398 27.56354979 16.92959254 23.17035294 16.95469093 C19.03840712 16.97791547 14.90687354 16.98222779 10.77487946 16.97192955 C9.25751502 16.97143273 7.74013068 16.97779616 6.22282791 16.9914856 C4.15254027 17.00912069 2.08374568 17.00214213 0.01345825 16.98895264 C-1.14540327 16.99134099 -2.30426479 16.99372934 -3.49824333 16.99619007 C-7.08146883 16.39580011 -8.25033201 15.3323921 -10.45239258 12.50120544 C-10.98364258 10.50120544 -10.98364258 10.50120544 -10.95239258 8.50120544 C-10.96786133 7.51120544 -10.96786133 7.51120544 -10.98364258 6.50120544 C-9.46349712 0.77830489 -5.30740224 0.00096064 0 0 Z " fill="#D71568" transform="translate(260.452392578125,337.49879455566406)"/>
<path d="M0 0 C1.19874756 -0.00860046 2.39749512 -0.01720093 3.63256836 -0.02606201 C4.9680324 -0.03049735 6.30349691 -0.03479569 7.63896179 -0.03897095 C9.03999536 -0.04687122 10.44102689 -0.05514012 11.84205627 -0.06375122 C16.44971267 -0.08997912 21.05737819 -0.10527918 25.66508484 -0.11953735 C27.25052077 -0.12489664 28.83595664 -0.13027414 30.42139244 -0.13566971 C37.01564019 -0.15729918 43.60988548 -0.17603647 50.20415974 -0.1872921 C59.65862604 -0.20353523 69.11268161 -0.23672062 78.56699306 -0.29369295 C85.21249187 -0.33237567 91.85788074 -0.35192276 98.5034892 -0.35721266 C102.47376833 -0.36086835 106.44360948 -0.37291184 110.41376686 -0.4053154 C114.14936261 -0.43536739 117.88425472 -0.4417187 121.61994553 -0.42993164 C123.64318165 -0.42960535 125.66637416 -0.45408997 127.68945312 -0.47930908 C137.57689642 -0.41117784 137.57689642 -0.41117784 140.6869812 2.4677124 C142.88379946 5.98585914 142.95748183 8.07579976 142.36430359 12.15390015 C140.60415228 15.33893584 139.86539443 15.98686987 136.36430359 17.15390015 C134.45792045 17.24911021 132.5483441 17.28453479 130.6395874 17.28761292 C128.84985756 17.29401039 128.84985756 17.29401039 127.02397156 17.30053711 C125.71323669 17.30008392 124.40250183 17.29963074 123.05204773 17.29916382 C121.65909739 17.30215565 120.26614788 17.30555823 118.87319946 17.30934143 C115.08810086 17.3181827 111.30302485 17.32051958 107.51791692 17.32115722 C104.35928878 17.32210633 101.20066592 17.32578461 98.04203981 17.32932931 C90.59094599 17.33747418 83.13986424 17.3399135 75.68876648 17.33920288 C67.99923418 17.33860191 60.30977199 17.34915757 52.62025744 17.36494654 C46.02061033 17.37801543 39.42098615 17.38338706 32.8213262 17.38274747 C28.87864209 17.38249231 24.9360203 17.38535335 20.99334908 17.39592552 C17.28581318 17.40559569 13.57839931 17.40569317 9.87085915 17.39840889 C7.8606215 17.39686213 5.85038389 17.40521714 3.84016418 17.41384888 C2.04620461 17.40755714 2.04620461 17.40755714 0.21600342 17.40113831 C-0.82356978 17.40168307 -1.86314299 17.40222784 -2.93421841 17.40278912 C-5.69493374 17.14844257 -7.31100714 16.63030249 -9.63569641 15.15390015 C-11.73249044 12.45802211 -11.63080462 11.06095615 -11.44819641 7.59140015 C-10.66057359 4.25914976 -10.33888028 3.10019253 -7.63569641 1.15390015 C-4.98310961 -0.17239326 -2.9717279 0.0158282 0 0 Z " fill="#FE3861" transform="translate(177.6356964111328,457.8460998535156)"/>
<path d="M0 0 C1.18191925 -0.00571014 2.3638385 -0.01142029 3.58157349 -0.01730347 C4.88498184 -0.01842133 6.1883902 -0.01953918 7.53129578 -0.02069092 C8.91262444 -0.02531833 10.29395182 -0.03034289 11.67527771 -0.03573608 C15.43363911 -0.04887036 19.19198263 -0.05530715 22.9503634 -0.05974674 C25.29789677 -0.0626761 27.64542525 -0.06678067 29.99295616 -0.07125092 C37.33618088 -0.08492918 44.67939441 -0.09459396 52.02263099 -0.09845281 C60.50223713 -0.10293311 68.98168204 -0.12047827 77.46123916 -0.1494534 C84.01332375 -0.17106573 90.56536298 -0.18115686 97.11748284 -0.18249393 C101.03174704 -0.18354238 104.94585974 -0.18945839 108.86008644 -0.20731354 C112.54303027 -0.22378633 116.22570862 -0.22595372 119.90867615 -0.21717453 C121.9032382 -0.21603637 123.8977914 -0.22976028 125.89230347 -0.243927 C127.08268219 -0.23835785 128.27306091 -0.2327887 129.49951172 -0.22705078 C130.5320876 -0.22851734 131.56466349 -0.2299839 132.62852955 -0.2314949 C135.92848933 0.20502951 137.7746577 1.17171406 140.44023132 3.14044189 C142.51933322 6.25909474 142.72182507 6.67783711 142.31523132 10.14044189 C142.2507782 10.82106689 142.18632507 11.50169189 142.11991882 12.20294189 C141.16429155 14.92702883 139.89877293 15.65764307 137.44023132 17.14044189 C134.7131052 17.52355194 134.7131052 17.52355194 131.52606201 17.53485107 C130.31615097 17.54620087 129.10623993 17.55755066 127.85966492 17.56924438 C126.52201777 17.56660115 125.18437124 17.56362994 123.84672546 17.56036377 C122.43554004 17.56770456 121.02436062 17.57629082 119.6131897 17.58602905 C115.78258135 17.60825246 111.95218806 17.61117536 108.1215241 17.60928154 C104.92315778 17.60916188 101.7248371 17.61772408 98.52648348 17.62605906 C90.98085611 17.64529593 83.43533938 17.64817586 75.88969421 17.64141846 C68.10627414 17.63477639 60.32332782 17.65764768 52.54000384 17.69473219 C45.85622076 17.7254219 39.17259014 17.73679006 32.488738 17.73289537 C28.49729135 17.73082717 24.50621337 17.73631762 20.51483345 17.76078796 C16.76110125 17.78304109 13.0081397 17.78119025 9.25440407 17.76086044 C7.8777583 17.7574478 6.50106081 17.76255071 5.12448502 17.77684402 C-6.57472618 17.88992666 -6.57472618 17.88992666 -9.8822937 14.824646 C-12.09308141 11.28706391 -12.23036759 9.23854639 -11.55976868 5.14044189 C-8.03836323 0.67999499 -5.50857668 0.01588661 0 0 Z " fill="#5E2570" transform="translate(467.5597686767578,256.85955810546875)"/>
<path d="M0 0 C1.19874756 -0.00860046 2.39749512 -0.01720093 3.63256836 -0.02606201 C4.9680324 -0.03049735 6.30349691 -0.03479569 7.63896179 -0.03897095 C9.03999536 -0.04687122 10.44102689 -0.05514012 11.84205627 -0.06375122 C16.44971267 -0.08997912 21.05737819 -0.10527918 25.66508484 -0.11953735 C27.25052077 -0.12489664 28.83595664 -0.13027414 30.42139244 -0.13566971 C37.01564019 -0.15729918 43.60988548 -0.17603647 50.20415974 -0.1872921 C59.65862604 -0.20353523 69.11268161 -0.23672062 78.56699306 -0.29369295 C85.21249187 -0.33237567 91.85788074 -0.35192276 98.5034892 -0.35721266 C102.47376833 -0.36086835 106.44360948 -0.37291184 110.41376686 -0.4053154 C114.14936261 -0.43536739 117.88425472 -0.4417187 121.61994553 -0.42993164 C123.64318165 -0.42960535 125.66637416 -0.45408997 127.68945312 -0.47930908 C137.57663978 -0.41117961 137.57663978 -0.41117961 140.6791687 2.47161865 C142.92587583 6.04777211 143.10523056 8.0047091 142.36430359 12.15390015 C140.71347311 14.77403695 140.01554396 15.73251026 137.36430359 17.15390015 C132.83321075 17.91591309 128.33425629 17.82588671 123.74906921 17.78500366 C122.34758601 17.79014436 120.94610926 17.79742679 119.54464722 17.8066864 C115.74489812 17.82519007 111.94585132 17.81226905 108.14613152 17.7925961 C104.16729299 17.77619939 100.1884986 17.78502391 96.2096405 17.79011536 C89.52817071 17.79463519 82.84698098 17.77877349 76.16557312 17.75082397 C68.44408178 17.71877238 60.72309551 17.71878805 53.00156832 17.73603874 C45.56965593 17.75190992 38.13792848 17.74516653 30.70602417 17.72810173 C27.54501413 17.72123428 24.38415247 17.72226048 21.22314453 17.72964668 C17.49979964 17.73731553 13.77702859 17.72516471 10.05378151 17.69779778 C8.03782048 17.68764105 6.02179051 17.69709025 4.00582886 17.7071228 C2.80295731 17.69439835 1.60008575 17.68167389 0.36076355 17.66856384 C-1.20437862 17.66435346 -1.20437862 17.66435346 -2.80113983 17.66005802 C-6.39702308 17.01795243 -8.06708421 15.71202257 -10.63569641 13.15390015 C-11.69819641 9.71640015 -11.69819641 9.71640015 -11.63569641 6.15390015 C-8.28615278 0.84083094 -6.0546686 0.03224875 0 0 Z " fill="#DB1A6B" transform="translate(350.6356964111328,457.8460998535156)"/>
<path d="M0 0 C1.27025528 -0.01265396 2.54051056 -0.02530792 3.84925842 -0.03834534 C5.25461222 -0.0270293 6.65996198 -0.01520183 8.06530762 -0.00291443 C9.54708208 -0.00805315 11.02885044 -0.01533408 12.51060486 -0.02459717 C16.53346537 -0.04312591 20.5556639 -0.03016383 24.57849693 -0.01050687 C28.78736528 0.00586905 32.99619135 -0.00293178 37.20507812 -0.00802612 C44.27334172 -0.01254828 51.34134079 0.00333018 58.4095459 0.03126526 C66.58261721 0.06331785 74.7552114 0.06330192 82.92831659 0.04605049 C90.78897748 0.03018938 98.64946335 0.03691624 106.51011658 0.0539875 C109.85616206 0.06086203 113.20206743 0.05982148 116.54811096 0.05244255 C120.4881124 0.04478405 124.42757055 0.05689095 128.36747932 0.08429146 C129.81386261 0.09118105 131.26029658 0.09126705 132.70667839 0.08407593 C134.68002724 0.075395 136.65344004 0.09375867 138.62670898 0.11352539 C140.2836742 0.11773577 140.2836742 0.11773577 141.97411346 0.12203121 C145.49622721 0.74992634 146.68108122 1.79825608 148.81335449 4.62818909 C149.40388575 8.68809149 149.32585248 10.79351803 147.16597652 14.31116295 C144.17659316 17.25531602 142.81519043 17.25597976 138.67140198 17.2631073 C137.41100601 17.27720642 136.15061005 17.29130554 134.85202026 17.30583191 C133.45769905 17.2961106 132.06338137 17.28586976 130.66906738 17.27516174 C129.19876522 17.28193793 127.72847155 17.29084107 126.25819397 17.30171204 C122.2662754 17.3245145 118.27500263 17.31566505 114.28307271 17.29981661 C110.10535898 17.28715994 105.92770064 17.29889728 101.74998474 17.30674744 C94.73300244 17.31584572 87.71628319 17.30385258 80.69934082 17.28004456 C72.58870661 17.25284334 64.47870103 17.2616391 56.36808211 17.28917658 C49.40401967 17.31187433 42.44014638 17.31506422 35.4760589 17.30198324 C31.31697853 17.29419095 27.15819351 17.29314059 22.99913216 17.30966568 C19.08776786 17.32412072 15.17721285 17.31407096 11.2659359 17.2851944 C9.83125782 17.27858848 8.39651151 17.28047298 6.96186066 17.29150772 C5.00202889 17.3051909 3.04204812 17.28498073 1.08229065 17.2631073 C-0.01405669 17.26122217 -1.11040403 17.25933704 -2.23997402 17.25739479 C-6.17150946 16.4178901 -7.6915075 14.71059622 -10.18664551 11.62818909 C-10.8981329 7.83358968 -10.57882558 6.25821151 -8.5381546 2.9799509 C-5.54164692 -0.01687883 -4.18332489 0.00222038 0 0 Z " fill="#FE345D" transform="translate(260.1866455078125,578.3718109130859)"/>
<path d="M0 0 C1.00140266 -0.00058631 2.00280533 -0.00117262 3.03455353 -0.0017767 C4.18701065 -0.01443066 5.33946777 -0.02708462 6.52684784 -0.04012203 C7.78723373 -0.02842983 9.04761963 -0.01673763 10.34619904 -0.00469112 C11.69004511 -0.00983048 13.03388445 -0.01711189 14.37770844 -0.02637386 C18.02457175 -0.04489479 21.67070437 -0.0319458 25.31753731 -0.01228356 C29.13402536 0.00409899 32.95046699 -0.00470939 36.7669754 -0.00980282 C43.17615179 -0.01432425 49.58503639 0.00154884 55.99414825 0.02948856 C63.40379275 0.06154094 70.81291096 0.06152506 78.22259283 0.04427379 C85.35069979 0.02840945 92.47861382 0.03514159 99.60671234 0.05221081 C102.64016099 0.05908309 105.67345507 0.05804712 108.70690155 0.05066586 C112.27921709 0.04300398 115.85093379 0.05512482 119.4231472 0.08251476 C121.35939274 0.09268561 123.29571018 0.08321501 125.23195648 0.07318974 C126.3844136 0.08591419 127.53687073 0.09863865 128.72425079 0.1117487 C129.72565346 0.11455562 130.72705612 0.11736254 131.75880432 0.12025452 C135.12299354 0.77003406 136.31245462 1.93749164 138.37940216 4.62641239 C138.96271193 8.63666702 138.86634026 10.78791305 136.82106781 14.30983829 C133.60325743 17.36279363 131.02977641 17.32396612 126.81275177 17.25409794 C126.05620804 17.26136906 125.29966431 17.26864017 124.52019501 17.27613163 C122.0235681 17.29471008 119.52837324 17.27866442 117.03174591 17.26313114 C115.29585743 17.27117018 113.5599788 17.28168766 111.82411957 17.29457951 C107.25654219 17.32313994 102.68941847 17.32370097 98.12177277 17.31672001 C90.80725186 17.30939833 83.49287794 17.34068245 76.17847633 17.37916851 C73.62188751 17.38803528 71.06561389 17.38271054 68.50902557 17.37560368 C66.94490218 17.37898751 65.38077951 17.38273658 63.81665802 17.38691044 C62.74822662 17.37836788 62.74822662 17.37836788 61.65821075 17.36965275 C57.99905081 17.39166248 56.51421909 17.53653444 53.37940216 19.62641239 C47.82384661 19.07085684 47.82384661 19.07085684 46.37940216 17.62641239 C44.90180646 17.5299848 43.41971102 17.50125693 41.93897247 17.50043583 C40.99419037 17.49662907 40.04940826 17.4928223 39.0759964 17.48890018 C38.04690155 17.48787296 37.0178067 17.48684574 35.95752716 17.48578739 C33.79605831 17.46745688 31.63459969 17.44788635 29.47315216 17.42719364 C26.05175364 17.39822371 22.6310094 17.37641262 19.20948029 17.37592411 C15.91656633 17.3725912 12.6251768 17.33804262 9.33252716 17.29828739 C8.31152924 17.30535709 7.29053131 17.3124268 6.23859406 17.31971073 C1.47781826 17.23808255 -0.86827567 17.18884612 -4.7700119 14.2719202 C-6.62059784 11.62641239 -6.62059784 11.62641239 -7.18309784 8.62641239 C-6.35405554 4.20485347 -4.5461068 1.0866748 0 0 Z " fill="#DF1366" transform="translate(429.62059783935547,578.3735876083374)"/>
<path d="M0 0 C0.9307988 -0.00708481 1.8615976 -0.01416962 2.82060242 -0.02146912 C4.34178932 -0.01775299 4.34178932 -0.01775299 5.89370728 -0.01396179 C7.5040963 -0.02162819 7.5040963 -0.02162819 9.14701843 -0.02944946 C12.70017046 -0.04336282 16.25312888 -0.04238725 19.80630493 -0.04008484 C22.27486239 -0.04397101 24.74341918 -0.04830551 27.2119751 -0.05307007 C32.3886227 -0.06053619 37.56520212 -0.06023828 42.74185181 -0.05497742 C49.37534948 -0.0491845 56.00856779 -0.06610789 62.64201927 -0.08932209 C67.74124789 -0.10405539 72.84040918 -0.10493162 77.9396553 -0.10181236 C80.38527606 -0.10232585 82.83090056 -0.10756864 85.2765007 -0.11762428 C88.69726444 -0.12996218 92.11748348 -0.1232122 95.53823853 -0.11161804 C97.05335274 -0.12308365 97.05335274 -0.12308365 98.59907532 -0.13478088 C103.91416042 -0.09496869 107.78343099 0.19960492 112.34536743 3.26069641 C113.91237185 6.39470526 114.19701304 9.89224736 113.34536743 13.26069641 C109.39003707 17.24768915 106.6259328 17.76542851 101.09585571 17.79072571 C100.38460541 17.79945709 99.6733551 17.80818848 98.94055176 17.81718445 C96.59866875 17.84150082 94.2576729 17.8381526 91.91567993 17.83491516 C90.28048206 17.84736844 88.64529754 17.86170493 87.01013184 17.87783813 C82.70888514 17.91584618 78.40786841 17.931045 74.10647583 17.94062805 C67.22962553 17.96037173 60.35295036 18.01744548 53.47628403 18.06939125 C51.08172795 18.08465353 48.68725957 18.09191387 46.29266357 18.09753418 C44.81299806 18.10455665 43.33333291 18.11165805 41.85366821 18.11885071 C39.92770309 18.1240699 39.92770309 18.1240699 37.96282959 18.12939453 C34.29479634 18.19549811 34.29479634 18.19549811 30.50109863 18.83206177 C27.34536743 19.26069641 27.34536743 19.26069641 25.34536743 18.26069641 C22.99553196 18.15321299 20.64288566 18.10510514 18.29067993 18.08491516 C16.85707151 18.06171638 15.42347771 18.03759901 13.98989868 18.01264954 C11.7295453 17.97753868 9.46972984 17.94819262 7.20913696 17.93476868 C5.02732212 17.91927622 2.84707865 17.8790642 0.66567993 17.83491516 C-0.64126831 17.82033264 -1.94821655 17.80575012 -3.29476929 17.79072571 C-7.1676187 17.17977119 -8.34121837 16.36394507 -10.65463257 13.26069641 C-11.80159194 9.66689037 -11.97095557 7.99323389 -10.46713257 4.51069641 C-7.48369283 0.80711604 -4.66017724 0.01185363 0 0 Z " fill="#F41B67" transform="translate(350.6546325683594,537.7393035888672)"/>
<path d="M0 0 C0.93086929 -0.00571014 1.86173859 -0.01142029 2.82081604 -0.01730347 C4.34975243 -0.01898026 4.34975243 -0.01898026 5.90957642 -0.02069092 C7.52215584 -0.02813828 7.52215584 -0.02813828 9.16731262 -0.03573608 C12.73065832 -0.05036473 16.29395951 -0.05716056 19.85733032 -0.06268311 C22.32971193 -0.06843354 24.80209352 -0.07419128 27.2744751 -0.07995605 C32.46127531 -0.09046774 37.64806001 -0.09630946 42.83486938 -0.09979248 C49.48530921 -0.10528056 56.13547868 -0.12931465 62.78586388 -0.15776443 C67.89362185 -0.1763747 73.0013304 -0.18159554 78.10911942 -0.18312836 C80.56115462 -0.18615855 83.01318888 -0.19419933 85.46519089 -0.20731354 C88.89342628 -0.22434154 92.3211598 -0.22250158 95.74942017 -0.21600342 C97.27228386 -0.22982559 97.27228386 -0.22982559 98.82591248 -0.243927 C105.19236112 -0.20606754 108.82908454 0.51063362 113.45889282 5.14044189 C114.00228665 9.25470944 113.98876362 11.36453451 111.62185669 14.83047485 C106.98931291 18.21370144 103.01760336 17.84145462 97.41397095 17.78741455 C96.29961166 17.79617615 95.18525238 17.80493774 94.03712463 17.81396484 C90.35440103 17.83596732 86.67287859 17.82140158 82.99014282 17.80450439 C80.43093638 17.80787224 77.87173149 17.8127246 75.31253052 17.81900024 C69.9492014 17.82637281 64.58630257 17.81613025 59.22305298 17.79229736 C53.0283212 17.76508693 46.83441226 17.77390171 40.63970041 17.80142939 C34.67290319 17.82687983 28.70636095 17.82415255 22.73951721 17.80952072 C20.20375961 17.80618373 17.66798103 17.810284 15.13224792 17.82191849 C11.58886985 17.8346081 8.04707477 17.81527326 4.5038147 17.78741455 C3.45431137 17.79753571 2.40480804 17.80765686 1.32350159 17.81808472 C-3.45000139 17.74850556 -5.78173228 17.70674131 -9.69625854 14.7875061 C-11.54110718 12.14044189 -11.54110718 12.14044189 -12.10360718 9.14044189 C-11.41316861 5.45810286 -10.1729679 3.77230262 -7.54110718 1.14044189 C-4.70173459 0.19398436 -2.9430097 0.01081742 0 0 Z " fill="#FE515D" transform="translate(177.54110717773438,537.8595581054688)"/>
<path d="M0 0 C1.08655884 -0.00861557 2.17311768 -0.01723114 3.29260254 -0.02610779 C6.88801827 -0.04883029 10.4826586 -0.04201728 14.078125 -0.03295898 C16.5738956 -0.03819154 19.06966421 -0.04446666 21.56542969 -0.05174255 C26.79760032 -0.06215822 32.02956891 -0.05789643 37.26171875 -0.04296875 C43.30817771 -0.0260408 49.35391509 -0.04189103 55.40029526 -0.07419163 C61.22026582 -0.10410364 67.03995665 -0.1060734 72.85998535 -0.09669304 C75.33517394 -0.09587152 77.81037734 -0.10277296 80.28552246 -0.11746407 C83.74297043 -0.13483936 87.19886521 -0.12042413 90.65625 -0.09765625 C91.68286743 -0.10934845 92.70948486 -0.12104065 93.76721191 -0.13308716 C100.67539027 -0.04029922 100.67539027 -0.04029922 103.96386719 2.85023499 C105.75719443 6.37733788 105.89623668 8.62767949 105.328125 12.53344727 C103.96386719 14.71594238 103.96386719 14.71594238 101.328125 16.53344727 C97.77586177 17.14118429 94.25259012 17.0793897 90.65625 17.05102539 C89.56969116 17.05803467 88.48313232 17.06504395 87.36364746 17.07226562 C83.76821415 17.08988595 80.17356646 17.07820784 76.578125 17.06469727 C74.08235523 17.067391 71.58658648 17.07127243 69.09082031 17.07629395 C63.85864225 17.08219448 58.62666892 17.07398873 53.39453125 17.05493164 C47.34815488 17.03316295 41.30231804 17.04021451 35.25595474 17.06223726 C29.43599534 17.08258573 23.6162408 17.08042021 17.79626465 17.06871033 C15.32108485 17.06603882 12.84589131 17.06932763 10.37072754 17.07862854 C6.91344541 17.08876835 3.45720443 17.07332745 0 17.05102539 C-1.53992615 17.06317078 -1.53992615 17.06317078 -3.11096191 17.07556152 C-10.0378059 16.99263014 -10.0378059 16.99263014 -13.30566406 14.62609863 C-14.77865798 12.36988574 -15.21363874 11.20632687 -15.171875 8.53344727 C-15.18734375 7.54344727 -15.18734375 7.54344727 -15.203125 6.53344727 C-13.20367552 -0.99389195 -6.35870869 -0.04042028 0 0 Z " fill="#8D236D" transform="translate(437.671875,337.466552734375)"/>
<path d="M0 0 C0.64604187 -0.00700928 1.29208374 -0.01401855 1.95770264 -0.02124023 C4.08755834 -0.03880645 6.21607868 -0.02720288 8.34594727 -0.01367188 C9.83041132 -0.01636756 11.31487365 -0.02025062 12.79933167 -0.02526855 C15.90887277 -0.03116195 19.01795384 -0.02260766 22.12744141 -0.00390625 C26.10676749 0.01886412 30.08501328 0.00577258 34.06429958 -0.01819611 C37.12962427 -0.03267583 40.19469443 -0.02803797 43.26002693 -0.01768494 C44.72679841 -0.01502259 46.19359324 -0.01827013 47.66033745 -0.02760315 C49.71428139 -0.03780337 51.76649678 -0.02222274 53.8203125 0 C54.98739243 0.00318237 56.15447235 0.00636475 57.35691833 0.00964355 C61.13381028 0.62492703 62.79364217 1.83055376 65.47485352 4.51757812 C66.70125187 8.12012328 66.80079865 9.7627578 65.28735352 13.26757812 C63.34086054 15.68391423 62.32546034 16.4059183 59.47485352 17.51757812 C56.64990234 17.82055664 56.64990234 17.82055664 53.43188477 17.89648438 C51.69841797 17.94772461 51.69841797 17.94772461 49.92993164 18 C48.72788086 18.02642578 47.52583008 18.05285156 46.28735352 18.08007812 C43.8979231 18.13971871 41.50858658 18.20329787 39.11938477 18.27148438 C37.53154175 18.30737671 37.53154175 18.30737671 35.91162109 18.34399414 C33.52765055 18.24642249 33.52765055 18.24642249 32.47485352 19.51757812 C29.47485352 19.64257812 29.47485352 19.64257812 26.47485352 19.51757812 C26.14485352 19.18757813 25.81485352 18.85757812 25.47485352 18.51757812 C23.31570359 18.39544057 21.15285603 18.33777658 18.99047852 18.30664062 C17.64932082 18.27855583 16.30817516 18.24989127 14.96704102 18.22070312 C12.84953352 18.17954842 10.73224683 18.1426705 8.61450195 18.11621094 C6.57268496 18.08847666 4.53189534 18.04259069 2.49047852 17.99414062 C1.26619141 17.97432129 0.0419043 17.95450195 -1.21948242 17.93408203 C-4.79533734 17.48353487 -6.67143085 16.68112537 -9.52514648 14.51757812 C-11.52514648 11.51757812 -11.52514648 11.51757812 -11.40014648 8.08007812 C-9.76160015 1.40885377 -6.6001186 0.01800936 0 0 Z " fill="#A8266F" transform="translate(467.525146484375,417.482421875)"/>
<path d="M0 0 C0.96928185 -0.01073296 0.96928185 -0.01073296 1.95814514 -0.02168274 C4.0828538 -0.03851861 6.20543675 -0.01920191 8.33007812 0.00219727 C9.81311212 0.00136807 11.29614602 -0.00109322 12.7791748 -0.00511169 C15.88285076 -0.00796614 18.98580365 0.00669542 22.08935547 0.03417969 C26.06084262 0.06826316 30.03103733 0.06224164 34.00258636 0.04351711 C37.06364651 0.03293103 40.12440769 0.04189927 43.18544006 0.05690193 C44.64941011 0.06207249 46.11341152 0.06161561 47.57737732 0.05535698 C49.62648262 0.04988475 51.67375955 0.07033848 53.72265625 0.09765625 C54.88671997 0.10385483 56.05078369 0.11005341 57.25012207 0.11643982 C61.00789718 0.73806063 62.67629058 1.97697043 65.36132812 4.63110352 C66.50459348 7.60359343 66.47241227 9.16455012 65.73632812 12.25610352 C63.99007773 15.27235419 62.48401892 16.10515407 59.36132812 17.63110352 C56.3260498 18.01878357 56.3260498 18.01878357 52.90625 18.03515625 C50.97900085 18.05418251 50.97900085 18.05418251 49.01281738 18.07359314 C47.61856932 18.07154171 46.22432236 18.0685537 44.83007812 18.06469727 C43.39188389 18.06926131 41.95369183 18.07456755 40.51550293 18.08058167 C37.50617595 18.08950156 34.49711452 18.08710213 31.48779297 18.07714844 C27.63743882 18.06565181 23.78800085 18.08588527 19.93776703 18.11506557 C16.96940319 18.13343778 14.00125861 18.13313332 11.03285217 18.12742805 C9.61351739 18.12727501 8.19416759 18.13330587 6.77488708 18.14571953 C4.78877824 18.16064635 2.80251825 18.1473137 0.81640625 18.1328125 C-0.31212769 18.13264633 -1.44066162 18.13248016 -2.60339355 18.13230896 C-6.30802091 17.52057613 -7.96947623 16.21942873 -10.63867188 13.63110352 C-12.08298042 10.74248642 -12.01555693 8.8346265 -11.63867188 5.63110352 C-8.03565763 1.08611267 -5.74724812 0.00474844 0 0 Z " fill="#F31667" transform="translate(294.638671875,417.368896484375)"/>
<path d="M0 0 C0.65754776 -0.0071553 1.31509552 -0.01431061 1.99256897 -0.02168274 C4.15453703 -0.03851893 6.31441645 -0.01920355 8.47631836 0.00219727 C9.9841682 0.00136818 11.49201795 -0.00109272 12.99986267 -0.00511169 C16.15480868 -0.00796603 19.3090433 0.00669625 22.46386719 0.03417969 C26.50494758 0.06829237 30.54475881 0.06223177 34.58590031 0.04351711 C37.69753068 0.03294286 40.80886631 0.04188806 43.92046928 0.05690193 C45.41038576 0.06207919 46.90033307 0.06160745 48.39024544 0.05535698 C50.47307551 0.04989794 52.55409513 0.0702956 54.63671875 0.09765625 C56.41279259 0.10695412 56.41279259 0.10695412 58.2247467 0.11643982 C61.87206977 0.73618138 63.0317466 1.7267995 65.25366211 4.63110352 C66.42957185 8.3156207 66.58847549 9.91364626 64.94116211 13.44360352 C63.25366211 15.63110352 63.25366211 15.63110352 61.25366211 16.63110352 C59.09004523 16.74863591 56.92278783 16.80093226 54.75610352 16.82397461 C53.75580864 16.83624084 53.75580864 16.83624084 52.73530579 16.84875488 C50.52528788 16.87359706 48.31533409 16.8901206 46.10522461 16.90454102 C45.35080456 16.90986469 44.59638451 16.91518837 43.81910324 16.92067337 C39.82692226 16.94739826 35.8347725 16.96677629 31.8425293 16.98120117 C27.71732378 16.99785923 23.59291562 17.04264725 19.46801186 17.09357262 C16.29728263 17.12721009 13.12674363 17.13877455 9.95585251 17.14442825 C8.43516308 17.15114919 6.91448654 17.16639339 5.39397049 17.19031906 C3.26531986 17.22190606 1.13883275 17.22201917 -0.98999023 17.21459961 C-2.20085297 17.22268646 -3.4117157 17.23077332 -4.65927124 17.23910522 C-7.74633789 16.63110352 -7.74633789 16.63110352 -10.13345337 14.28213501 C-12.129819 11.0007915 -12.45435801 9.40721083 -11.74633789 5.63110352 C-8.09365178 1.05458536 -5.80407125 0.00471128 0 0 Z " fill="#FD2161" transform="translate(177.746337890625,337.368896484375)"/>
<path d="M0 0 C1.14491409 -0.00960754 2.28982819 -0.01921509 3.46943665 -0.02911377 C4.712108 -0.03336365 5.95477936 -0.03761353 7.23510742 -0.04199219 C9.14413094 -0.0505423 9.14413094 -0.0505423 11.09172058 -0.05926514 C13.78937356 -0.06872649 16.48691498 -0.07561733 19.18457031 -0.07910156 C22.63464051 -0.08457899 26.08431458 -0.10859039 29.53426075 -0.13707352 C32.83034623 -0.16022687 36.12645201 -0.16215173 39.42260742 -0.16699219 C41.27750542 -0.18551239 41.27750542 -0.18551239 43.1698761 -0.20440674 C44.32424667 -0.20140564 45.47861725 -0.19840454 46.66796875 -0.1953125 C47.68119705 -0.19895813 48.69442535 -0.20260376 49.73835754 -0.20635986 C52.99896726 0.22316381 54.87139317 1.25689876 57.52807617 3.16113281 C59.45671456 5.70342887 59.53709908 6.94458299 59.40307617 10.16113281 C58.37484262 13.68650498 57.38348348 14.88926892 54.52807617 17.16113281 C51.76490784 17.66906738 51.76490784 17.66906738 48.55371094 17.67871094 C46.74647301 17.6976239 46.74647301 17.6976239 44.90272522 17.71691895 C43.6047551 17.70882202 42.30678497 17.7007251 40.96948242 17.69238281 C39.6195396 17.69507894 38.26959867 17.69896238 36.91966248 17.70397949 C34.09257489 17.70987105 31.26599349 17.701325 28.43896484 17.68261719 C24.82280617 17.65984848 21.20783642 17.67293781 17.59172153 17.69690704 C14.80432759 17.7113937 12.0172133 17.7067458 9.22981071 17.69639587 C7.25065715 17.69244504 5.27149254 17.70455363 3.29237366 17.71691895 C1.48040749 17.69800598 1.48040749 17.69800598 -0.36816406 17.67871094 C-1.42865463 17.67552856 -2.4891452 17.67234619 -3.58177185 17.66906738 C-7.18134015 17.03645526 -8.87325058 15.68132122 -11.47192383 13.16113281 C-12.33493713 10.4166433 -12.10857563 7.95437089 -11.47192383 5.16113281 C-8.04479451 0.7058647 -5.43441539 0.03670823 0 0 Z " fill="#E5176A" transform="translate(219.471923828125,256.8388671875)"/>
<path d="M0 0 C3 0.125 3 0.125 4 1.125 C6.6903828 1.23572554 9.35942946 1.28662354 12.05078125 1.30078125 C13.71550738 1.32398362 15.38022096 1.34810113 17.04492188 1.37304688 C19.67838881 1.40815322 22.31139603 1.43749437 24.94506836 1.45092773 C27.48087789 1.46640596 30.01533023 1.50661915 32.55078125 1.55078125 C33.72910271 1.54791862 33.72910271 1.54791862 34.93122864 1.54499817 C38.53365045 1.62557908 40.59350482 1.81365469 43.49487305 4.03588867 C45.58292177 6.93409353 45.56886254 8.75540066 45.39453125 12.22265625 C44.78611893 15.15628795 43.38853486 16.41890367 41 18.125 C37.959927 19.13835767 35.87217344 19.26338845 32.68994141 19.28613281 C31.6051651 19.29574036 30.52038879 19.3053479 29.40274048 19.31524658 C28.23085175 19.31949646 27.05896301 19.32374634 25.8515625 19.328125 C24.64688324 19.33382507 23.44220398 19.33952515 22.20101929 19.34539795 C19.65062336 19.35485005 17.10021522 19.36138276 14.54980469 19.36523438 C10.64757002 19.37494384 6.7458611 19.40596779 2.84375 19.4375 C0.36719063 19.44402965 -2.10937251 19.44928027 -4.5859375 19.453125 C-6.33769791 19.4716452 -6.33769791 19.4716452 -8.12484741 19.49053955 C-9.21592804 19.48753845 -10.30700867 19.48453735 -11.43115234 19.48144531 C-12.38806976 19.48509094 -13.34498718 19.48873657 -14.3309021 19.49249268 C-17.54601812 19.04982192 -19.39180424 18.03247758 -22 16.125 C-24.0791019 13.00634716 -24.28159374 12.58760478 -23.875 9.125 C-23.81054688 8.444375 -23.74609375 7.76375 -23.6796875 7.0625 C-22.69581783 4.25790599 -21.62432189 3.51956719 -19 2.125 C-16.37418771 1.78090859 -13.94209467 1.5700558 -11.3125 1.5 C-7.21566421 1.34670399 -3.78412142 0.15767173 0 0 Z " fill="#822971" transform="translate(530,375.875)"/>
<path d="M0 0 C1.29063354 -0.00241196 2.58126709 -0.00482391 3.91101074 -0.00730896 C6.6380984 -0.01016184 9.36436241 0.00448161 12.09130859 0.03198242 C15.57857942 0.06606662 19.06437834 0.06004343 22.55171967 0.04131985 C25.88879153 0.02818122 29.22543838 0.04647296 32.5625 0.0625 C34.43609192 0.0550602 34.43609192 0.0550602 36.34753418 0.04747009 C37.51224243 0.06330643 38.67695068 0.07914276 39.87695312 0.09545898 C41.40987 0.10475685 41.40987 0.10475685 42.97375488 0.11424255 C46.51224852 0.76291126 48.21577402 2.15637629 50.78125 4.62890625 C51.64473046 7.37488139 51.41265713 9.83349466 50.78125 12.62890625 C48.57384319 15.59748782 47.29527627 16.45756416 43.78125 17.62890625 C42.01340222 17.7317081 40.24198045 17.7773827 38.47119141 17.79003906 C37.3864151 17.79964661 36.30163879 17.80925415 35.18399048 17.81915283 C34.01210175 17.82340271 32.84021301 17.82765259 31.6328125 17.83203125 C30.42813324 17.83773132 29.22345398 17.8434314 27.98226929 17.8493042 C25.43187336 17.8587563 22.88146522 17.86528901 20.33105469 17.86914062 C16.42882002 17.87885009 12.5271111 17.90987404 8.625 17.94140625 C6.14844063 17.9479359 3.67187749 17.95318652 1.1953125 17.95703125 C-0.55644791 17.97555145 -0.55644791 17.97555145 -2.34359741 17.9944458 C-3.43467804 17.9914447 -4.52575867 17.9884436 -5.64990234 17.98535156 C-6.60681976 17.98899719 -7.56373718 17.99264282 -8.5496521 17.99639893 C-11.76476812 17.55372817 -13.61055424 16.53638383 -16.21875 14.62890625 C-18.56424674 11.11066114 -18.79866403 9.77114931 -18.21875 5.62890625 C-13.85162373 -1.18940125 -7.45210975 -0.07910071 0 0 Z " fill="#D71B6D" transform="translate(351.21875,377.37109375)"/>
<path d="M0 0 C1.22807373 -0.0157608 2.45614746 -0.03152161 3.72143555 -0.04776001 C5.05778908 -0.03881016 6.39413443 -0.02855515 7.73046875 -0.01708984 C9.10522897 -0.02045956 10.47998629 -0.02531347 11.85473633 -0.03158569 C14.73319926 -0.03895002 17.61088534 -0.02826763 20.48925781 -0.00488281 C24.17523527 0.02360705 27.85939265 0.00720038 31.54530334 -0.02274513 C34.38331771 -0.0408314 37.22090198 -0.03505452 40.05892944 -0.02210617 C41.41767595 -0.01877571 42.77646177 -0.02284674 44.13516235 -0.03450394 C46.03541293 -0.04723033 47.93580079 -0.0243859 49.8359375 0 C51.45665161 0.00596695 51.45665161 0.00596695 53.11010742 0.01205444 C55.91796875 0.64697266 55.91796875 0.64697266 58.26293945 2.99990845 C60.31199221 6.27717624 60.63005565 7.84917588 59.91796875 11.64697266 C58.26777921 14.22254211 57.52975541 15.21669668 54.91796875 16.64697266 C50.44506107 17.41361731 46.00930029 17.34710073 41.48046875 17.31103516 C39.51122437 17.3182106 39.51122437 17.3182106 37.50219727 17.32553101 C34.72805248 17.33288752 31.95471473 17.32223852 29.18066406 17.29882812 C25.63267277 17.27033838 22.08657248 17.2867493 18.53865051 17.31669044 C15.14410679 17.33914971 11.75006614 17.32340424 8.35546875 17.31103516 C7.08453369 17.32115631 5.81359863 17.33127747 4.50415039 17.34170532 C-5.28528579 17.21147353 -5.28528579 17.21147353 -8.38671875 14.29296875 C-10.48489902 11.01818797 -10.79819923 9.4665352 -10.08203125 5.64697266 C-7.19181583 1.02434403 -5.41258396 0.0199274 0 0 Z " fill="#FE5F55" transform="translate(176.08203125,578.35302734375)"/>
<path d="M0 0 C1.63630371 -0.00361794 1.63630371 -0.00361794 3.30566406 -0.00730896 C5.60876099 -0.0063308 7.91188152 0.00705511 10.21484375 0.03198242 C13.7377926 0.06628738 17.25823252 0.05263877 20.78125 0.03320312 C23.020844 0.04010173 25.26043153 0.04977424 27.5 0.0625 C28.55219727 0.05754013 29.60439453 0.05258026 30.68847656 0.04747009 C35.17473716 0.11963299 37.97094064 0.1695495 41.890625 2.48071289 C44.3024362 5.26715286 44.75 6.9532998 44.75 10.62890625 C43.09288459 14.46643668 41.56515518 16.06558731 37.75 17.62890625 C35.65942383 17.93188477 35.65942383 17.93188477 33.45703125 18.0078125 C32.2649707 18.05905273 32.2649707 18.05905273 31.04882812 18.11132812 C30.22833984 18.13775391 29.40785156 18.16417969 28.5625 18.19140625 C23.23586969 17.89953225 23.23586969 17.89953225 18.75 19.62890625 C15.75 19.75390625 15.75 19.75390625 12.75 19.62890625 C12.42 19.29890625 12.09 18.96890625 11.75 18.62890625 C10.16361159 18.49584949 8.5718536 18.42555066 6.98046875 18.3828125 C6.00916016 18.34994141 5.03785156 18.31707031 4.03710938 18.28320312 C1.98252411 18.22235529 -0.07216847 18.16502231 -2.12695312 18.11132812 C-3.10212891 18.07716797 -4.07730469 18.04300781 -5.08203125 18.0078125 C-6.42358276 17.97022827 -6.42358276 17.97022827 -7.79223633 17.93188477 C-10.4192732 17.60803925 -12.03257433 17.06102496 -14.25 15.62890625 C-16.75031654 11.87843143 -16.78603554 10.07034359 -16.25 5.62890625 C-11.97891426 -0.66282832 -6.94722496 -0.08753849 0 0 Z " fill="#CF1F6E" transform="translate(402.25,417.37109375)"/>
<path d="M0 0 C1.63630371 -0.00361794 1.63630371 -0.00361794 3.30566406 -0.00730896 C5.60876099 -0.0063308 7.91188152 0.00705511 10.21484375 0.03198242 C13.7377926 0.06628738 17.25823252 0.05263877 20.78125 0.03320312 C23.020844 0.04010173 25.26043153 0.04977424 27.5 0.0625 C28.55219727 0.05754013 29.60439453 0.05258026 30.68847656 0.04747009 C35.21159499 0.12022586 37.97621075 0.16587382 41.91601562 2.5234375 C44.03957388 4.96134569 44.37966374 5.99843654 44.25 9.19140625 C44.2396875 9.95582031 44.229375 10.72023438 44.21875 11.5078125 C43.64349726 14.11083114 42.83835141 15.00846376 40.75 16.62890625 C37.88744799 17.58309025 36.05625372 17.76560422 33.08251953 17.79003906 C31.66557297 17.80445038 31.66557297 17.80445038 30.22000122 17.81915283 C29.20122894 17.82340271 28.18245667 17.82765259 27.1328125 17.83203125 C25.55885208 17.84058136 25.55885208 17.84058136 23.95309448 17.8493042 C21.73224903 17.85875311 19.51138956 17.86528775 17.29052734 17.86914062 C13.89525888 17.87884833 10.50059518 17.90987409 7.10546875 17.94140625 C4.94792026 17.9479362 2.79036744 17.9531867 0.6328125 17.95703125 C-0.88927322 17.97555145 -0.88927322 17.97555145 -2.44210815 17.9944458 C-11.33461128 17.96638156 -11.33461128 17.96638156 -15.25 14.62890625 C-16.81935594 11.49019437 -16.60201103 9.09034803 -16.25 5.62890625 C-11.99118362 -0.66735622 -6.94043543 -0.08745294 0 0 Z " fill="#FE2E63" transform="translate(229.25,417.37109375)"/>
<path d="M0 0 C0.85191422 -0.00191345 1.70382843 -0.0038269 2.58155823 -0.00579834 C4.38290706 -0.00715901 6.18426573 -0.00347081 7.9855957 0.00488281 C10.73997098 0.01557093 13.49369208 0.00499044 16.24804688 -0.0078125 C17.99869935 -0.00649063 19.74935143 -0.00392765 21.5 0 C22.32302109 -0.00404846 23.14604218 -0.00809692 23.9940033 -0.01226807 C31.21569658 0.04679583 31.21569658 0.04679583 34.31640625 2.265625 C36.61609188 5.48518488 36.86989263 8.39122032 36.31640625 12.265625 C34.32265507 14.96210396 32.72031391 16.93500501 29.3527832 17.72805786 C26.97246717 17.9108411 24.64097488 17.93250341 22.25390625 17.89453125 C20.95054321 17.89814919 20.95054321 17.89814919 19.62084961 17.90184021 C17.78852767 17.90086316 15.9561757 17.88750345 14.12402344 17.86254883 C11.32514814 17.82823218 8.52943075 17.84189772 5.73046875 17.86132812 C3.94660119 17.85442936 2.16274176 17.84475669 0.37890625 17.83203125 C-0.87128296 17.83947105 -0.87128296 17.83947105 -2.14672852 17.84706116 C-6.13560761 17.76652042 -8.21826305 17.55248565 -11.6875 15.41381836 C-14.25763767 12.64783972 -14.68359375 11.02561378 -14.68359375 7.265625 C-11.46939852 0.19439549 -7.12987704 -0.034986 0 0 Z " fill="#FE4161" transform="translate(240.68359375,497.734375)"/>
<path d="M0 0 C1.2367749 -0.00430527 1.2367749 -0.00430527 2.49853516 -0.00869751 C4.23666066 -0.01073322 5.97480933 -0.0052379 7.71289062 0.00732422 C10.36640879 0.0233855 13.01840395 0.00745941 15.671875 -0.01171875 C17.36458668 -0.00973623 19.05729742 -0.00589237 20.75 0 C21.93456787 -0.00910904 21.93456787 -0.00910904 23.14306641 -0.0184021 C27.71859123 0.03973302 30.74876161 0.53087398 34.375 3.3984375 C35.94435594 6.53714938 35.72701103 8.93699572 35.375 12.3984375 C33.38796827 15.13085402 31.80301643 17.06395696 28.41113281 17.85842896 C26.03060125 18.04389528 23.69998149 18.06532248 21.3125 18.02734375 C20.00913696 18.03096169 20.00913696 18.03096169 18.67944336 18.03465271 C16.84712142 18.03367566 15.01476945 18.02031595 13.18261719 17.99536133 C10.38374189 17.96104468 7.5880245 17.97471022 4.7890625 17.99414062 C3.00519494 17.98724186 1.22133551 17.97756919 -0.5625 17.96484375 C-1.81268921 17.97228355 -1.81268921 17.97228355 -3.08813477 17.97987366 C-7.09954173 17.89887806 -9.15583784 17.69215891 -12.6328125 15.51538086 C-14.9723429 13.0293431 -15.54208491 11.79795612 -15.625 8.3984375 C-14.86973199 5.22631185 -14.14099554 3.80771354 -11.578125 1.77490234 C-7.70809938 -0.028934 -4.18453077 -0.03217803 0 0 Z " fill="#E5186B" transform="translate(414.625,497.6015625)"/>
<path d="M0 0 C1.07667183 -0.00855011 1.07667183 -0.00855011 2.1750946 -0.01727295 C3.69573492 -0.02672452 5.21639574 -0.03325756 6.73706055 -0.03710938 C9.05489264 -0.04679425 11.37183 -0.0778058 13.68945312 -0.109375 C15.16796349 -0.11590737 16.6464802 -0.12115692 18.125 -0.125 C18.81475418 -0.1373468 19.50450836 -0.1496936 20.21516418 -0.16241455 C24.56904737 -0.14243077 27.29781831 0.53777508 30.76171875 3.203125 C32.33107469 6.34183688 32.11372978 8.74168322 31.76171875 12.203125 C29.82421875 15.078125 29.82421875 15.078125 26.76171875 17.203125 C24.42580984 17.64494315 22.22376088 17.82663964 19.84765625 17.8671875 C17.23714905 18.28760626 16.56751941 19.35774515 14.76171875 21.203125 C11.57421875 20.890625 11.57421875 20.890625 8.76171875 20.203125 C8.43171875 19.213125 8.10171875 18.223125 7.76171875 17.203125 C6.653125 17.24953125 5.54453125 17.2959375 4.40234375 17.34375 C2.93882907 17.38127602 1.47528519 17.41767529 0.01171875 17.453125 C-0.71789062 17.48664062 -1.4475 17.52015625 -2.19921875 17.5546875 C-5.74099037 17.61908335 -7.79572153 17.52799766 -10.69140625 15.40234375 C-12.89016941 12.27632441 -13.23828125 10.00705681 -13.23828125 6.203125 C-9.53263739 0.32520715 -6.53356005 0.0399048 0 0 Z " fill="#FE555C" transform="translate(179.23828125,497.796875)"/>
<path d="M0 0 C0.80469223 -0.00241196 1.60938446 -0.00482391 2.4384613 -0.00730896 C4.13374782 -0.00633247 5.829067 0.00701417 7.52416992 0.03198242 C10.11682434 0.06634966 12.70607882 0.05261987 15.29882812 0.03320312 C16.94923323 0.04010054 18.59962956 0.04977199 20.25 0.0625 C21.40949913 0.0550602 21.40949913 0.0550602 22.59242249 0.04747009 C26.16315594 0.12553885 28.17388374 0.33328062 31.04467773 2.53930664 C33.14389047 5.43676864 33.12770276 7.25440476 32.953125 10.7265625 C32.34471268 13.6601942 30.94712861 14.92280992 28.55859375 16.62890625 C23.24402404 18.40042949 17.50111763 17.85450914 11.93505859 17.86914062 C9.69851422 17.87884153 7.46289114 17.90987397 5.2265625 17.94140625 C3.79818252 17.94793741 2.36979599 17.95318744 0.94140625 17.95703125 C-0.35394043 17.96637695 -1.64928711 17.97572266 -2.98388672 17.98535156 C-6.68540924 17.6037513 -8.5166773 16.88235347 -11.44140625 14.62890625 C-13.78690299 11.11066114 -14.02132028 9.77114931 -13.44140625 5.62890625 C-9.57334164 0.49147799 -6.11979146 -0.10524006 0 0 Z " fill="#A62871" transform="translate(460.44140625,377.37109375)"/>
<path d="M0 0 C0.78012451 -0.00619858 1.56024902 -0.01239716 2.36401367 -0.01878357 C4.00796261 -0.02586495 5.65198351 -0.02273706 7.29589844 -0.01000977 C9.80538267 0.00386689 12.31114233 -0.03024478 14.8203125 -0.06835938 C16.42187591 -0.06931059 18.02344396 -0.06745162 19.625 -0.0625 C20.37096436 -0.07575821 21.11692871 -0.08901642 21.88549805 -0.10267639 C25.82788124 -0.03251428 27.64350617 0.43487881 30.7890625 2.88305664 C32.8125 5.56640625 32.8125 5.56640625 33.375 9.12890625 C32.73163721 13.06056776 31.96801602 14.22230864 28.8125 16.56640625 C23.51346105 18.33275257 17.79341395 17.79201257 12.24389648 17.80664062 C10.01833438 17.81632646 7.79370408 17.84735157 5.56835938 17.87890625 C4.14323462 17.88543897 2.71810329 17.89068839 1.29296875 17.89453125 C0.00285889 17.90387695 -1.28725098 17.91322266 -2.61645508 17.92285156 C-6.4828602 17.53692475 -8.89780949 16.60044953 -12.1875 14.56640625 C-13.75450442 11.4323974 -14.03914561 7.9348553 -13.1875 4.56640625 C-9.15098924 0.38409738 -5.56444097 -0.03699761 0 0 Z " fill="#F21869" transform="translate(287.1875,377.43359375)"/>
<path d="M0 0 C1.07030457 -0.00218285 1.07030457 -0.00218285 2.16223145 -0.00440979 C3.66499939 -0.00275598 5.16778517 0.00874734 6.67041016 0.02954102 C8.96199978 0.05850842 11.25127446 0.05013875 13.54296875 0.03710938 C15.00782367 0.04334744 16.47267133 0.05173893 17.9375 0.0625 C18.61784302 0.05956436 19.29818604 0.05662872 19.99914551 0.05360413 C24.3028138 0.13834664 27.03789631 0.87530274 30.46875 3.49609375 C32.08381633 6.72622641 32.03588963 10.0033436 31.46875 13.49609375 C29.40768829 16.36685827 27.66933843 17.2311653 24.23828125 17.98828125 C17.17708294 18.82380544 10.05741956 18.45354472 2.96875 18.18359375 C1.51674194 18.13199097 1.51674194 18.13199097 0.03540039 18.0793457 C-0.88378174 18.03511475 -1.80296387 17.99088379 -2.75 17.9453125 C-3.9865332 17.88863403 -3.9865332 17.88863403 -5.24804688 17.83081055 C-8.52200918 17.35084879 -10.79530802 16.44230487 -12.84375 13.80859375 C-13.87393246 10.34343457 -13.46120212 7.96791499 -12.53125 4.49609375 C-8.67950766 0.46014156 -5.35884416 -0.08848645 0 0 Z " fill="#F81D68" transform="translate(352.53125,497.50390625)"/>
<path d="M0 0 C0.69512695 -0.00241196 1.39025391 -0.00482391 2.10644531 -0.00730896 C3.57232381 -0.0063319 5.03823984 0.00702874 6.50390625 0.03198242 C8.74346659 0.06630612 10.97908126 0.05263786 13.21875 0.03320312 C14.64585007 0.04010192 16.07293999 0.04977464 17.5 0.0625 C19.44132812 0.0788147 19.44132812 0.0788147 21.421875 0.09545898 C25.25135864 0.70926633 26.44186931 1.57648187 28.75 4.62890625 C29.28125 6.62890625 29.28125 6.62890625 29.25 8.62890625 C29.2603125 9.28890625 29.270625 9.94890625 29.28125 10.62890625 C28.49202702 13.60009863 27.14703801 14.72408017 24.75 16.62890625 C21.52954102 17.16235352 21.52954102 17.16235352 17.75390625 17.1953125 C17.08334702 17.20151108 16.41278778 17.20770966 15.72190857 17.21409607 C14.3073776 17.22118153 12.89276301 17.21804222 11.47827148 17.20532227 C9.32183149 17.19146621 7.16974466 17.22551783 5.01367188 17.26367188 C3.63541561 17.26462332 2.25715395 17.2627629 0.87890625 17.2578125 C-0.36818115 17.2585376 -1.61526855 17.2592627 -2.90014648 17.26000977 C-7.13218976 16.46270404 -8.61485483 14.96848093 -11.25 11.62890625 C-11.95471913 7.8704042 -11.62787541 6.26143936 -9.66796875 2.98071289 C-6.40129588 -0.19657505 -4.50485999 -0.00252389 0 0 Z " fill="#FD1F63" transform="translate(177.25,297.37109375)"/>
<path d="M0 0 C44.88 0 89.76 0 136 0 C136 0.33 136 0.66 136 1 C135.02947189 1.00808685 134.05894379 1.01617371 133.05900574 1.02450562 C123.92109716 1.10192698 114.78333822 1.18965603 105.64562511 1.28752708 C100.94761812 1.33751324 96.24963386 1.38384304 91.55151367 1.421875 C87.01916832 1.45869856 82.48701216 1.50505044 77.95482826 1.55806351 C76.22407659 1.57662306 74.49328434 1.59172524 72.76247215 1.60334396 C70.34169435 1.62017982 67.92135134 1.64920792 65.50073242 1.68115234 C64.42287476 1.68439262 64.42287476 1.68439262 63.32324219 1.68769836 C59.66753062 1.74949234 58.1282354 1.91450973 55 4 C49.44444444 3.44444444 49.44444444 3.44444444 48 2 C46.49683231 1.8775669 44.98811833 1.82223715 43.48022461 1.79467773 C42.51930405 1.77473251 41.55838348 1.75478729 40.56834412 1.73423767 C39.523564 1.71752518 38.47878387 1.70081268 37.40234375 1.68359375 C36.33834854 1.66281265 35.27435333 1.64203156 34.17811584 1.62062073 C30.7646456 1.55500746 27.35109571 1.49618577 23.9375 1.4375 C21.62954891 1.39432597 19.321606 1.35071206 17.01367188 1.30664062 C11.34253318 1.19931416 5.67131448 1.09757008 0 1 C0 0.67 0 0.34 0 0 Z " fill="#D81E6E" transform="translate(428,594)"/>
<path d="M0 0 C37.95 0 75.9 0 115 0 C115 0.33 115 0.66 115 1 C113.63269997 1.0154612 113.63269997 1.0154612 112.23777771 1.03123474 C103.63095274 1.12937196 95.0241937 1.2319089 86.41747952 1.33933926 C81.99310631 1.39441108 77.56872633 1.44780509 73.14428711 1.49731445 C68.87133886 1.54519121 64.59846631 1.5975409 60.32560921 1.65294075 C58.69862831 1.67325916 57.07162675 1.69198887 55.44460869 1.70907402 C53.158879 1.73335253 50.87328929 1.76337258 48.58764648 1.79467773 C46.63905983 1.81799416 46.63905983 1.81799416 44.65110779 1.84178162 C40.95434102 1.93804456 40.95434102 1.93804456 37.15077209 2.57533264 C34 3 34 3 32 2 C29.59439727 1.84391977 27.21297228 1.74195542 24.8046875 1.68359375 C24.09724396 1.66281265 23.38980042 1.64203156 22.66091919 1.62062073 C20.39904575 1.55518922 18.13705538 1.49627026 15.875 1.4375 C14.34243578 1.39430867 12.80988343 1.35069418 11.27734375 1.30664062 C7.51834927 1.19951445 3.75923708 1.0982291 0 1 C0 0.67 0 0.34 0 0 Z " fill="#F12A73" transform="translate(344,554)"/>
<path d="M0 0 C0.65421936 -0.00073013 1.30843872 -0.00146027 1.98248291 -0.00221252 C4.13135542 0.00125358 6.27802299 0.04006031 8.42651367 0.0793457 C9.921512 0.08867751 11.41652568 0.09579189 12.9115448 0.1007843 C16.83611671 0.11982577 20.7597554 0.16890014 24.68395996 0.2243042 C28.69241716 0.27555935 32.70102597 0.2983116 36.7097168 0.32348633 C44.56756574 0.37702327 52.42465782 0.46229961 60.28198242 0.56762695 C60.28198242 0.89762695 60.28198242 1.22762695 60.28198242 1.56762695 C59.46401184 1.57127258 58.64604126 1.57491821 57.80328369 1.57867432 C50.09300314 1.61654788 42.38320611 1.67339257 34.67323685 1.75152969 C30.70946857 1.79103204 26.74592336 1.8232067 22.78198242 1.83862305 C18.95619424 1.85377192 15.13101916 1.8881847 11.30550385 1.93593597 C9.84633464 1.95076828 8.3870779 1.95866903 6.92783356 1.9595108 C4.88278413 1.9618769 2.83943412 1.98892178 0.79467773 2.02172852 C-0.95072296 2.03505219 -0.95072296 2.03505219 -2.73138428 2.04864502 C-6.34079648 2.67584613 -7.51379617 3.69410721 -9.71801758 6.56762695 C-10.51483076 9.20947236 -10.51483076 9.20947236 -10.71801758 11.56762695 C-11.04801758 11.56762695 -11.37801758 11.56762695 -11.71801758 11.56762695 C-12.17581102 7.63060336 -12.1123155 6.06932287 -9.61836243 2.89607239 C-6.09120677 0.06441274 -4.47136457 -0.04210324 0 0 Z " fill="#EE367B" transform="translate(294.718017578125,417.432373046875)"/>
<path d="M0 0 C0.65378128 -0.00014603 1.30756256 -0.00029205 1.9811554 -0.0004425 C4.14551086 0.00025504 6.30978063 0.00803999 8.47412109 0.01586914 C9.97341871 0.01773388 11.47271694 0.01915752 12.97201538 0.02015686 C16.92087482 0.0239776 20.86969756 0.03380411 24.81854248 0.04486084 C28.84695947 0.05508448 32.87538238 0.05965653 36.90380859 0.06469727 C44.81007545 0.07542677 52.71631246 0.09249789 60.62255859 0.11352539 C60.62255859 0.44352539 60.62255859 0.77352539 60.62255859 1.11352539 C59.80680862 1.11717102 58.99105865 1.12081665 58.15058899 1.12457275 C50.45533627 1.162471 42.76056669 1.21934386 35.06562519 1.29742813 C31.10973283 1.33690396 27.15406308 1.36909166 23.19799805 1.38452148 C19.37868956 1.39968779 15.55999309 1.4341317 11.74095726 1.48183441 C10.28540561 1.4966487 8.82976658 1.50456644 7.37413979 1.50540924 C5.33169265 1.50778075 3.29093442 1.53486937 1.2487793 1.56762695 C0.08739944 1.5765094 -1.07398041 1.58539185 -2.27055359 1.59454346 C-5.97732473 2.21373133 -7.67502382 3.56655231 -10.37744141 6.11352539 C-8.14654914 -0.10110308 -6.42736408 -0.01203626 0 0 Z " fill="#AA4582" transform="translate(467.37744140625,417.886474609375)"/>
<path d="M0 0 C3 0.125 3 0.125 4 1.125 C6.73701178 1.28510481 9.4516759 1.38446828 12.19140625 1.44140625 C13.42116432 1.4725779 13.42116432 1.4725779 14.67576599 1.50437927 C17.30458901 1.56996494 19.93351504 1.62880126 22.5625 1.6875 C24.34050561 1.73067667 26.11850065 1.77429067 27.89648438 1.81835938 C32.26421634 1.92565543 36.63205227 2.02689704 41 2.125 C41 2.455 41 2.785 41 3.125 C28.13 3.125 15.26 3.125 2 3.125 C2 2.465 2 1.805 2 1.125 C0.68 1.125 -0.64 1.125 -2 1.125 C-2 1.785 -2 2.445 -2 3.125 C-3.09699219 3.15078125 -4.19398438 3.1765625 -5.32421875 3.203125 C-6.77868448 3.2594269 -8.23311003 3.31677377 -9.6875 3.375 C-10.40873047 3.38917969 -11.12996094 3.40335937 -11.87304688 3.41796875 C-16.79627744 3.6427738 -19.35677155 4.53207253 -23 8.125 C-22.6875 6.25 -22.6875 6.25 -22 4.125 C-18.40431467 1.72787644 -15.54371239 1.72313647 -11.375 1.5625 C-7.26818721 1.3831132 -3.79577594 0.15815733 0 0 Z " fill="#83387A" transform="translate(530,375.875)"/>
<path d="M0 0 C7.135002 -0.02541608 14.26999227 -0.04289467 21.4050293 -0.05493164 C23.83081499 -0.05995129 26.25659766 -0.06676837 28.68237305 -0.07543945 C32.17497502 -0.0876088 35.66753689 -0.0932521 39.16015625 -0.09765625 C40.23959 -0.10281754 41.31902374 -0.10797882 42.4311676 -0.11329651 C47.73291906 -0.1136889 52.77769736 0.06548269 58 1 C56.875 2.5625 56.875 2.5625 55 4 C49.56521739 3.56521739 49.56521739 3.56521739 48 2 C46.49683231 1.8775669 44.98811833 1.82223715 43.48022461 1.79467773 C42.51930405 1.77473251 41.55838348 1.75478729 40.56834412 1.73423767 C39.523564 1.71752518 38.47878387 1.70081268 37.40234375 1.68359375 C36.33834854 1.66281265 35.27435333 1.64203156 34.17811584 1.62062073 C30.7646456 1.55500746 27.35109571 1.49618577 23.9375 1.4375 C21.62954891 1.39432597 19.321606 1.35071206 17.01367188 1.30664062 C11.34253318 1.19931416 5.67131448 1.09757008 0 1 C0 0.67 0 0.34 0 0 Z " fill="#F1327A" transform="translate(428,594)"/>
<path d="M0 0 C4.87467075 -0.02481234 9.74930432 -0.0429131 14.62402344 -0.05493164 C16.28060548 -0.05994473 17.93718313 -0.06675689 19.59375 -0.07543945 C21.98178189 -0.08763793 24.36975502 -0.09325867 26.7578125 -0.09765625 C27.49242706 -0.10281754 28.22704163 -0.10797882 28.98391724 -0.11329651 C33.09778822 -0.11374023 36.96450609 0.19789701 41 1 C40.34 1.66 39.68 2.32 39 3 C36.65787199 2.73544009 34.32473357 2.3888051 32 2 C29.44050173 1.8591916 26.87876249 1.75562786 24.31640625 1.68359375 C23.61603745 1.66281265 22.91566864 1.64203156 22.19407654 1.62062073 C19.98363894 1.55587535 17.77309515 1.49659392 15.5625 1.4375 C14.05272393 1.39424319 12.54295812 1.35062677 11.03320312 1.30664062 C7.35557804 1.20027252 3.67783709 1.09879998 0 1 C0 0.67 0 0.34 0 0 Z " fill="#FC4A7F" transform="translate(344,554)"/>
<path d="M0 0 C1.4540625 0.0309375 1.4540625 0.0309375 2.9375 0.0625 C3.2675 0.7225 3.5975 1.3825 3.9375 2.0625 C0.9675 1.5675 0.9675 1.5675 -2.0625 1.0625 C-2.0625 1.7225 -2.0625 2.3825 -2.0625 3.0625 C-3.15949219 3.08828125 -4.25648438 3.1140625 -5.38671875 3.140625 C-6.84118448 3.1969269 -8.29561003 3.25427377 -9.75 3.3125 C-10.47123047 3.32667969 -11.19246094 3.34085937 -11.93554688 3.35546875 C-16.85877744 3.5802738 -19.41927155 4.46957253 -23.0625 8.0625 C-22.75 6.1875 -22.75 6.1875 -22.0625 4.0625 C-18.46681467 1.66537644 -15.60621239 1.66063647 -11.4375 1.5 C-7.32758045 1.32047749 -3.7993629 0.07753802 0 0 Z " fill="#A0518B" transform="translate(530.0625,375.9375)"/>
<path d="M0 0 C1.03125 0.00322266 2.0625 0.00644531 3.125 0.00976562 C4.74535156 0.02233398 4.74535156 0.02233398 6.3984375 0.03515625 C8.03039062 0.04192383 8.03039062 0.04192383 9.6953125 0.04882812 C12.38807539 0.06063849 15.08072938 0.07710847 17.7734375 0.09765625 C17.7734375 0.42765625 17.7734375 0.75765625 17.7734375 1.09765625 C17.13317627 1.10700195 16.49291504 1.11634766 15.83325195 1.12597656 C12.91671375 1.17984472 10.00175125 1.26345824 7.0859375 1.34765625 C6.07853516 1.36183594 5.07113281 1.37601562 4.03320312 1.390625 C-2.03056905 1.57077683 -2.03056905 1.57077683 -7.43359375 4.14453125 C-8.02527344 4.7890625 -8.61695313 5.43359375 -9.2265625 6.09765625 C-7.19314936 0.43314822 -5.89985531 -0.03241679 0 0 Z " fill="#BC4483" transform="translate(466.2265625,417.90234375)"/>
<path d="M0 0 C0 0.33 0 0.66 0 1 C-0.67546875 1.02578125 -1.3509375 1.0515625 -2.046875 1.078125 C-7.63182761 1.3703425 -7.63182761 1.3703425 -12.5625 3.75 C-14.13364219 6.20917909 -14.67930438 8.1137394 -15 11 C-15.33 11 -15.66 11 -16 11 C-16.44359263 7.18510342 -16.26035293 5.41297361 -14.1875 2.125 C-9.56130904 -0.95912731 -5.40469637 -0.42593929 0 0 Z " fill="#F9447F" transform="translate(299,418)"/>
<path d="M0 0 C1.6396875 0.2475 1.6396875 0.2475 3.3125 0.5 C6.87525873 1.06718184 6.87525873 1.06718184 10 1 C8.875 2.5625 8.875 2.5625 7 4 C3.8125 3.6875 3.8125 3.6875 1 3 C0.67 2.01 0.34 1.02 0 0 Z " fill="#FF9DA0" transform="translate(187,515)"/>
<path d="M0 0 C0.66 0.33 1.32 0.66 2 1 C1.0409375 1.804375 1.0409375 1.804375 0.0625 2.625 C-2.38529404 5.44367193 -2.66714612 7.33860732 -3 11 C-3.33 11 -3.66 11 -4 11 C-4.49230769 4.6 -4.49230769 4.6 -2 1.5625 C-1.34 1.046875 -0.68 0.53125 0 0 Z " fill="#904A86" transform="translate(460,258)"/>
</svg>
