<?xml version="1.0" encoding="UTF-8"?>
<svg version="1.1" xmlns="http://www.w3.org/2000/svg" width="200" height="200">
<path d="M0 0 C1.31677734 0.16628906 1.31677734 0.16628906 2.66015625 0.3359375 C6.94290088 0.96268062 10.20250715 1.75750357 14.0625 3.6875 C17.66560056 4.92284876 19.74216084 4.50516649 23.25 3.375 C27.61238792 2.25135463 29.78046356 3.1776096 33.625 5.4375 C36.19140625 7.109375 36.19140625 7.109375 38.0625 8.6875 C38.0625 9.3475 38.0625 10.0075 38.0625 10.6875 C38.68898438 10.94144531 39.31546875 11.19539063 39.9609375 11.45703125 C40.77820313 11.80121094 41.59546875 12.14539062 42.4375 12.5 C43.24960938 12.83644531 44.06171875 13.17289063 44.8984375 13.51953125 C47.0625 14.6875 47.0625 14.6875 49.0625 17.6875 C50.38873651 18.36817536 51.72269511 19.03393664 53.0625 19.6875 C54.73828125 21.203125 54.73828125 21.203125 56.375 22.9375 C59.34042557 26.01204296 62.44691952 28.75412225 65.77734375 31.42578125 C66.41349609 32.05033203 66.41349609 32.05033203 67.0625 32.6875 C67.0625 33.3475 67.0625 34.0075 67.0625 34.6875 C63.4325 34.6875 59.8025 34.6875 56.0625 34.6875 C56.0625 34.0275 56.0625 33.3675 56.0625 32.6875 C55.0725 33.1825 55.0725 33.1825 54.0625 33.6875 C54.7225 34.6775 55.3825 35.6675 56.0625 36.6875 C56.7225 36.3575 57.3825 36.0275 58.0625 35.6875 C59.93629605 35.61716231 61.81251102 35.6031978 63.6875 35.625 C65.19183594 35.63853516 65.19183594 35.63853516 66.7265625 35.65234375 C67.88285156 35.66974609 67.88285156 35.66974609 69.0625 35.6875 C69.35253906 36.64462891 69.35253906 36.64462891 69.6484375 37.62109375 C69.90882813 38.44738281 70.16921875 39.27367187 70.4375 40.125 C70.69273437 40.94871094 70.94796875 41.77242187 71.2109375 42.62109375 C71.87132227 44.86548016 71.87132227 44.86548016 74.0625 45.6875 C75.02539216 47.99552334 75.88222192 50.26300702 76.6875 52.625 C76.91695312 53.27146484 77.14640625 53.91792969 77.3828125 54.58398438 C79.0625 59.39808873 79.0625 59.39808873 79.0625 61.6875 C79.7225 62.6775 80.3825 63.6675 81.0625 64.6875 C81.03106707 67.42740408 80.50771663 69.97167854 80.0625 72.6875 C80.3925 72.6875 80.7225 72.6875 81.0625 72.6875 C81.12987931 76.35592917 81.10120863 80.01878211 81.0625 83.6875 C81.08183594 84.81800781 81.10117188 85.94851562 81.12109375 87.11328125 C80.9534342 97.16167716 77.53378222 103.93526005 70.6171875 111.20703125 C70.10414063 111.69558594 69.59109375 112.18414062 69.0625 112.6875 C68.31226563 113.49058594 67.56203125 114.29367188 66.7890625 115.12109375 C59.3354778 122.13686043 48.84615004 126.90988579 39.0625 129.6875 C37.84949219 130.05875 36.63648438 130.43 35.38671875 130.8125 C24.22295974 133.86214404 13.17782012 134.03812121 1.6875 134 C0.5128418 133.99631409 0.5128418 133.99631409 -0.68554688 133.99255371 C-11.90345267 133.92967044 -21.29596702 132.39593311 -32.0625 129.3125 C-33.15949219 129.00828125 -34.25648437 128.7040625 -35.38671875 128.390625 C-36.96259766 127.93816406 -36.96259766 127.93816406 -38.5703125 127.4765625 C-39.52824707 127.20537598 -40.48618164 126.93418945 -41.47314453 126.65478516 C-44.01429916 125.65735553 -45.13718819 124.68022182 -46.9375 122.6875 C-48.59899857 122.00805557 -50.26657542 121.34342168 -51.9375 120.6875 C-65.12776898 112.99051495 -65.12776898 112.99051495 -67.0625 107.3125 C-67.495625 105.518125 -67.495625 105.518125 -67.9375 103.6875 C-68.90822412 102.65905715 -69.90949141 101.65868399 -70.9375 100.6875 C-74.04847683 95.13218424 -74.46166084 90.88728207 -72.9375 84.6875 C-72.40769531 83.67236328 -72.40769531 83.67236328 -71.8671875 82.63671875 C-70.20616777 79.15416057 -71.4447435 75.43053417 -72.4609375 71.8359375 C-73.7867738 65.85880665 -74.02297207 59.61333754 -71 54.25 C-69.9790625 52.9815625 -69.9790625 52.9815625 -68.9375 51.6875 C-68.59596063 50.02249557 -68.26300502 48.35571323 -67.9375 46.6875 C-66.32029254 43.35155637 -64.57554 40.32554 -61.9375 37.6875 C-61.48468226 36.38702953 -61.07165542 35.07238117 -60.6875 33.75 C-59.45884217 30.24227738 -59.10916944 29.79521416 -55.75 27.6875 C-54.821875 27.3575 -53.89375 27.0275 -52.9375 26.6875 C-53.2675 26.0275 -53.5975 25.3675 -53.9375 24.6875 C-43.1466496 15.70152493 -43.1466496 15.70152493 -39.375 13.3125 C-36.70833333 11.76041667 -36.70833333 11.76041667 -34.9375 8.6875 C-30.9831534 7.44470536 -27.05206153 7.60682232 -22.9375 7.6875 C-22.9375 6.6975 -22.9375 5.7075 -22.9375 4.6875 C-19.31777573 3.57942114 -16.01170103 2.69756116 -12.25 2.1875 C-9.06841133 1.90390836 -9.06841133 1.90390836 -7.0390625 0.63671875 C-4.4210521 -0.5457655 -2.8308607 -0.36203611 0 0 Z M-21.9375 5.6875 C-20.9475 7.1725 -20.9475 7.1725 -19.9375 8.6875 C-19.2775 8.3575 -18.6175 8.0275 -17.9375 7.6875 C-17.6075 8.6775 -17.2775 9.6675 -16.9375 10.6875 C-16.9375 9.3675 -16.9375 8.0475 -16.9375 6.6875 C-15.2875 7.0175 -13.6375 7.3475 -11.9375 7.6875 C-11.9375 7.3575 -11.9375 7.0275 -11.9375 6.6875 C-9.2975 6.3575 -6.6575 6.0275 -3.9375 5.6875 C-3.9375 5.3575 -3.9375 5.0275 -3.9375 4.6875 C-10.53140542 3.68760451 -15.55517125 3.67824836 -21.9375 5.6875 Z M-2.9375 3.6875 C-2.9375 4.0175 -2.9375 4.3475 -2.9375 4.6875 C0.3625 4.6875 3.6625 4.6875 7.0625 4.6875 C7.0625 4.3575 7.0625 4.0275 7.0625 3.6875 C3.7625 3.6875 0.4625 3.6875 -2.9375 3.6875 Z M-18.9375 11.6875 C-17.9375 14.6875 -17.9375 14.6875 -17.9375 14.6875 Z M0.0625 11.6875 C0.0625 12.6775 0.0625 13.6675 0.0625 14.6875 C1.3825 15.0175 2.7025 15.3475 4.0625 15.6875 C4.3925 14.3675 4.7225 13.0475 5.0625 11.6875 C3.4125 11.6875 1.7625 11.6875 0.0625 11.6875 Z M-19.9375 15.6875 C-18.9375 17.6875 -18.9375 17.6875 -18.9375 17.6875 Z M4.0625 16.6875 C5.0625 19.6875 5.0625 19.6875 5.0625 19.6875 Z M-41.9375 17.6875 C-42.72125 18.47125 -43.505 19.255 -44.3125 20.0625 C-45.85416667 21.60416667 -47.39583333 23.14583333 -48.9375 24.6875 C-47.9475 25.0175 -46.9575 25.3475 -45.9375 25.6875 C-45.9375 32.6175 -45.9375 39.5475 -45.9375 46.6875 C-43.9575 46.3575 -41.9775 46.0275 -39.9375 45.6875 C-40.9275 45.3575 -41.9175 45.0275 -42.9375 44.6875 C-43.2675 37.4275 -43.5975 30.1675 -43.9375 22.6875 C-42.6175 22.3575 -41.2975 22.0275 -39.9375 21.6875 C-40.5975 20.3675 -41.2575 19.0475 -41.9375 17.6875 Z M22.0625 17.6875 C26.0625 18.6875 26.0625 18.6875 26.0625 18.6875 Z M-20.9375 18.6875 C-19.9375 21.6875 -19.9375 21.6875 -19.9375 21.6875 Z M26.0625 19.6875 C27.0525 19.6875 28.0425 19.6875 29.0625 19.6875 C29.3925 20.3475 29.7225 21.0075 30.0625 21.6875 C30.7225 22.0175 31.3825 22.3475 32.0625 22.6875 C32.7225 22.0275 33.3825 21.3675 34.0625 20.6875 C34.0625 20.0275 34.0625 19.3675 34.0625 18.6875 C29.88439931 17.49818813 29.88439931 17.49818813 26.0625 19.6875 Z M49.0625 19.6875 C50.0625 21.6875 50.0625 21.6875 50.0625 21.6875 Z M5.0625 20.6875 C6.0625 24.6875 6.0625 24.6875 6.0625 24.6875 Z M50.0625 21.6875 C51.0625 23.6875 51.0625 23.6875 51.0625 23.6875 Z M-38.9375 22.6875 C-38.9375 23.0175 -38.9375 23.3475 -38.9375 23.6875 C-36.6275 23.6875 -34.3175 23.6875 -31.9375 23.6875 C-31.9375 23.3575 -31.9375 23.0275 -31.9375 22.6875 C-34.2475 22.6875 -36.5575 22.6875 -38.9375 22.6875 Z M-21.9375 22.6875 C-21.9375 23.3475 -21.9375 24.0075 -21.9375 24.6875 C-22.5975 24.6875 -23.2575 24.6875 -23.9375 24.6875 C-23.9375 25.3475 -23.9375 26.0075 -23.9375 26.6875 C-23.2775 26.6875 -22.6175 26.6875 -21.9375 26.6875 C-21.6075 28.0075 -21.2775 29.3275 -20.9375 30.6875 C-20.9375 29.0375 -20.9375 27.3875 -20.9375 25.6875 C-20.2775 25.6875 -19.6175 25.6875 -18.9375 25.6875 C-18.9375 25.0275 -18.9375 24.3675 -18.9375 23.6875 C-19.9275 23.3575 -20.9175 23.0275 -21.9375 22.6875 Z M32.0625 22.6875 C33.0625 26.6875 33.0625 26.6875 33.0625 26.6875 Z M-30.9375 23.6875 C-30.9375 24.0175 -30.9375 24.3475 -30.9375 24.6875 C-28.6275 24.6875 -26.3175 24.6875 -23.9375 24.6875 C-23.9375 24.3575 -23.9375 24.0275 -23.9375 23.6875 C-26.2475 23.6875 -28.5575 23.6875 -30.9375 23.6875 Z M51.0625 23.6875 C52.0625 25.6875 52.0625 25.6875 52.0625 25.6875 Z M6.0625 25.6875 C7.0625 29.6875 7.0625 29.6875 7.0625 29.6875 Z M52.0625 25.6875 C53.0625 27.6875 53.0625 27.6875 53.0625 27.6875 Z M33.0625 27.6875 C34.0625 30.6875 34.0625 30.6875 34.0625 30.6875 Z M53.0625 27.6875 C54.0625 29.6875 54.0625 29.6875 54.0625 29.6875 Z M54.0625 29.6875 C55.0625 31.6875 55.0625 31.6875 55.0625 31.6875 Z M7.0625 30.6875 C7.0625 31.3475 7.0625 32.0075 7.0625 32.6875 C6.0725 33.1825 6.0725 33.1825 5.0625 33.6875 C6.0525 34.0175 7.0425 34.3475 8.0625 34.6875 C8.0625 36.9975 8.0625 39.3075 8.0625 41.6875 C8.3925 41.6875 8.7225 41.6875 9.0625 41.6875 C9.3925 38.7175 9.7225 35.7475 10.0625 32.6875 C9.4025 32.6875 8.7425 32.6875 8.0625 32.6875 C7.7325 32.0275 7.4025 31.3675 7.0625 30.6875 Z M-20.9375 31.6875 C-20.9375 33.9975 -20.9375 36.3075 -20.9375 38.6875 C-20.6075 38.6875 -20.2775 38.6875 -19.9375 38.6875 C-19.9375 36.3775 -19.9375 34.0675 -19.9375 31.6875 C-20.2675 31.6875 -20.5975 31.6875 -20.9375 31.6875 Z M34.0625 31.6875 C35.0625 34.6875 35.0625 34.6875 35.0625 34.6875 Z M35.0625 35.6875 C36.0625 39.6875 36.0625 39.6875 36.0625 39.6875 Z M57.0625 38.6875 C57.0625 40.6675 57.0625 42.6475 57.0625 44.6875 C57.3925 44.6875 57.7225 44.6875 58.0625 44.6875 C58.0625 42.7075 58.0625 40.7275 58.0625 38.6875 C57.7325 38.6875 57.4025 38.6875 57.0625 38.6875 Z M-19.9375 39.6875 C-19.9375 41.9975 -19.9375 44.3075 -19.9375 46.6875 C-19.6075 46.6875 -19.2775 46.6875 -18.9375 46.6875 C-18.9375 44.3775 -18.9375 42.0675 -18.9375 39.6875 C-19.2675 39.6875 -19.5975 39.6875 -19.9375 39.6875 Z M36.0625 39.6875 C37.0625 43.6875 37.0625 43.6875 37.0625 43.6875 Z M9.0625 41.6875 C9.0625 43.6675 9.0625 45.6475 9.0625 47.6875 C9.3925 47.6875 9.7225 47.6875 10.0625 47.6875 C10.0625 45.7075 10.0625 43.7275 10.0625 41.6875 C9.7325 41.6875 9.4025 41.6875 9.0625 41.6875 Z M-63.9375 42.6875 C-65.4225 46.6475 -65.4225 46.6475 -66.9375 50.6875 C-66.2775 51.3475 -65.6175 52.0075 -64.9375 52.6875 C-64.2775 52.6875 -63.6175 52.6875 -62.9375 52.6875 C-63.2675 51.0375 -63.5975 49.3875 -63.9375 47.6875 C-63.2775 47.3575 -62.6175 47.0275 -61.9375 46.6875 C-62.2675 45.3675 -62.5975 44.0475 -62.9375 42.6875 C-63.2675 42.6875 -63.5975 42.6875 -63.9375 42.6875 Z M-53.9375 44.6875 C-53.9375 45.0175 -53.9375 45.3475 -53.9375 45.6875 C-51.6275 45.6875 -49.3175 45.6875 -46.9375 45.6875 C-46.9375 45.3575 -46.9375 45.0275 -46.9375 44.6875 C-49.2475 44.6875 -51.5575 44.6875 -53.9375 44.6875 Z M34.0625 44.6875 C34.3925 45.6775 34.7225 46.6675 35.0625 47.6875 C35.7225 47.6875 36.3825 47.6875 37.0625 47.6875 C37.0625 49.3375 37.0625 50.9875 37.0625 52.6875 C37.3925 52.6875 37.7225 52.6875 38.0625 52.6875 C38.7225 50.0475 39.3825 47.4075 40.0625 44.6875 C38.0825 44.6875 36.1025 44.6875 34.0625 44.6875 Z M-60.9375 45.6875 C-60.9375 46.0175 -60.9375 46.3475 -60.9375 46.6875 C-58.6275 46.6875 -56.3175 46.6875 -53.9375 46.6875 C-53.9375 46.3575 -53.9375 46.0275 -53.9375 45.6875 C-56.2475 45.6875 -58.5575 45.6875 -60.9375 45.6875 Z M58.0625 45.6875 C58.0625 47.6675 58.0625 49.6475 58.0625 51.6875 C58.3925 51.6875 58.7225 51.6875 59.0625 51.6875 C59.0625 49.7075 59.0625 47.7275 59.0625 45.6875 C58.7325 45.6875 58.4025 45.6875 58.0625 45.6875 Z M-43.9375 47.6875 C-43.9375 49.6675 -43.9375 51.6475 -43.9375 53.6875 C-43.6075 53.6875 -43.2775 53.6875 -42.9375 53.6875 C-42.9375 51.7075 -42.9375 49.7275 -42.9375 47.6875 C-43.2675 47.6875 -43.5975 47.6875 -43.9375 47.6875 Z M-18.9375 47.6875 C-19.2675 49.3375 -19.5975 50.9875 -19.9375 52.6875 C-18.9475 53.1825 -18.9475 53.1825 -17.9375 53.6875 C-15.82066159 52.79586423 -15.82066159 52.79586423 -13.9375 51.6875 C-14.576875 51.39875 -15.21625 51.11 -15.875 50.8125 C-17.9375 49.6875 -17.9375 49.6875 -18.9375 47.6875 Z M10.0625 48.6875 C10.0625 50.6675 10.0625 52.6475 10.0625 54.6875 C10.3925 54.6875 10.7225 54.6875 11.0625 54.6875 C11.0625 52.7075 11.0625 50.7275 11.0625 48.6875 C10.7325 48.6875 10.4025 48.6875 10.0625 48.6875 Z M72.0625 48.6875 C70.79985399 52.98049643 71.43299588 55.56581311 73.0625 59.6875 C74.33128594 58.0767395 74.33128594 58.0767395 75.0625 55.6875 C74.2671876 51.98577466 74.2671876 51.98577466 73.0625 48.6875 C72.7325 48.6875 72.4025 48.6875 72.0625 48.6875 Z M59.0625 52.6875 C59.0625 54.6675 59.0625 56.6475 59.0625 58.6875 C59.3925 58.6875 59.7225 58.6875 60.0625 58.6875 C60.0625 56.7075 60.0625 54.7275 60.0625 52.6875 C59.7325 52.6875 59.4025 52.6875 59.0625 52.6875 Z M-66.9375 53.6875 C-65.9375 56.6875 -65.9375 56.6875 -65.9375 56.6875 Z M-62.9375 53.6875 C-61.9375 57.6875 -61.9375 57.6875 -61.9375 57.6875 Z M38.0625 53.6875 C38.0625 57.9775 38.0625 62.2675 38.0625 66.6875 C38.3925 66.6875 38.7225 66.6875 39.0625 66.6875 C39.0625 62.3975 39.0625 58.1075 39.0625 53.6875 C38.7325 53.6875 38.4025 53.6875 38.0625 53.6875 Z M-42.9375 54.6875 C-42.9375 56.6675 -42.9375 58.6475 -42.9375 60.6875 C-42.6075 60.6875 -42.2775 60.6875 -41.9375 60.6875 C-41.9375 58.7075 -41.9375 56.7275 -41.9375 54.6875 C-42.2675 54.6875 -42.5975 54.6875 -42.9375 54.6875 Z M-17.9375 54.6875 C-17.9375 56.3375 -17.9375 57.9875 -17.9375 59.6875 C-17.6075 59.6875 -17.2775 59.6875 -16.9375 59.6875 C-16.9375 58.0375 -16.9375 56.3875 -16.9375 54.6875 C-17.2675 54.6875 -17.5975 54.6875 -17.9375 54.6875 Z M-52.9375 55.6875 C-51.9375 57.6875 -51.9375 57.6875 -51.9375 57.6875 Z M11.0625 55.6875 C11.0625 57.0075 11.0625 58.3275 11.0625 59.6875 C10.0725 60.0175 9.0825 60.3475 8.0625 60.6875 C8.7225 60.6875 9.3825 60.6875 10.0625 60.6875 C10.0625 61.3475 10.0625 62.0075 10.0625 62.6875 C11.7125 62.6875 13.3625 62.6875 15.0625 62.6875 C14.7325 61.6975 14.4025 60.7075 14.0625 59.6875 C13.4025 59.6875 12.7425 59.6875 12.0625 59.6875 C11.7325 58.3675 11.4025 57.0475 11.0625 55.6875 Z M-67.9375 57.6875 C-66.9375 61.6875 -66.9375 61.6875 -66.9375 61.6875 Z M-61.9375 58.6875 C-60.9375 61.6875 -60.9375 61.6875 -60.9375 61.6875 Z M-54.9375 58.6875 C-53.9375 60.6875 -53.9375 60.6875 -53.9375 60.6875 Z M60.0625 59.6875 C58.83069751 65.84651243 59.33219092 71.47425502 60.0625 77.6875 C60.3925 77.6875 60.7225 77.6875 61.0625 77.6875 C61.0625 74.3875 61.0625 71.0875 61.0625 67.6875 C61.7225 67.3575 62.3825 67.0275 63.0625 66.6875 C63.0625 65.6975 63.0625 64.7075 63.0625 63.6875 C62.4025 63.6875 61.7425 63.6875 61.0625 63.6875 C60.7325 62.3675 60.4025 61.0475 60.0625 59.6875 Z M-16.9375 60.6875 C-16.9375 62.3375 -16.9375 63.9875 -16.9375 65.6875 C-16.6075 65.6875 -16.2775 65.6875 -15.9375 65.6875 C-15.9375 64.0375 -15.9375 62.3875 -15.9375 60.6875 C-16.2675 60.6875 -16.5975 60.6875 -16.9375 60.6875 Z M74.0625 60.6875 C74.0625 63.6575 74.0625 66.6275 74.0625 69.6875 C74.3925 69.6875 74.7225 69.6875 75.0625 69.6875 C75.0625 66.7175 75.0625 63.7475 75.0625 60.6875 C74.7325 60.6875 74.4025 60.6875 74.0625 60.6875 Z M-68.9375 61.6875 C-67.9375 65.6875 -67.9375 65.6875 -67.9375 65.6875 Z M-56.9375 61.6875 C-55.9375 63.6875 -55.9375 63.6875 -55.9375 63.6875 Z M-41.9375 61.6875 C-41.9375 63.6675 -41.9375 65.6475 -41.9375 67.6875 C-41.6075 67.6875 -41.2775 67.6875 -40.9375 67.6875 C-40.9375 65.7075 -40.9375 63.7275 -40.9375 61.6875 C-41.2675 61.6875 -41.5975 61.6875 -41.9375 61.6875 Z M-60.9375 62.6875 C-60.916875 63.47125 -60.89625 64.255 -60.875 65.0625 C-60.9375 67.6875 -60.9375 67.6875 -61.9375 69.6875 C-61.2775 69.6875 -60.6175 69.6875 -59.9375 69.6875 C-59.9375 71.9975 -59.9375 74.3075 -59.9375 76.6875 C-59.6075 76.6875 -59.2775 76.6875 -58.9375 76.6875 C-58.9375 74.0475 -58.9375 71.4075 -58.9375 68.6875 C-58.2775 68.3575 -57.6175 68.0275 -56.9375 67.6875 C-57.90635372 66.00253702 -58.90736723 64.33571244 -59.9375 62.6875 C-60.2675 62.6875 -60.5975 62.6875 -60.9375 62.6875 Z M12.0625 63.6875 C12.0625 66.6575 12.0625 69.6275 12.0625 72.6875 C12.3925 72.6875 12.7225 72.6875 13.0625 72.6875 C13.0625 69.7175 13.0625 66.7475 13.0625 63.6875 C12.7325 63.6875 12.4025 63.6875 12.0625 63.6875 Z M-69.9375 65.6875 C-68.9375 69.6875 -68.9375 69.6875 -68.9375 69.6875 Z M-15.9375 66.6875 C-15.9375 68.3375 -15.9375 69.9875 -15.9375 71.6875 C-15.6075 71.6875 -15.2775 71.6875 -14.9375 71.6875 C-14.9375 70.0375 -14.9375 68.3875 -14.9375 66.6875 C-15.2675 66.6875 -15.5975 66.6875 -15.9375 66.6875 Z M39.0625 67.6875 C38.84098451 69.47758467 38.63567787 71.26968162 38.4375 73.0625 C38.32148438 74.06023437 38.20546875 75.05796875 38.0859375 76.0859375 C38.07820313 76.94445312 38.07046875 77.80296875 38.0625 78.6875 C38.7225 79.3475 39.3825 80.0075 40.0625 80.6875 C40.7225 80.0275 41.3825 79.3675 42.0625 78.6875 C41.7325 78.0275 41.4025 77.3675 41.0625 76.6875 C40.83782169 75.15081135 40.65453195 73.60781946 40.5 72.0625 C40.41621094 71.24523437 40.33242187 70.42796875 40.24609375 69.5859375 C40.18550781 68.95945312 40.12492187 68.33296875 40.0625 67.6875 C39.7325 67.6875 39.4025 67.6875 39.0625 67.6875 Z M-40.9375 68.6875 C-40.9375 70.3375 -40.9375 71.9875 -40.9375 73.6875 C-41.9275 74.1825 -41.9275 74.1825 -42.9375 74.6875 C-42.6075 75.3475 -42.2775 76.0075 -41.9375 76.6875 C-41.2775 76.6875 -40.6175 76.6875 -39.9375 76.6875 C-39.6075 77.3475 -39.2775 78.0075 -38.9375 78.6875 C-38.9375 77.6975 -38.9375 76.7075 -38.9375 75.6875 C-38.2775 75.3575 -37.6175 75.0275 -36.9375 74.6875 C-37.2675 74.0275 -37.5975 73.3675 -37.9375 72.6875 C-38.5975 72.6875 -39.2575 72.6875 -39.9375 72.6875 C-40.2675 71.3675 -40.5975 70.0475 -40.9375 68.6875 Z M-70.9375 69.6875 C-69.9375 73.6875 -69.9375 73.6875 -69.9375 73.6875 Z M75.0625 70.6875 C75.0625 73.3275 75.0625 75.9675 75.0625 78.6875 C75.3925 78.6875 75.7225 78.6875 76.0625 78.6875 C76.0625 76.0475 76.0625 73.4075 76.0625 70.6875 C75.7325 70.6875 75.4025 70.6875 75.0625 70.6875 Z M-14.9375 72.6875 C-14.9375 74.3375 -14.9375 75.9875 -14.9375 77.6875 C-14.6075 77.6875 -14.2775 77.6875 -13.9375 77.6875 C-13.9375 76.0375 -13.9375 74.3875 -13.9375 72.6875 C-14.2675 72.6875 -14.5975 72.6875 -14.9375 72.6875 Z M13.0625 73.6875 C13.0625 76.9875 13.0625 80.2875 13.0625 83.6875 C13.3925 83.6875 13.7225 83.6875 14.0625 83.6875 C14.0625 80.3875 14.0625 77.0875 14.0625 73.6875 C13.7325 73.6875 13.4025 73.6875 13.0625 73.6875 Z M78.0625 74.6875 C79.0625 77.6875 79.0625 77.6875 79.0625 77.6875 Z M-58.9375 77.6875 C-58.9375 80.9875 -58.9375 84.2875 -58.9375 87.6875 C-58.6075 87.6875 -58.2775 87.6875 -57.9375 87.6875 C-57.9375 84.3875 -57.9375 81.0875 -57.9375 77.6875 C-58.2675 77.6875 -58.5975 77.6875 -58.9375 77.6875 Z M-38.9375 78.6875 C-37.9375 82.6875 -37.9375 82.6875 -37.9375 82.6875 Z M-13.9375 78.6875 C-13.9375 79.6775 -13.9375 80.6675 -13.9375 81.6875 C-14.9275 82.1825 -14.9275 82.1825 -15.9375 82.6875 C-14.9475 83.6775 -13.9575 84.6675 -12.9375 85.6875 C-12.6075 85.0275 -12.2775 84.3675 -11.9375 83.6875 C-10.9475 83.3575 -9.9575 83.0275 -8.9375 82.6875 C-9.576875 82.39875 -10.21625 82.11 -10.875 81.8125 C-12.9375 80.6875 -12.9375 80.6875 -13.9375 78.6875 Z M59.0625 78.6875 C59.0625 82.6475 59.0625 86.6075 59.0625 90.6875 C59.3925 90.6875 59.7225 90.6875 60.0625 90.6875 C60.0625 86.7275 60.0625 82.7675 60.0625 78.6875 C59.7325 78.6875 59.4025 78.6875 59.0625 78.6875 Z M77.0625 78.6875 C76.7325 79.6775 76.4025 80.6675 76.0625 81.6875 C75.0725 82.1825 75.0725 82.1825 74.0625 82.6875 C74.0625 85.79301666 74.6018715 87.04011084 76.0625 89.6875 C76.7225 89.3575 77.3825 89.0275 78.0625 88.6875 C78.0625 85.3875 78.0625 82.0875 78.0625 78.6875 C77.7325 78.6875 77.4025 78.6875 77.0625 78.6875 Z M38.0625 80.6875 C39.0625 84.6875 39.0625 84.6875 39.0625 84.6875 Z M-37.9375 82.6875 C-36.9375 85.6875 -36.9375 85.6875 -36.9375 85.6875 Z M-8.9375 83.6875 C-4.9375 84.6875 -4.9375 84.6875 -4.9375 84.6875 Z M-4.9375 84.6875 C-0.9375 85.6875 -0.9375 85.6875 -0.9375 85.6875 Z M14.0625 84.6875 C14.0625 86.0075 14.0625 87.3275 14.0625 88.6875 C13.0725 89.1825 13.0725 89.1825 12.0625 89.6875 C12.7225 90.3475 13.3825 91.0075 14.0625 91.6875 C14.7225 91.3575 15.3825 91.0275 16.0625 90.6875 C15.7325 88.7075 15.4025 86.7275 15.0625 84.6875 C14.7325 84.6875 14.4025 84.6875 14.0625 84.6875 Z M-11.9375 85.6875 C-10.9375 87.6875 -10.9375 87.6875 -10.9375 87.6875 Z M-0.9375 85.6875 C3.0625 86.6875 3.0625 86.6875 3.0625 86.6875 Z M37.0625 85.6875 C38.0625 88.6875 38.0625 88.6875 38.0625 88.6875 Z M-70.9375 86.6875 C-69.9375 90.6875 -69.9375 90.6875 -69.9375 90.6875 Z M-36.9375 86.6875 C-35.9375 89.6875 -35.9375 89.6875 -35.9375 89.6875 Z M3.0625 86.6875 C7.0625 87.6875 7.0625 87.6875 7.0625 87.6875 Z M-57.9375 88.6875 C-57.9375 90.3375 -57.9375 91.9875 -57.9375 93.6875 C-58.9275 94.1825 -58.9275 94.1825 -59.9375 94.6875 C-58.6175 96.3375 -57.2975 97.9875 -55.9375 99.6875 C-55.9375 99.0275 -55.9375 98.3675 -55.9375 97.6875 C-55.2775 97.3575 -54.6175 97.0275 -53.9375 96.6875 C-54.5975 96.6875 -55.2575 96.6875 -55.9375 96.6875 C-56.2675 94.0475 -56.5975 91.4075 -56.9375 88.6875 C-57.2675 88.6875 -57.5975 88.6875 -57.9375 88.6875 Z M-10.9375 88.6875 C-9.9375 90.6875 -9.9375 90.6875 -9.9375 90.6875 Z M36.0625 89.6875 C37.0625 92.6875 37.0625 92.6875 37.0625 92.6875 Z M78.0625 89.6875 C79.0625 91.6875 79.0625 91.6875 79.0625 91.6875 Z M-35.9375 90.6875 C-34.9375 93.6875 -34.9375 93.6875 -34.9375 93.6875 Z M-9.9375 90.6875 C-8.9375 92.6875 -8.9375 92.6875 -8.9375 92.6875 Z M74.0625 90.6875 C75.0625 93.6875 75.0625 93.6875 75.0625 93.6875 Z M-69.9375 91.6875 C-68.9375 95.6875 -68.9375 95.6875 -68.9375 95.6875 Z M58.0625 92.6875 C57.7325 94.6675 57.4025 96.6475 57.0625 98.6875 C56.0725 99.0175 55.0825 99.3475 54.0625 99.6875 C55.0525 99.6875 56.0425 99.6875 57.0625 99.6875 C57.3925 100.3475 57.7225 101.0075 58.0625 101.6875 C58.0625 101.0275 58.0625 100.3675 58.0625 99.6875 C58.7225 99.3575 59.3825 99.0275 60.0625 98.6875 C60.3925 97.6975 60.7225 96.7075 61.0625 95.6875 C60.4025 95.6875 59.7425 95.6875 59.0625 95.6875 C58.7325 94.6975 58.4025 93.7075 58.0625 92.6875 Z M-8.9375 93.6875 C-7.9375 95.6875 -7.9375 95.6875 -7.9375 95.6875 Z M35.0625 93.6875 C36.0625 96.6875 36.0625 96.6875 36.0625 96.6875 Z M-34.9375 94.6875 C-33.9375 97.6875 -33.9375 97.6875 -33.9375 97.6875 Z M73.0625 94.6875 C74.0625 97.6875 74.0625 97.6875 74.0625 97.6875 Z M-7.9375 95.6875 C-6.9375 97.6875 -6.9375 97.6875 -6.9375 97.6875 Z M-68.9375 96.6875 C-67.9375 100.6875 -67.9375 100.6875 -67.9375 100.6875 Z M34.0625 97.6875 C35.0625 100.6875 35.0625 100.6875 35.0625 100.6875 Z M-33.9375 98.6875 C-32.9375 101.6875 -32.9375 101.6875 -32.9375 101.6875 Z M-6.9375 98.6875 C-5.9375 100.6875 -5.9375 100.6875 -5.9375 100.6875 Z M72.0625 98.6875 C73.0625 101.6875 73.0625 101.6875 73.0625 101.6875 Z M-55.9375 99.6875 C-54.9375 101.6875 -54.9375 101.6875 -54.9375 101.6875 Z M-5.9375 100.6875 C-4.9375 102.6875 -4.9375 102.6875 -4.9375 102.6875 Z M6.0625 100.6875 C7.0625 102.6875 7.0625 102.6875 7.0625 102.6875 Z M33.0625 101.6875 C34.0625 104.6875 34.0625 104.6875 34.0625 104.6875 Z M56.0625 101.6875 C57.0625 103.6875 57.0625 103.6875 57.0625 103.6875 Z M61.0625 101.6875 C62.0625 103.6875 62.0625 103.6875 62.0625 103.6875 Z M-54.9375 102.6875 C-53.9375 104.6875 -53.9375 104.6875 -53.9375 104.6875 Z M-32.9375 102.6875 C-32.9375 103.3475 -32.9375 104.0075 -32.9375 104.6875 C-33.9275 105.1825 -33.9275 105.1825 -34.9375 105.6875 C-34.2775 105.6875 -33.6175 105.6875 -32.9375 105.6875 C-32.9375 106.3475 -32.9375 107.0075 -32.9375 107.6875 C-31.6175 107.0275 -30.2975 106.3675 -28.9375 105.6875 C-30.2575 104.6975 -31.5775 103.7075 -32.9375 102.6875 Z M71.0625 102.6875 C72.0625 105.6875 72.0625 105.6875 72.0625 105.6875 Z M-62.9375 103.6875 C-61.9375 105.6875 -61.9375 105.6875 -61.9375 105.6875 Z M4.0625 103.6875 C5.0625 105.6875 5.0625 105.6875 5.0625 105.6875 Z M55.0625 103.6875 C56.0625 105.6875 56.0625 105.6875 56.0625 105.6875 Z M-53.9375 104.6875 C-52.9375 106.6875 -52.9375 106.6875 -52.9375 106.6875 Z M-3.9375 105.6875 C-2.9375 107.6875 -2.9375 107.6875 -2.9375 107.6875 Z M32.0625 105.6875 C32.0625 106.3475 32.0625 107.0075 32.0625 107.6875 C31.4025 107.6875 30.7425 107.6875 30.0625 107.6875 C30.0625 108.3475 30.0625 109.0075 30.0625 109.6875 C27.7525 109.6875 25.4425 109.6875 23.0625 109.6875 C23.0625 110.0175 23.0625 110.3475 23.0625 110.6875 C25.3725 110.6875 27.6825 110.6875 30.0625 110.6875 C30.3925 111.3475 30.7225 112.0075 31.0625 112.6875 C32.0525 111.6975 33.0425 110.7075 34.0625 109.6875 C33.4025 108.3675 32.7425 107.0475 32.0625 105.6875 Z M2.0625 106.6875 C3.0625 108.6875 3.0625 108.6875 3.0625 108.6875 Z M54.0625 106.6875 C55.0625 108.6875 55.0625 108.6875 55.0625 108.6875 Z M-30.9375 107.6875 C-29.9375 109.6875 -29.9375 109.6875 -29.9375 109.6875 Z M-23.9375 107.6875 C-19.9375 108.6875 -19.9375 108.6875 -19.9375 108.6875 Z M-2.9375 107.6875 C-1.9375 109.6875 -1.9375 109.6875 -1.9375 109.6875 Z M53.0625 108.6875 C54.0625 110.6875 54.0625 110.6875 54.0625 110.6875 Z M-51.9375 109.6875 C-50.9375 111.6875 -50.9375 111.6875 -50.9375 111.6875 Z M-29.9375 109.6875 C-28.9375 111.6875 -28.9375 111.6875 -28.9375 111.6875 Z M-14.9375 109.6875 C-10.9375 110.6875 -10.9375 110.6875 -10.9375 110.6875 Z M-9.9375 110.6875 C-5.9375 111.6875 -5.9375 111.6875 -5.9375 111.6875 Z M12.0625 110.6875 C12.0625 111.0175 12.0625 111.3475 12.0625 111.6875 C15.3625 111.6875 18.6625 111.6875 22.0625 111.6875 C22.0625 111.3575 22.0625 111.0275 22.0625 110.6875 C18.7625 110.6875 15.4625 110.6875 12.0625 110.6875 Z M0.0625 109.6875 C-1.9175 110.3475 -3.8975 111.0075 -5.9375 111.6875 C-2.27210332 114.06456418 0.55306835 113.73844317 4.8125 113.3125 C6.56820312 113.14621094 6.56820312 113.14621094 8.359375 112.9765625 C9.25140625 112.88117188 10.1434375 112.78578125 11.0625 112.6875 C11.0625 112.3575 11.0625 112.0275 11.0625 111.6875 C7.7625 111.6875 4.4625 111.6875 1.0625 111.6875 C0.7325 111.0275 0.4025 110.3675 0.0625 109.6875 Z M-37.9375 112.6875 C-36.9375 114.6875 -36.9375 114.6875 -36.9375 114.6875 Z M51.0625 113.6875 C52.0625 115.6875 52.0625 115.6875 52.0625 115.6875 Z M-49.9375 114.6875 C-48.9375 116.6875 -48.9375 116.6875 -48.9375 116.6875 Z M50.0625 115.6875 C51.0625 117.6875 51.0625 117.6875 51.0625 117.6875 Z M-48.9375 116.6875 C-47.9375 118.6875 -47.9375 118.6875 -47.9375 118.6875 Z M-25.9375 116.6875 C-24.9375 118.6875 -24.9375 118.6875 -24.9375 118.6875 Z M3.0625 117.6875 C4.0625 119.6875 4.0625 119.6875 4.0625 119.6875 Z M-24.9375 118.6875 C-23.9375 120.6875 -23.9375 120.6875 -23.9375 120.6875 Z M39.0625 118.6875 C40.0625 120.6875 40.0625 120.6875 40.0625 120.6875 Z M49.0625 118.6875 C50.0625 120.6875 50.0625 120.6875 50.0625 120.6875 Z M-47.9375 119.6875 C-46.9375 121.6875 -46.9375 121.6875 -46.9375 121.6875 Z M48.0625 120.6875 C49.0625 122.6875 49.0625 122.6875 49.0625 122.6875 Z M21.0625 124.6875 C22.0625 126.6875 22.0625 126.6875 22.0625 126.6875 Z M-20.9375 125.6875 C-19.9375 127.6875 -19.9375 127.6875 -19.9375 127.6875 Z M-19.9375 127.6875 C-18.9375 129.6875 -18.9375 129.6875 -18.9375 129.6875 Z M19.0625 127.6875 C20.0625 129.6875 20.0625 129.6875 20.0625 129.6875 Z M17.0625 130.6875 C18.0625 132.6875 18.0625 132.6875 18.0625 132.6875 Z " fill="#97E9BD" transform="translate(96.9375,32.3125)"/>
<path d="M0 0 C0.02903577 3.10414702 0.0468107 6.20825909 0.0625 9.3125 C0.07087891 10.19357422 0.07925781 11.07464844 0.08789062 11.98242188 C0.09272461 13.25375977 0.09272461 13.25375977 0.09765625 14.55078125 C0.10551147 15.72120972 0.10551147 15.72120972 0.11352539 16.9152832 C0 19 0 19 -1 22 C1.31 21.34 3.62 20.68 6 20 C6 20.66 6 21.32 6 22 C7.32 21.67 8.64 21.34 10 21 C10 21.66 10 22.32 10 23 C12.97851562 22.95117188 12.97851562 22.95117188 15.95703125 22.90234375 C18 23 18 23 21 24 C21 24.66 21 25.32 21 26 C21.969375 26.28875 22.93875 26.5775 23.9375 26.875 C27 28 27 28 28 30 C27.979375 31.155 27.95875 32.31 27.9375 33.5 C27.59587188 37.05878466 27.59587188 37.05878466 30 39 C29.96712417 41.72869407 29.43602229 44.2966618 29 47 C29.99 47.495 29.99 47.495 31 48 C30.67 49.65 30.34 51.3 30 53 C30.99 53.495 30.99 53.495 32 54 C31.34 55.32 30.68 56.64 30 58 C30.680625 58.5259375 30.680625 58.5259375 31.375 59.0625 C33.62974385 61.75084843 34.07046056 64.653658 35 68 C35.66 68.33 36.32 68.66 37 69 C37.8515625 71.14453125 37.8515625 71.14453125 38.625 73.8125 C39.01558594 75.12154297 39.01558594 75.12154297 39.4140625 76.45703125 C40 79 40 79 40 83 C40.66 83 41.32 83 42 83 C42.33 84.65 42.66 86.3 43 88 C43.99 88 44.98 88 46 88 C46.103125 88.5775 46.20625 89.155 46.3125 89.75 C46.88923893 92.09987947 46.88923893 92.09987947 48.5625 94.0625 C50 96 50 96 50 99 C50.61875 99.28875 51.2375 99.5775 51.875 99.875 C55.08678591 101.57535724 56.96714539 104.04312057 59 107 C59 107.66 59 108.32 59 109 C54.96151684 109.02481344 50.92306353 109.0429136 46.88452148 109.05493164 C45.51211778 109.05994454 44.13971938 109.06675658 42.76733398 109.07543945 C40.78892349 109.08763857 38.8104732 109.09272248 36.83203125 109.09765625 C35.04889526 109.10551147 35.04889526 109.10551147 33.22973633 109.11352539 C26.2147855 108.86694952 19.58340035 106.54622235 12.875 104.625 C11.77800781 104.32078125 10.68101563 104.0165625 9.55078125 103.703125 C8.50019531 103.40148437 7.44960938 103.09984375 6.3671875 102.7890625 C5.40925293 102.51787598 4.45131836 102.24668945 3.46435547 101.96728516 C0.92320084 100.96985553 -0.19968819 99.99272182 -2 98 C-3.66149857 97.32055557 -5.32907542 96.65592168 -7 96 C-20.19026898 88.30301495 -20.19026898 88.30301495 -22.125 82.625 C-22.558125 80.830625 -22.558125 80.830625 -23 79 C-23.97072412 77.97155715 -24.97199141 76.97118399 -26 76 C-29.11097683 70.44468424 -29.52416084 66.19978207 -28 60 C-27.47019531 58.98486328 -27.47019531 58.98486328 -26.9296875 57.94921875 C-25.26866777 54.46666057 -26.5072435 50.74303417 -27.5234375 47.1484375 C-28.8492738 41.17130665 -29.08547207 34.92583754 -26.0625 29.5625 C-25.381875 28.716875 -24.70125 27.87125 -24 27 C-23.65846063 25.33499557 -23.32550502 23.66821323 -23 22 C-21.38279254 18.66405637 -19.63804 15.63804 -17 13 C-16.505 11.1128125 -16.505 11.1128125 -16 9.1875 C-14.60211587 5.21113531 -12.78000572 3.90515344 -9.0625 2 C-5.60192117 0.41324892 -3.91117702 0 0 0 Z M-19 18 C-20.485 21.96 -20.485 21.96 -22 26 C-21.34 26.66 -20.68 27.32 -20 28 C-19.34 28 -18.68 28 -18 28 C-18.33 26.35 -18.66 24.7 -19 23 C-18.34 22.67 -17.68 22.34 -17 22 C-17.33 20.68 -17.66 19.36 -18 18 C-18.33 18 -18.66 18 -19 18 Z M-9 20 C-9 20.33 -9 20.66 -9 21 C-6.69 21 -4.38 21 -2 21 C-2 20.67 -2 20.34 -2 20 C-4.31 20 -6.62 20 -9 20 Z M-16 21 C-16 21.33 -16 21.66 -16 22 C-13.69 22 -11.38 22 -9 22 C-9 21.67 -9 21.34 -9 21 C-11.31 21 -13.62 21 -16 21 Z M1 23 C1 24.98 1 26.96 1 29 C1.33 29 1.66 29 2 29 C2 27.02 2 25.04 2 23 C1.67 23 1.34 23 1 23 Z M-22 29 C-21 32 -21 32 -21 32 Z M-18 29 C-17 33 -17 33 -17 33 Z M2 30 C2 31.98 2 33.96 2 36 C2.33 36 2.66 36 3 36 C3 34.02 3 32.04 3 30 C2.67 30 2.34 30 2 30 Z M-8 31 C-7 33 -7 33 -7 33 Z M-23 33 C-22 37 -22 37 -22 37 Z M-17 34 C-16 37 -16 37 -16 37 Z M-10 34 C-9 36 -9 36 -9 36 Z M-24 37 C-23 41 -23 41 -23 41 Z M-12 37 C-11 39 -11 39 -11 39 Z M3 37 C3 38.98 3 40.96 3 43 C3.33 43 3.66 43 4 43 C4 41.02 4 39.04 4 37 C3.67 37 3.34 37 3 37 Z M-16 38 C-15.979375 38.78375 -15.95875 39.5675 -15.9375 40.375 C-16 43 -16 43 -17 45 C-16.34 45 -15.68 45 -15 45 C-15 47.31 -15 49.62 -15 52 C-14.67 52 -14.34 52 -14 52 C-14 49.36 -14 46.72 -14 44 C-13.34 43.67 -12.68 43.34 -12 43 C-12.96885372 41.31503702 -13.96986723 39.64821244 -15 38 C-15.33 38 -15.66 38 -16 38 Z M-25 41 C-24 45 -24 45 -24 45 Z M4 44 C4 45.65 4 47.3 4 49 C3.01 49.495 3.01 49.495 2 50 C2.33 50.66 2.66 51.32 3 52 C3.66 52 4.32 52 5 52 C5.33 52.66 5.66 53.32 6 54 C6 53.01 6 52.02 6 51 C6.66 50.67 7.32 50.34 8 50 C7.67 49.34 7.34 48.68 7 48 C6.34 48 5.68 48 5 48 C4.67 46.68 4.34 45.36 4 44 Z M-26 45 C-25 49 -25 49 -25 49 Z M-14 53 C-14 56.3 -14 59.6 -14 63 C-13.67 63 -13.34 63 -13 63 C-13 59.7 -13 56.4 -13 53 C-13.33 53 -13.66 53 -14 53 Z M6 54 C7 58 7 58 7 58 Z M7 58 C8 61 8 61 8 61 Z M-26 62 C-25 66 -25 66 -25 66 Z M8 62 C9 65 9 65 9 65 Z M-13 64 C-13 65.65 -13 67.3 -13 69 C-13.99 69.495 -13.99 69.495 -15 70 C-13.68 71.65 -12.36 73.3 -11 75 C-11 74.34 -11 73.68 -11 73 C-10.34 72.67 -9.68 72.34 -9 72 C-9.66 72 -10.32 72 -11 72 C-11.33 69.36 -11.66 66.72 -12 64 C-12.33 64 -12.66 64 -13 64 Z M9 66 C10 69 10 69 10 69 Z M-25 67 C-24 71 -24 71 -24 71 Z M10 70 C11 73 11 73 11 73 Z M-24 72 C-23 76 -23 76 -23 76 Z M11 74 C12 77 12 77 12 77 Z M-11 75 C-10 77 -10 77 -10 77 Z M-10 78 C-9 80 -9 80 -9 80 Z M12 78 C12 78.66 12 79.32 12 80 C11.01 80.495 11.01 80.495 10 81 C10.66 81 11.32 81 12 81 C12 81.66 12 82.32 12 83 C13.32 82.34 14.64 81.68 16 81 C14.68 80.01 13.36 79.02 12 78 Z M-18 79 C-17 81 -17 81 -17 81 Z M-9 80 C-8 82 -8 82 -8 82 Z M14 83 C15 85 15 85 15 85 Z M21 83 C25 84 25 84 25 84 Z M-7 85 C-6 87 -6 87 -6 87 Z M15 85 C16 87 16 87 16 87 Z M30 85 C34 86 34 86 34 86 Z M35 86 C39 87 39 87 39 87 Z M7 88 C8 90 8 90 8 90 Z M-5 90 C-4 92 -4 92 -4 92 Z M-4 92 C-3 94 -3 94 -3 94 Z M19 92 C20 94 20 94 20 94 Z M20 94 C21 96 21 96 21 96 Z M-3 95 C-2 97 -2 97 -2 97 Z M24 101 C25 103 25 103 25 103 Z M25 103 C26 105 26 105 26 105 Z " fill="#7CE5C3" transform="translate(52,57)"/>
<path d="M0 0 C2.79115045 1.49209164 5.52097635 3.02539307 8 5 C8 5.66 8 6.32 8 7 C8.62648437 7.25394531 9.25296875 7.50789063 9.8984375 7.76953125 C10.71570313 8.11371094 11.53296875 8.45789062 12.375 8.8125 C13.59316406 9.31716797 13.59316406 9.31716797 14.8359375 9.83203125 C17 11 17 11 19 14 C20.32623651 14.68067536 21.66019511 15.34643664 23 16 C24.67578125 17.515625 24.67578125 17.515625 26.3125 19.25 C29.27792557 22.32454296 32.38441952 25.06662225 35.71484375 27.73828125 C36.35099609 28.36283203 36.35099609 28.36283203 37 29 C37 29.66 37 30.32 37 31 C33.37 31 29.74 31 26 31 C26 30.34 26 29.68 26 29 C25.01 29.495 25.01 29.495 24 30 C24.66 30.99 25.32 31.98 26 33 C26.66 32.67 27.32 32.34 28 32 C29.87379605 31.92966231 31.75001102 31.9156978 33.625 31.9375 C35.12933594 31.95103516 35.12933594 31.95103516 36.6640625 31.96484375 C37.43492187 31.97644531 38.20578125 31.98804688 39 32 C39.29003906 32.95712891 39.29003906 32.95712891 39.5859375 33.93359375 C39.84632813 34.75988281 40.10671875 35.58617187 40.375 36.4375 C40.63023437 37.26121094 40.88546875 38.08492187 41.1484375 38.93359375 C41.80882227 41.17798016 41.80882227 41.17798016 44 42 C44.96289216 44.30802334 45.81972192 46.57550702 46.625 48.9375 C46.85445313 49.58396484 47.08390625 50.23042969 47.3203125 50.89648438 C49 55.71058873 49 55.71058873 49 58 C49.66 58.99 50.32 59.98 51 61 C50.96856707 63.73990408 50.44521663 66.28417854 50 69 C50.33 69 50.66 69 51 69 C51.06737931 72.66842917 51.03870863 76.33128211 51 80 C51.01933594 81.13050781 51.03867188 82.26101562 51.05859375 83.42578125 C50.90174487 92.82625749 48.16174606 98.90084545 42 106 C39.73828125 107.83203125 39.73828125 107.83203125 38 109 C36.79444991 107.28336882 35.61112276 105.55111532 34.4375 103.8125 C33.77621094 102.84957031 33.11492187 101.88664062 32.43359375 100.89453125 C30.79739326 97.59092209 30.91474764 96.43366729 32 93 C32 92.34 32 91.68 32 91 C31.30261719 91.28359375 30.60523438 91.5671875 29.88671875 91.859375 C27 92 27 92 23.95703125 89.578125 C22.89320286 88.48374973 21.84543125 87.37358405 20.8125 86.25 C20.27947266 85.69828125 19.74644531 85.1465625 19.19726562 84.578125 C16.88424579 82.15745518 14.86020699 79.79031049 13 77 C13.375 74.3125 13.375 74.3125 14 72 C12.68 72 11.36 72 10 72 C9.67 67.71 9.34 63.42 9 59 C8.67 62.96 8.34 66.92 8 71 C2.07643376 69.81528675 -2.02541321 67.4551653 -7.1875 64.4375 C-8.10208984 63.93669922 -9.01667969 63.43589844 -9.95898438 62.91992188 C-16.40995521 59.14455666 -16.40995521 59.14455666 -18.01757812 56.02612305 C-18.53708123 53.99952986 -18.8152843 52.08179589 -19 50 C-19.20882812 48.95714844 -19.41765625 47.91429687 -19.6328125 46.83984375 C-21.98492462 32.96984925 -21.98492462 32.96984925 -20 29 C-20.66 29 -21.32 29 -22 29 C-22.50509208 26.75113762 -23.00389179 24.50086131 -23.5 22.25 C-23.7784375 20.99703125 -24.056875 19.7440625 -24.34375 18.453125 C-25 15 -25 15 -25 11 C-24.01 10.67 -23.02 10.34 -22 10 C-21.31379969 8.67661368 -20.65213539 7.34050052 -20 6 C-18.40283189 3.93277924 -16.70863672 1.97842146 -15 0 C-14.46375 0.20625 -13.9275 0.4125 -13.375 0.625 C-10.86851184 1.20980297 -10.86851184 1.20980297 -8.0625 0 C-4.58863816 -1.13432223 -3.40841015 -1.21728934 0 0 Z M-8 14 C-4 15 -4 15 -4 15 Z M-4 16 C-3.01 16 -2.02 16 -1 16 C-0.67 16.66 -0.34 17.32 0 18 C0.66 18.33 1.32 18.66 2 19 C2.66 18.34 3.32 17.68 4 17 C4 16.34 4 15.68 4 15 C-0.17810069 13.81068813 -0.17810069 13.81068813 -4 16 Z M19 16 C20 18 20 18 20 18 Z M20 18 C21 20 21 20 21 20 Z M2 19 C3 23 3 23 3 23 Z M21 20 C22 22 22 22 22 22 Z M22 22 C23 24 23 24 23 24 Z M3 24 C4 27 4 27 4 27 Z M23 24 C24 26 24 26 24 26 Z M24 26 C25 28 25 28 25 28 Z M4 28 C5 31 5 31 5 31 Z M5 32 C6 36 6 36 6 36 Z M27 35 C27 36.98 27 38.96 27 41 C27.33 41 27.66 41 28 41 C28 39.02 28 37.04 28 35 C27.67 35 27.34 35 27 35 Z M6 36 C7 40 7 40 7 40 Z M4 41 C4.33 41.99 4.66 42.98 5 44 C5.66 44 6.32 44 7 44 C7 45.65 7 47.3 7 49 C7.33 49 7.66 49 8 49 C8.66 46.36 9.32 43.72 10 41 C8.02 41 6.04 41 4 41 Z M28 42 C28 43.98 28 45.96 28 48 C28.33 48 28.66 48 29 48 C29 46.02 29 44.04 29 42 C28.67 42 28.34 42 28 42 Z M42 45 C40.73735399 49.29299643 41.37049588 51.87831311 43 56 C44.26878594 54.3892395 44.26878594 54.3892395 45 52 C44.2046876 48.29827466 44.2046876 48.29827466 43 45 C42.67 45 42.34 45 42 45 Z M29 49 C29 50.98 29 52.96 29 55 C29.33 55 29.66 55 30 55 C30 53.02 30 51.04 30 49 C29.67 49 29.34 49 29 49 Z M30 56 C28.76819751 62.15901243 29.26969092 67.78675502 30 74 C30.33 74 30.66 74 31 74 C31 70.7 31 67.4 31 64 C31.66 63.67 32.32 63.34 33 63 C33 62.01 33 61.02 33 60 C32.34 60 31.68 60 31 60 C30.67 58.68 30.34 57.36 30 56 Z M44 57 C44 59.97 44 62.94 44 66 C44.33 66 44.66 66 45 66 C45 63.03 45 60.06 45 57 C44.67 57 44.34 57 44 57 Z M45 67 C45 69.64 45 72.28 45 75 C45.33 75 45.66 75 46 75 C46 72.36 46 69.72 46 67 C45.67 67 45.34 67 45 67 Z M48 71 C49 74 49 74 49 74 Z M29 75 C29 78.96 29 82.92 29 87 C29.33 87 29.66 87 30 87 C30 83.04 30 79.08 30 75 C29.67 75 29.34 75 29 75 Z M47 75 C46.67 75.99 46.34 76.98 46 78 C45.01 78.495 45.01 78.495 44 79 C44 82.10551666 44.5393715 83.35261084 46 86 C46.66 85.67 47.32 85.34 48 85 C48 81.7 48 78.4 48 75 C47.67 75 47.34 75 47 75 Z M48 86 C49 88 49 88 49 88 Z M44 87 C45 90 45 90 45 90 Z M43 91 C44 94 44 94 44 94 Z M42 95 C43 98 43 98 43 98 Z M41 99 C42 102 42 102 42 102 Z " fill="#B9EEB4" transform="translate(127,36)"/>
<path d="M0 0 C1.65 0.33 3.3 0.66 5 1 C4.95875 2.155 4.9175 3.31 4.875 4.5 C4.86705381 8.95781144 5.72763768 12.73384398 7 17 C8.45444169 18.45444169 10.04703294 18.74435439 12 19.375 C13.21042969 19.78298828 13.21042969 19.78298828 14.4453125 20.19921875 C16.97249824 21.02610306 16.97249824 21.02610306 19.4921875 21.58203125 C20.27851562 21.78183594 21.06484375 21.98164062 21.875 22.1875 C22.59429687 22.34605469 23.31359375 22.50460938 24.0546875 22.66796875 C28.99092165 26.04800057 29.90868387 35.14709355 31.1875 40.75 C31.36474609 41.49121094 31.54199219 42.23242188 31.72460938 42.99609375 C32.52722415 46.44826696 33 49.43645477 33 53 C32.01 53.495 32.01 53.495 31 54 C31.99 54.33 32.98 54.66 34 55 C34 55.66 34 56.32 34 57 C34.66 57 35.32 57 36 57 C38.00678401 60.62128443 40.0042648 64.24761643 42 67.875 C42.57234375 68.90753906 43.1446875 69.94007813 43.734375 71.00390625 C44.54648438 72.48310547 44.54648438 72.48310547 45.375 73.9921875 C45.87773438 74.90339355 46.38046875 75.81459961 46.8984375 76.75341797 C48 79 48 79 48 81 C42.17508845 80.40629441 36.79601524 79.288249 31.1875 77.625 C30.43791016 77.41617188 29.68832031 77.20734375 28.91601562 76.9921875 C25.07770837 75.86710727 22.72999555 74.85535491 20 72 C18.33850143 71.32055557 16.67092458 70.65592168 15 70 C1.80973102 62.30301495 1.80973102 62.30301495 -0.125 56.625 C-0.41375 55.42875 -0.7025 54.2325 -1 53 C-1.97072412 51.97155715 -2.97199141 50.97118399 -4 50 C-7.11097683 44.44468424 -7.52416084 40.19978207 -6 34 C-5.47019531 32.98486328 -5.47019531 32.98486328 -4.9296875 31.94921875 C-3.26725123 28.4636906 -4.5149027 24.74561527 -5.515625 21.14453125 C-6.72249806 15.80119812 -7.45146652 9.5347768 -4.66015625 4.66015625 C-3.18894845 2.96740187 -1.71160217 1.44671136 0 0 Z M0 3 C1 6 1 6 1 6 Z M-1 7 C0 11 0 11 0 11 Z M-2 11 C-1 15 -1 15 -1 15 Z M-3 15 C-2 19 -2 19 -2 19 Z M-4 19 C-3 23 -3 23 -3 23 Z M8 27 C8 30.3 8 33.6 8 37 C8.33 37 8.66 37 9 37 C9 33.7 9 30.4 9 27 C8.67 27 8.34 27 8 27 Z M-4 36 C-3 40 -3 40 -3 40 Z M9 38 C9 39.65 9 41.3 9 43 C8.01 43.495 8.01 43.495 7 44 C8.32 45.65 9.64 47.3 11 49 C11 48.34 11 47.68 11 47 C11.66 46.67 12.32 46.34 13 46 C12.34 46 11.68 46 11 46 C10.67 43.36 10.34 40.72 10 38 C9.67 38 9.34 38 9 38 Z M-3 41 C-2 45 -2 45 -2 45 Z M-2 46 C-1 50 -1 50 -1 50 Z M11 49 C12 51 12 51 12 51 Z M12 52 C13 54 13 54 13 54 Z M4 53 C5 55 5 55 5 55 Z M13 54 C14 56 14 56 14 56 Z M15 59 C16 61 16 61 16 61 Z M29 62 C30 64 30 64 30 64 Z M17 64 C18 66 18 66 18 66 Z M18 66 C19 68 19 68 19 68 Z M19 69 C20 71 20 71 20 71 Z " fill="#64E2C7" transform="translate(30,83)"/>
<path d="M0 0 C4 0 4 0 5.625 1.5 C6.07875 1.995 6.5325 2.49 7 3 C7.66 3 8.32 3 9 3 C10 4 11 5 12 6 C12.66 6 13.32 6 14 6 C14.66 6.66 15.32 7.32 16 8 C16.99 8.33 17.98 8.66 19 9 C19.66 9.66 20.32 10.32 21 11 C23.06874034 11.6425235 23.06874034 11.6425235 25 12 C24.95875 10.7625 24.9175 9.525 24.875 8.25 C24.75148437 4.544531 25.19431894 3.61136212 27 0 C26.67 5.28 26.34 10.56 26 16 C26.66 16 27.32 16 28 16 C27.67 15.01 27.34 14.02 27 13 C28.32 12.67 29.64 12.34 31 12 C30.9071875 13.3303125 30.9071875 13.3303125 30.8125 14.6875 C31.22199229 21.92186382 36.84334089 25.91641774 41.8203125 30.59765625 C43.89779662 32.88735649 44.65242842 33.99003015 45 37 C46.32 35.02 47.64 33.04 49 31 C50 34 50 34 48.875 36.4375 C48.441875 37.7059375 48.441875 37.7059375 48 39 C49.15684329 41.0995533 49.15684329 41.0995533 51 43 C52.9610239 46.01695984 54.21518731 48.50536237 55 52 C39.27639187 62.81695027 39.27639187 62.81695027 32 64 C30.20079556 61.77656843 28.4106409 59.54678318 26.625 57.3125 C26.11710937 56.68666016 25.60921875 56.06082031 25.0859375 55.41601562 C22.91645476 52.68988928 21.1698748 50.43673485 19.8984375 47.16796875 C18.7427779 44.37931189 17.67339682 44.25920865 15 43 C12.78125 40.609375 12.78125 40.609375 10.5 37.75 C9.7471875 36.81671875 8.994375 35.8834375 8.21875 34.921875 C7.4865625 33.95765625 6.754375 32.9934375 6 32 C4.90945312 30.62908203 4.90945312 30.62908203 3.796875 29.23046875 C1.44544891 25.00301358 1.10767419 21.32776341 0.75 16.5625 C0.67265625 15.74201172 0.5953125 14.92152344 0.515625 14.07617188 C0.09481428 9.36835199 -0.07631443 4.725135 0 0 Z M25 18 C26 22 26 22 26 22 Z M24 23 C25 26 25 26 25 26 Z M23 27 C24 30 24 30 24 30 Z M22 31 C23 34 23 34 23 34 Z M21 35 C22 38 22 38 22 38 Z M20 39 C21 42 21 42 21 42 Z M43 39 C44 41 44 41 44 41 Z M42 41 C43 43 43 43 43 43 Z M41 44 C42 46 42 46 42 46 Z M40 46 C41 48 41 48 41 48 Z M38 51 C39 53 39 53 39 53 Z M37 53 C38 55 38 55 38 55 Z M36 56 C37 58 37 58 37 58 Z M35 58 C36 60 36 60 36 60 Z " fill="#A9EAB8" transform="translate(110,95)"/>
<path d="M0 0 C0.77923828 0.62068359 0.77923828 0.62068359 1.57421875 1.25390625 C1.57421875 1.91390625 1.57421875 2.57390625 1.57421875 3.25390625 C2.20070312 3.50785156 2.8271875 3.76179688 3.47265625 4.0234375 C4.28992188 4.36761719 5.1071875 4.71179687 5.94921875 5.06640625 C6.76132813 5.40285156 7.5734375 5.73929688 8.41015625 6.0859375 C10.57421875 7.25390625 10.57421875 7.25390625 12.57421875 10.25390625 C13.90045526 10.93458161 15.23441386 11.60034289 16.57421875 12.25390625 C18.25 13.76953125 18.25 13.76953125 19.88671875 15.50390625 C22.85214432 18.57844921 25.95863827 21.3205285 29.2890625 23.9921875 C29.92521484 24.61673828 29.92521484 24.61673828 30.57421875 25.25390625 C30.57421875 25.91390625 30.57421875 26.57390625 30.57421875 27.25390625 C26.94421875 27.25390625 23.31421875 27.25390625 19.57421875 27.25390625 C19.57421875 26.59390625 19.57421875 25.93390625 19.57421875 25.25390625 C18.58421875 25.74890625 18.58421875 25.74890625 17.57421875 26.25390625 C18.23421875 27.24390625 18.89421875 28.23390625 19.57421875 29.25390625 C20.23421875 28.92390625 20.89421875 28.59390625 21.57421875 28.25390625 C23.4480148 28.18356856 25.32422977 28.16960405 27.19921875 28.19140625 C28.70355469 28.20494141 28.70355469 28.20494141 30.23828125 28.21875 C31.00914062 28.23035156 31.78 28.24195313 32.57421875 28.25390625 C32.86425781 29.21103516 32.86425781 29.21103516 33.16015625 30.1875 C33.42054688 31.01378906 33.6809375 31.84007812 33.94921875 32.69140625 C34.20445312 33.51511719 34.4596875 34.33882812 34.72265625 35.1875 C35.38304102 37.43188641 35.38304102 37.43188641 37.57421875 38.25390625 C38.53255565 40.60328367 39.39207321 42.9160868 40.19921875 45.31640625 C40.54339844 46.31124023 40.54339844 46.31124023 40.89453125 47.32617188 C41.46097651 48.96650294 42.01844798 50.60992782 42.57421875 52.25390625 C39.41306099 50.88407122 38.58150955 50.26484245 36.57421875 47.25390625 C36.71859375 48.46046875 36.86296875 49.66703125 37.01171875 50.91015625 C37.19945777 52.52471181 37.38694429 54.13929674 37.57421875 55.75390625 C37.71730469 56.94113281 37.71730469 56.94113281 37.86328125 58.15234375 C38.44529757 63.22420029 38.6678896 68.14884484 38.57421875 73.25390625 C34.96661317 70.53558806 32.1233206 67.73301795 29.32421875 64.19140625 C28.6384375 63.33417969 27.95265625 62.47695312 27.24609375 61.59375 C25.57421875 59.25390625 25.57421875 59.25390625 24.57421875 56.25390625 C22.91666075 55.56490429 21.24843952 54.90136825 19.57421875 54.25390625 C17.3984375 52.51953125 17.3984375 52.51953125 15.26171875 50.50390625 C11.75197109 47.25827004 8.17493879 44.42933723 4.203125 41.7734375 C1.0265865 38.81019175 0.25908905 34.35754647 -0.71484375 30.2421875 C-0.93398437 29.31986328 -1.153125 28.39753906 -1.37890625 27.44726562 C-1.600625 26.49658203 -1.82234375 25.54589844 -2.05078125 24.56640625 C-2.28023437 23.60412109 -2.5096875 22.64183594 -2.74609375 21.65039062 C-4.42578125 14.52671596 -4.42578125 14.52671596 -4.42578125 12.25390625 C-5.57221146 11.0737575 -6.72538672 9.89930531 -7.9140625 8.76171875 C-10.59681378 6.08589964 -12.99253935 3.15540088 -15.42578125 0.25390625 C-14.43578125 -0.40609375 -13.44578125 -1.06609375 -12.42578125 -1.74609375 C-13.41578125 -2.40609375 -14.40578125 -3.06609375 -15.42578125 -3.74609375 C-9.25930432 -5.80158606 -5.18766163 -3.21232282 0 0 Z M12.57421875 12.25390625 C13.57421875 14.25390625 13.57421875 14.25390625 13.57421875 14.25390625 Z M13.57421875 14.25390625 C14.57421875 16.25390625 14.57421875 16.25390625 14.57421875 16.25390625 Z M14.57421875 16.25390625 C15.57421875 18.25390625 15.57421875 18.25390625 15.57421875 18.25390625 Z M15.57421875 18.25390625 C16.57421875 20.25390625 16.57421875 20.25390625 16.57421875 20.25390625 Z M16.57421875 20.25390625 C17.57421875 22.25390625 17.57421875 22.25390625 17.57421875 22.25390625 Z M17.57421875 22.25390625 C18.57421875 24.25390625 18.57421875 24.25390625 18.57421875 24.25390625 Z M20.57421875 31.25390625 C20.57421875 33.23390625 20.57421875 35.21390625 20.57421875 37.25390625 C20.90421875 37.25390625 21.23421875 37.25390625 21.57421875 37.25390625 C21.57421875 35.27390625 21.57421875 33.29390625 21.57421875 31.25390625 C21.24421875 31.25390625 20.91421875 31.25390625 20.57421875 31.25390625 Z M21.57421875 38.25390625 C21.57421875 40.23390625 21.57421875 42.21390625 21.57421875 44.25390625 C21.90421875 44.25390625 22.23421875 44.25390625 22.57421875 44.25390625 C22.57421875 42.27390625 22.57421875 40.29390625 22.57421875 38.25390625 C22.24421875 38.25390625 21.91421875 38.25390625 21.57421875 38.25390625 Z M22.57421875 45.25390625 C22.57421875 47.23390625 22.57421875 49.21390625 22.57421875 51.25390625 C22.90421875 51.25390625 23.23421875 51.25390625 23.57421875 51.25390625 C23.57421875 49.27390625 23.57421875 47.29390625 23.57421875 45.25390625 C23.24421875 45.25390625 22.91421875 45.25390625 22.57421875 45.25390625 Z " fill="#C5EEAF" transform="translate(133.42578125,39.74609375)"/>
<path d="M0 0 C-2.97 0.99 -5.94 1.98 -9 3 C-8.01 3.33 -7.02 3.66 -6 4 C-4.875 9.75 -4.875 9.75 -6 12 C-6.66 12 -7.32 12 -8 12 C-7.7525 12.8971875 -7.7525 12.8971875 -7.5 13.8125 C-7 16 -7 16 -7 19 C-10 21 -10 21 -12 21 C-12 21.66 -12 22.32 -12 23 C-11.34 23 -10.68 23 -10 23 C-9.80083984 24.15628906 -9.80083984 24.15628906 -9.59765625 25.3359375 C-9.42105469 26.33882812 -9.24445313 27.34171875 -9.0625 28.375 C-8.88847656 29.37273437 -8.71445313 30.37046875 -8.53515625 31.3984375 C-8.12287938 33.96909656 -8.12287938 33.96909656 -7 36 C-7 37.66666667 -7 39.33333333 -7 41 C-6.67 41.99 -6.34 42.98 -6 44 C-6.9375 46.6875 -6.9375 46.6875 -8 49 C-8.5669458 48.53215088 -9.1338916 48.06430176 -9.71801758 47.58227539 C-12.06129045 45.95750258 -13.7581975 45.33207528 -16.51171875 44.68359375 C-17.77145508 44.37325195 -17.77145508 44.37325195 -19.05664062 44.05664062 C-20.35891602 43.75016602 -20.35891602 43.75016602 -21.6875 43.4375 C-23.42235283 43.02698171 -25.15554953 42.60937862 -26.88671875 42.18359375 C-27.65201904 42.00368896 -28.41731934 41.82378418 -29.20581055 41.63842773 C-31 41 -31 41 -32 39 C-32.26435731 35.69353096 -32.23148851 32.37837073 -32.25 29.0625 C-32.270625 28.14275391 -32.29125 27.22300781 -32.3125 26.27539062 C-32.31765625 25.39173828 -32.3228125 24.50808594 -32.328125 23.59765625 C-32.3374707 22.78820557 -32.34681641 21.97875488 -32.35644531 21.14477539 C-31.92104625 18.52492557 -31.01986673 17.65555743 -29 16 C-29.68707031 16.44472656 -30.37414063 16.88945313 -31.08203125 17.34765625 C-32.43361328 18.19650391 -32.43361328 18.19650391 -33.8125 19.0625 C-34.70582031 19.63097656 -35.59914063 20.19945313 -36.51953125 20.78515625 C-39 22 -39 22 -42 21 C-31.2091496 12.01402493 -31.2091496 12.01402493 -27.4375 9.625 C-24.77083333 8.07291667 -24.77083333 8.07291667 -23 5 C-19.0456534 3.75720536 -15.11456153 3.91932232 -11 4 C-11 3.01 -11 2.02 -11 1 C-4.5 -1.125 -4.5 -1.125 0 0 Z M-27 19 C-27 19.33 -27 19.66 -27 20 C-24.69 20 -22.38 20 -20 20 C-20 19.67 -20 19.34 -20 19 C-22.31 19 -24.62 19 -27 19 Z M-19 20 C-19 20.33 -19 20.66 -19 21 C-16.69 21 -14.38 21 -12 21 C-12 20.67 -12 20.34 -12 20 C-14.31 20 -16.62 20 -19 20 Z " fill="#91E7BE" transform="translate(85,36)"/>
<path d="M0 0 C0.87785156 0.11214844 1.75570312 0.22429688 2.66015625 0.33984375 C3.84931641 0.51193359 3.84931641 0.51193359 5.0625 0.6875 C6.01125 0.81125 6.96 0.935 7.9375 1.0625 C10.46022121 1.80447683 12.07303806 2.99277316 14.0625 4.6875 C11.9619945 7.954953 9.94683518 10.83023505 7.25 13.625 C4.67812754 16.56946119 4.67812754 16.56946119 5.1875 20.4375 C5.90851984 23.54563064 5.90851984 23.54563064 7.0625 25.6875 C6.78137936 27.69550456 6.45182033 29.69764051 6.0625 31.6875 C0.13340494 31.1013281 -5.25330266 29.88345619 -10.9375 28.125 C-11.71222656 27.89103516 -12.48695312 27.65707031 -13.28515625 27.41601562 C-15.1710214 26.84559962 -17.0545209 26.26737197 -18.9375 25.6875 C-19.89229079 20.83958337 -19.64132801 18.32569847 -17.9375 13.6875 C-17.56218554 11.36055036 -17.21832798 9.02773315 -16.9375 6.6875 C-16.07125 6.56375 -16.07125 6.56375 -15.1875 6.4375 C-12.30993109 5.47831036 -11.0322375 3.84769805 -8.9375 1.6875 C-5.75890596 -0.32219172 -3.69716755 -0.47282728 0 0 Z M-2.9375 3.6875 C-2.9375 4.0175 -2.9375 4.3475 -2.9375 4.6875 C0.3625 4.6875 3.6625 4.6875 7.0625 4.6875 C7.0625 4.3575 7.0625 4.0275 7.0625 3.6875 C3.7625 3.6875 0.4625 3.6875 -2.9375 3.6875 Z M0.0625 11.6875 C0.0625 12.6775 0.0625 13.6675 0.0625 14.6875 C1.3825 15.0175 2.7025 15.3475 4.0625 15.6875 C4.3925 14.3675 4.7225 13.0475 5.0625 11.6875 C3.4125 11.6875 1.7625 11.6875 0.0625 11.6875 Z " fill="#ADECB7" transform="translate(96.9375,32.3125)"/>
<path d="M0 0 C-2.97 0.99 -5.94 1.98 -9 3 C-8.01 3.33 -7.02 3.66 -6 4 C-4.875 9.75 -4.875 9.75 -6 12 C-6.66 12 -7.32 12 -8 12 C-7.7525 12.8971875 -7.7525 12.8971875 -7.5 13.8125 C-7 16 -7 16 -7 19 C-10.19405209 21.12936806 -10.49187661 21.23418211 -14.01171875 20.7578125 C-14.76904297 20.66113281 -15.52636719 20.56445312 -16.30664062 20.46484375 C-17.09232422 20.35269531 -17.87800781 20.24054687 -18.6875 20.125 C-19.48478516 20.02058594 -20.28207031 19.91617188 -21.10351562 19.80859375 C-23.07041111 19.54948177 -25.03541767 19.27610346 -27 19 C-27.33 18.01 -27.66 17.02 -28 16 C-29.96144336 16.94149281 -31.86554457 17.91718768 -33.71875 19.05859375 C-35.43724632 20.11080866 -37.21755797 21.06016693 -39 22 C-39.99 21.67 -40.98 21.34 -42 21 C-31.2091496 12.01402493 -31.2091496 12.01402493 -27.4375 9.625 C-24.77083333 8.07291667 -24.77083333 8.07291667 -23 5 C-19.0456534 3.75720536 -15.11456153 3.91932232 -11 4 C-11 3.01 -11 2.02 -11 1 C-4.5 -1.125 -4.5 -1.125 0 0 Z " fill="#9EE8BB" transform="translate(85,36)"/>
<path d="M0 0 C0.05807043 3.10408807 0.09361914 6.2080364 0.125 9.3125 C0.14175781 10.19357422 0.15851562 11.07464844 0.17578125 11.98242188 C0.18222656 12.82998047 0.18867187 13.67753906 0.1953125 14.55078125 C0.20578613 15.33106689 0.21625977 16.11135254 0.22705078 16.9152832 C0 19 0 19 -2 22 C-2 21.34 -2 20.68 -2 20 C-4.97 20.66 -7.94 21.32 -11 22 C-11 22.33 -11 22.66 -11 23 C-12.98 23 -14.96 23 -17 23 C-17.33 21.68 -17.66 20.36 -18 19 C-19.65 21.64 -21.3 24.28 -23 27 C-24 24 -24 24 -23.07421875 21.80859375 C-22.61660156 21.02613281 -22.15898437 20.24367188 -21.6875 19.4375 C-21.23761719 18.65246094 -20.78773437 17.86742188 -20.32421875 17.05859375 C-19 15 -19 15 -17 13 C-16.505 11.1128125 -16.505 11.1128125 -16 9.1875 C-14.60211587 5.21113531 -12.78000572 3.90515344 -9.0625 2 C-5.60192117 0.41324892 -3.91117702 0 0 0 Z " fill="#80E5C3" transform="translate(52,57)"/>
<path d="M0 0 C5.72324723 4.26199262 5.72324723 4.26199262 6.9375 7.5 C7.00400743 10.16029738 6.66159473 12.42713159 6 15 C6.33 15 6.66 15 7 15 C7.06737931 18.66842917 7.03870863 22.33128211 7 26 C7.01933594 27.13050781 7.03867188 28.26101562 7.05859375 29.42578125 C6.89527834 39.21381816 4.08149701 44.43622467 -2 52 C-4 49 -4 49 -3.75 46.0625 C-3 43 -3 43 -2 41.125 C-0.94646922 38.8862471 -0.77798861 37.32013602 -0.5625 34.875 C-0.376875 33.59625 -0.19125 32.3175 0 31 C0.99 30.34 1.98 29.68 3 29 C3.25015873 25.41642759 3.25015873 25.41642759 3 22 C2.67 22.66 2.34 23.32 2 24 C1.01 23.67 0.02 23.34 -1 23 C-0.34 23 0.32 23 1 23 C1.020625 21.741875 1.04125 20.48375 1.0625 19.1875 C1.07410156 18.47980469 1.08570313 17.77210937 1.09765625 17.04296875 C1.08263217 14.79694539 1.08263217 14.79694539 0 12 C0 9.66666667 0 7.33333333 0 5 C-0.33 4.01 -0.66 3.02 -1 2 C-0.67 1.34 -0.34 0.68 0 0 Z M4 17 C5 20 5 20 5 20 Z M4 32 C5 34 5 34 5 34 Z " fill="#BDE2AB" transform="translate(171,90)"/>
<path d="M0 0 C-2.97 0.99 -5.94 1.98 -9 3 C-9 3.66 -9 4.32 -9 5 C-11.92420723 7.6805233 -14.13659784 9.20067542 -18 10 C-18.66 10.66 -19.32 11.32 -20 12 C-20.99 12.33 -21.98 12.66 -23 13 C-23.66 13.66 -24.32 14.32 -25 15 C-25.86625 15.268125 -26.7325 15.53625 -27.625 15.8125 C-31.2804152 17.09866461 -34.01336684 18.86537521 -37.16796875 21.07421875 C-37.77253906 21.37972656 -38.37710938 21.68523438 -39 22 C-39.99 21.67 -40.98 21.34 -42 21 C-31.2091496 12.01402493 -31.2091496 12.01402493 -27.4375 9.625 C-24.77083333 8.07291667 -24.77083333 8.07291667 -23 5 C-19.0456534 3.75720536 -15.11456153 3.91932232 -11 4 C-11 3.01 -11 2.02 -11 1 C-4.5 -1.125 -4.5 -1.125 0 0 Z " fill="#9BE4B9" transform="translate(85,36)"/>
<path d="M0 0 C0.97159933 7.68604474 1.10920422 15.25863399 1 23 C-0.1055189 22.06409496 -1.20935453 21.12620142 -2.3125 20.1875 C-2.92738281 19.66542969 -3.54226562 19.14335938 -4.17578125 18.60546875 C-4.77777344 18.07566406 -5.37976563 17.54585937 -6 17 C-6.55042969 16.54238281 -7.10085937 16.08476563 -7.66796875 15.61328125 C-9.51893313 13.37149741 -9.91747384 11.90578947 -10 9 C-8.41796875 6.54296875 -8.41796875 6.54296875 -6.1875 4.1875 C-5.45917969 3.39730469 -4.73085938 2.60710937 -3.98046875 1.79296875 C-2 0 -2 0 0 0 Z " fill="#61E3C9" transform="translate(37,102)"/>
<path d="M0 0 C-1.47446854 3.88723524 -3.5052928 4.93901883 -7 7 C-7.33 7.99 -7.66 8.98 -8 10 C-9.28659163 11.37849103 -10.62913085 12.70529025 -12 14 C-14.94550009 16.87365862 -17.55274342 19.70152374 -20 23 C-21.31442362 24.35197858 -22.6434836 25.69026002 -24 27 C-23.33821095 21.54024033 -20.89354461 16.89354461 -17 13 C-16.505 11.1128125 -16.505 11.1128125 -16 9.1875 C-14.60211587 5.21113531 -12.78000572 3.90515344 -9.0625 2 C-5.60192117 0.41324892 -3.91117702 0 0 0 Z " fill="#81DEBE" transform="translate(52,57)"/>
<path d="M0 0 C1.65 0.33 3.3 0.66 5 1 C4.75 3.375 4.75 3.375 4 6 C3.3709375 6.226875 2.741875 6.45375 2.09375 6.6875 C-0.70213104 8.44014184 -0.9979709 10.40594612 -1.7734375 13.5078125 C-1.93070313 14.20648438 -2.08796875 14.90515625 -2.25 15.625 C-2.42273438 16.33140625 -2.59546875 17.0378125 -2.7734375 17.765625 C-3.19699243 19.5069064 -3.60045497 21.2530531 -4 23 C-6.96010313 17.99885801 -6.88132511 12.63313635 -6 7 C-4.37850036 4.17651661 -2.47930331 2.09560161 0 0 Z M0 3 C1 6 1 6 1 6 Z " fill="#71D0BA" transform="translate(30,83)"/>
<path d="M0 0 C0.87785156 0.11214844 1.75570312 0.22429688 2.66015625 0.33984375 C3.84931641 0.51193359 3.84931641 0.51193359 5.0625 0.6875 C6.01125 0.81125 6.96 0.935 7.9375 1.0625 C10.46022121 1.80447683 12.07303806 2.99277316 14.0625 4.6875 C11.43934968 5.99907516 9.83216564 5.58399988 6.9375 5.25 C6.02742188 5.14816406 5.11734375 5.04632813 4.1796875 4.94140625 C3.48101562 4.85761719 2.78234375 4.77382813 2.0625 4.6875 C2.0625 5.0175 2.0625 5.3475 2.0625 5.6875 C-4.8675 5.1925 -4.8675 5.1925 -11.9375 4.6875 C-7.89127783 0.64127783 -5.70313362 -0.7293684 0 0 Z " fill="#B3E2AF" transform="translate(96.9375,32.3125)"/>
<path d="M0 0 C0.66 0.66 1.32 1.32 2 2 C1.69972883 3.67293936 1.36442233 5.33985384 1 7 C1.33 7.99 1.66 8.98 2 10 C2.33333333 12.33333333 2.66666667 14.66666667 3 17 C3.33 17.99 3.66 18.98 4 20 C3.34 20.66 2.68 21.32 2 22 C-1.52670804 16.15469498 -3.69984403 11.78218044 -2.58984375 4.91015625 C-2 3 -2 3 0 0 Z " fill="#61CFBD" transform="translate(26,114)"/>
<path d="M0 0 C0.66 0.33 1.32 0.66 2 1 C2.625 3.0625 2.625 3.0625 3 5 C2.34 5.226875 1.68 5.45375 1 5.6875 C-2.33476651 7.14646035 -5.14501398 9.0106614 -8.1328125 11.07421875 C-10 12 -10 12 -13 11 C-12.22914062 10.37351562 -11.45828125 9.74703125 -10.6640625 9.1015625 C-9.15972656 7.87566406 -9.15972656 7.87566406 -7.625 6.625 C-6.62726562 5.81289063 -5.62953125 5.00078125 -4.6015625 4.1640625 C-2.03639494 2.09734084 -2.03639494 2.09734084 0 0 Z " fill="#8DDAB8" transform="translate(56,46)"/>
<path d="M0 0 C2.74482316 1.55386637 5.38317774 3.24030067 8 5 C6.02 5.99 6.02 5.99 4 7 C4 6.34 4 5.68 4 5 C3.05125 5.020625 2.1025 5.04125 1.125 5.0625 C-2 5 -2 5 -4 4 C-4 3.34 -4 2.68 -4 2 C-5.65 1.67 -7.3 1.34 -9 1 C-5.60022247 -1.14060067 -3.8001148 -1.29549368 0 0 Z " fill="#B9DAA7" transform="translate(127,36)"/>
<path d="M0 0 C3.184499 1.5922495 3.54842508 4.86094144 4.625 8.0625 C4.85445312 8.72572266 5.08390625 9.38894531 5.3203125 10.07226562 C5.88675776 11.71259669 6.44422923 13.35602157 7 15 C3.17611142 13.30398371 2.08023498 11.61779996 0 8 C-0.99 7.34 -1.98 6.68 -3 6 C-2.34 6 -1.68 6 -1 6 C-0.67 4.02 -0.34 2.04 0 0 Z " fill="#BDD9A5" transform="translate(169,77)"/>
<path d="M0 0 C-0.48320848 6.2054142 -1.33318124 11.99945246 -3 18 C-3.33 18 -3.66 18 -4 18 C-4.0809723 15.56183415 -4.14046972 13.12635616 -4.1875 10.6875 C-4.21263672 9.99720703 -4.23777344 9.30691406 -4.26367188 8.59570312 C-4.33807332 3.46200317 -4.33807332 3.46200317 -2.55078125 1.01953125 C-1 0 -1 0 0 0 Z " fill="#65E0C7" transform="translate(29,88)"/>
<path d="M0 0 C-4.455 1.485 -4.455 1.485 -9 3 C-9 3.66 -9 4.32 -9 5 C-11 6.625 -11 6.625 -13 8 C-13.33 7.01 -13.66 6.02 -14 5 C-16.01508358 4.26676204 -16.01508358 4.26676204 -18 4 C-15.69 4 -13.38 4 -11 4 C-11 3.01 -11 2.02 -11 1 C-4.5 -1.125 -4.5 -1.125 0 0 Z " fill="#A0D2AD" transform="translate(85,36)"/>
<path d="M0 0 C0.66 1.32 1.32 2.64 2 4 C1.13375 4.804375 1.13375 4.804375 0.25 5.625 C-2.2147481 8.22667855 -4.0791012 10.98144474 -6 14 C-7 11 -7 11 -6.07421875 8.80859375 C-5.61660156 8.02613281 -5.15898437 7.24367188 -4.6875 6.4375 C-4.23761719 5.65246094 -3.78773437 4.86742188 -3.32421875 4.05859375 C-2 2 -2 2 0 0 Z " fill="#79CBB5" transform="translate(35,70)"/>
<path d="M0 0 C0.66 0.33 1.32 0.66 2 1 C1.67 1.33 1.34 1.66 1 2 C3.64 2.66 6.28 3.32 9 4 C9 4.33 9 4.66 9 5 C2.07 4.505 2.07 4.505 -5 4 C-2 1 -2 1 0 0 Z " fill="#ACD9AE" transform="translate(90,33)"/>
<path d="M0 0 C0.33 0.99 0.66 1.98 1 3 C-1.06430358 5.94900512 -3.3929227 8.52327657 -6 11 C-6.66 10.67 -7.32 10.34 -8 10 C-6.21450784 5.89336804 -5.20909581 3.68363832 -1 2 C-0.67 1.34 -0.34 0.68 0 0 Z " fill="#ABD2A7" transform="translate(108,38)"/>
<path d="M0 0 C0.33 0.66 0.66 1.32 1 2 C0.0625 4.125 0.0625 4.125 -1 6 C-3 6 -3 6 -6 5 C-4.10646634 3.10646634 -2.15473199 1.5801368 0 0 Z " fill="#82CDB3" transform="translate(53,78)"/>
<path d="M0 0 C0.66 0.33 1.32 0.66 2 1 C2.625 3.0625 2.625 3.0625 3 5 C1.35 5.33 -0.3 5.66 -2 6 C-2.33 5.01 -2.66 4.02 -3 3 C-2.01 2.01 -1.02 1.02 0 0 Z " fill="#91CDAF" transform="translate(56,46)"/>
<path d="M0 0 C1.485 0.99 1.485 0.99 3 2 C2.67 2.66 2.34 3.32 2 4 C1.34 2.68 0.68 1.36 0 0 Z " fill="#AFC49C" transform="translate(151,51)"/>
</svg>
