<?xml version="1.0" encoding="UTF-8"?>
<svg version="1.1" xmlns="http://www.w3.org/2000/svg" width="96" height="96">
<path d="M0 0 C2.0625 0.4375 2.0625 0.4375 4 1 C4 1.66 4 2.32 4 3 C11.59 3 19.18 3 27 3 C27 6.63 27 10.26 27 14 C33.93 14 40.86 14 48 14 C48 19.65011928 47.35338599 19.93528971 44 24 C42.92727438 26.44539786 42.92727438 26.44539786 43 29 C44.2463436 31.66057656 44.2463436 31.66057656 46 34 C48 37 48 37 47.625 39.6875 C47.41875 40.450625 47.2125 41.21375 47 42 C42.74585377 42.02465622 38.49174502 42.04283899 34.23754883 42.05493164 C32.78929927 42.05997101 31.34105483 42.06680253 29.89282227 42.07543945 C27.81525412 42.08752247 25.73775303 42.09323211 23.66015625 42.09765625 C22.40855713 42.10289307 21.15695801 42.10812988 19.86743164 42.11352539 C17 42 17 42 16 41 C15.85689713 37.3308423 15.95778338 33.67284559 16 30 C12.04 30 8.08 30 4 30 C4 48.81 4 67.62 4 87 C12.58 87 21.16 87 30 87 C30.33 88.65 30.66 90.3 31 92 C30 93 30 93 28.17137146 93.12025452 C26.97557213 93.1169236 26.97557213 93.1169236 25.75561523 93.11352539 C24.85475693 93.11344986 23.95389862 93.11337433 23.02574158 93.11329651 C22.04658279 93.10813522 21.06742401 93.10297394 20.05859375 93.09765625 C19.06118668 93.0962413 18.0637796 93.09482635 17.03614807 93.09336853 C13.83656876 93.08775114 10.63705831 93.07519571 7.4375 93.0625 C5.27408955 93.05748724 3.11067801 93.05292395 0.94726562 93.04882812 C-4.36851325 93.03777607 -9.68425171 93.02102104 -15 93 C-15.38218767 91.34385343 -15.71395102 89.67542976 -16 88 C-15 87 -15 87 -11.83984375 86.90234375 C-10.55207031 86.91394531 -9.26429687 86.92554687 -7.9375 86.9375 C-6.00197266 86.95103516 -6.00197266 86.95103516 -4.02734375 86.96484375 C-3.02832031 86.97644531 -2.02929688 86.98804687 -1 87 C-1.00222061 85.92480606 -1.00444122 84.84961212 -1.00672913 83.74183655 C-1.0269599 73.63215799 -1.04197183 63.52248352 -1.05181217 53.41278934 C-1.05704116 48.21471885 -1.0641391 43.01666464 -1.07543945 37.81860352 C-1.08626776 32.80657732 -1.09227671 27.79456682 -1.09487724 22.78252983 C-1.09673159 20.86587718 -1.1003524 18.94922543 -1.10573006 17.03257942 C-1.11293975 14.35771928 -1.11399097 11.68292486 -1.11352539 9.00805664 C-1.11712067 8.2074884 -1.12071594 7.40692017 -1.12442017 6.58209229 C-1.11405216 1.11405216 -1.11405216 1.11405216 0 0 Z M4 8 C4 13.61 4 19.22 4 25 C9.94 25 15.88 25 22 25 C22 19.39 22 13.78 22 8 C16.06 8 10.12 8 4 8 Z M27 19 C27 22.63 27 26.26 27 30 C25.02 30 23.04 30 21 30 C21 31.98 21 33.96 21 36 C26.94 36 32.88 36 39 36 C38.67 34.68 38.34 33.36 38 32 C37.91033713 30.50210258 37.86986106 29.00056979 37.875 27.5 C37.87113281 26.37078125 37.87113281 26.37078125 37.8671875 25.21875 C38 23 38 23 39 19 C35.04 19 31.08 19 27 19 Z " fill="#FFFFFF" transform="translate(39,3)"/>
<path d="M0 0 C2.05078125 0.03255208 4.1015625 0.06510417 6.15234375 0.09765625 C6.53453142 1.75380282 6.86629477 3.42222649 7.15234375 5.09765625 C6.15234375 6.09765625 6.15234375 6.09765625 4.3046875 6.1953125 C2.25390625 6.16276042 0.203125 6.13020833 -1.84765625 6.09765625 C-2.22984392 4.44150968 -2.56160727 2.77308601 -2.84765625 1.09765625 C-1.84765625 0.09765625 -1.84765625 0.09765625 0 0 Z " fill="#FFFFFF" transform="translate(79.84765625,89.90234375)"/>
</svg>
